<?xml version="1.0" encoding="UTF-8"?>
<svg xmlns="http://www.w3.org/2000/svg" viewBox="0 0 1080 1920" width="1080" height="1920" role="img">
<title>Fondo móvil respaldo</title>

    <defs>
      <linearGradient id="gPlant" x1="0" y1="0" x2="1" y2="1">
        <stop offset="0" stop-color="#A9DB91"/><stop offset="0.5" stop-color="#4DA95F"/><stop offset="1" stop-color="#20744F"/>
      </linearGradient>
      <linearGradient id="gPlantDeep" x1="0" y1="0" x2="1" y2="1">
        <stop offset="0" stop-color="#4DA95F"/><stop offset="1" stop-color="#134834"/>
      </linearGradient>
      <linearGradient id="gDiamond" x1="0" y1="0" x2="1" y2="1">
        <stop offset="0" stop-color="#EBFAFF"/><stop offset="0.38" stop-color="#9ADEF1"/><stop offset="0.72" stop-color="#3997C9"/><stop offset="1" stop-color="#236797"/>
      </linearGradient>
      <linearGradient id="gGold" x1="0" y1="0" x2="1" y2="0">
        <stop offset="0" stop-color="#F7DD97"/><stop offset="0.52" stop-color="#DAAE47"/><stop offset="1" stop-color="#7D5420"/>
      </linearGradient>
      <linearGradient id="gBronze" x1="0" y1="0" x2="1" y2="1">
        <stop offset="0" stop-color="#E7AE77"/><stop offset="0.55" stop-color="#B57041"/><stop offset="1" stop-color="#6F3F26"/>
      </linearGradient>
      <linearGradient id="gPlatinum" x1="0" y1="0" x2="1" y2="1">
        <stop offset="0" stop-color="#FAFCFF"/><stop offset="0.42" stop-color="#DEE4EB"/><stop offset="0.75" stop-color="#B4BCC6"/><stop offset="1" stop-color="#697380"/>
      </linearGradient>
      <radialGradient id="rQuartz"><stop offset="0" stop-color="#fff"/><stop offset="1" stop-color="#F0F1F2"/></radialGradient>
      <filter id="softShadow" x="-40%" y="-40%" width="180%" height="180%"><feDropShadow dx="0" dy="8" stdDeviation="12" flood-color="#25343F" flood-opacity="0.16"/></filter>
      <filter id="smallShadow" x="-40%" y="-40%" width="180%" height="180%"><feDropShadow dx="0" dy="3" stdDeviation="4" flood-color="#25343F" flood-opacity="0.18"/></filter>
      <filter id="glow" x="-70%" y="-70%" width="240%" height="240%"><feGaussianBlur stdDeviation="6" result="b"/><feMerge><feMergeNode in="b"/><feMergeNode in="SourceGraphic"/></feMerge></filter>
      <pattern id="grid" width="48" height="48" patternUnits="userSpaceOnUse"><path d="M48 0H0V48" fill="none" stroke="#393E46" stroke-opacity="0.055" stroke-width="1"/></pattern>
      <pattern id="microGrid" width="20" height="20" patternUnits="userSpaceOnUse"><path d="M20 0H0V20" fill="none" stroke="#20744F" stroke-opacity="0.055" stroke-width="1"/></pattern>
    </defs>
<rect width="1080" height="1920" fill="url(#rQuartz)"/>
<rect width="1080" height="1920" fill="url(#rQuartz)"/><rect width="1080" height="1920" fill="url(#grid)" opacity="0.65"/>
    <ellipse cx="180" cy="250" rx="440" ry="520" fill="#A9DB91" opacity=".13"/>
    <g opacity="0.6561409558264473" filter="url(#smallShadow)"><polygon points="146.3,1339.8 142.0,1344.1 135.9,1344.1 131.7,1339.8 131.7,1333.8 135.9,1329.5 142.0,1329.5 146.3,1333.8" fill="url(#gDiamond)" stroke="#fff" stroke-opacity="0.8" stroke-width="2"/><path d="M133.4265319703688 1336.8090746155513L138.96510845568878 1331.2704981302313L144.50368494100874 1336.8090746155513L138.96510845568878 1342.3476511008712Z" fill="#fff" opacity="0.18"/></g><g opacity="0.5433800072960304" filter="url(#smallShadow)"><polygon points="314.3,509.0 309.8,513.5 303.3,513.5 298.8,509.0 298.8,502.5 303.3,498.0 309.8,498.0 314.3,502.5" fill="url(#gGold)" stroke="#fff" stroke-opacity="0.8" stroke-width="2"/><path d="M300.65448176212186 505.74245498545287L306.5375310915296 499.8594056560451L312.42058042093737 505.74245498545287L306.5375310915296 511.6255043148606Z" fill="#fff" opacity="0.18"/></g><g opacity="0.591006635156045" filter="url(#smallShadow)"><polygon points="344.9,1305.1 341.5,1308.6 336.6,1308.6 333.2,1305.1 333.2,1300.2 336.6,1296.8 341.5,1296.8 344.9,1300.2" fill="url(#gBronze)" stroke="#fff" stroke-opacity="0.8" stroke-width="2"/><path d="M334.58170405698354 1302.673618223137L339.0477333661222 1298.2075889139985L343.51376267526086 1302.673618223137L339.0477333661222 1307.1396475322756Z" fill="#fff" opacity="0.18"/></g><g opacity="0.42321307184651735" filter="url(#smallShadow)"><polygon points="159.5,448.9 154.4,454.0 147.2,454.0 142.1,448.9 142.1,441.7 147.2,436.6 154.4,436.6 159.5,441.7" fill="url(#gPlatinum)" stroke="#fff" stroke-opacity="0.8" stroke-width="2"/><path d="M144.18141630039358 445.27497634078424L150.7675612627473 438.6888313784305L157.35370622510104 445.27497634078424L150.7675612627473 451.86112130313796Z" fill="#fff" opacity="0.18"/></g><g opacity="0.33988142240360525" filter="url(#smallShadow)"><polygon points="302.8,1528.9 298.6,1533.2 292.6,1533.2 288.4,1528.9 288.4,1523.0 292.6,1518.8 298.6,1518.8 302.8,1523.0" fill="url(#gPlant)" stroke="#fff" stroke-opacity="0.8" stroke-width="2"/><path d="M290.15739011850343 1525.9631885355327L295.61037859233846 1520.5102000616976L301.0633670661735 1525.9631885355327L295.61037859233846 1531.4161770093679Z" fill="#fff" opacity="0.18"/></g><g opacity="0.5406793167291188" filter="url(#smallShadow)"><polygon points="597.0,1266.9 594.3,1269.6 590.4,1269.6 587.7,1266.9 587.7,1263.1 590.4,1260.4 594.3,1260.4 597.0,1263.1" fill="url(#gDiamond)" stroke="#fff" stroke-opacity="0.8" stroke-width="2"/><path d="M588.8665432370913 1265.0382384070292L592.3593258763901 1261.5454557677303L595.852108515689 1265.0382384070292L592.3593258763901 1268.531021046328Z" fill="#fff" opacity="0.18"/></g><g opacity="0.3617686791839572" filter="url(#smallShadow)"><polygon points="159.6,658.7 157.2,661.1 153.8,661.1 151.3,658.7 151.3,655.2 153.8,652.8 157.2,652.8 159.6,655.2" fill="url(#gGold)" stroke="#fff" stroke-opacity="0.8" stroke-width="2"/><path d="M152.33739892668967 656.9431802010887L155.48687254429575 653.7937065834826L158.63634616190183 656.9431802010887L155.48687254429575 660.0926538186948Z" fill="#fff" opacity="0.18"/></g><g opacity="0.45545922069672173" filter="url(#smallShadow)"><polygon points="1036.7,784.6 1031.4,790.0 1023.8,790.0 1018.4,784.6 1018.4,777.0 1023.8,771.7 1031.4,771.7 1036.7,777.0" fill="url(#gBronze)" stroke="#fff" stroke-opacity="0.8" stroke-width="2"/><path d="M1020.5997071846821 780.8369860418935L1027.559524249415 773.8771689771605L1034.519341314148 780.8369860418935L1027.559524249415 787.7968031066265Z" fill="#fff" opacity="0.18"/></g><g opacity="0.3246125822626961" filter="url(#smallShadow)"><polygon points="657.2,1656.1 652.8,1660.5 646.6,1660.5 642.2,1656.1 642.2,1649.9 646.6,1645.5 652.8,1645.5 657.2,1649.9" fill="url(#gPlatinum)" stroke="#fff" stroke-opacity="0.8" stroke-width="2"/><path d="M643.9969265294105 1653.0274105966507L649.6818372330238 1647.3424998930375L655.366747936637 1653.0274105966507L649.6818372330238 1658.712321300264Z" fill="#fff" opacity="0.18"/></g><g opacity="0.3178689996808879" filter="url(#smallShadow)"><polygon points="635.6,1210.7 632.8,1213.4 628.9,1213.4 626.2,1210.7 626.2,1206.8 628.9,1204.0 632.8,1204.0 635.6,1206.8" fill="url(#gPlant)" stroke="#fff" stroke-opacity="0.8" stroke-width="2"/><path d="M627.3048196623705 1208.7366303616702L630.8658514184166 1205.1755986056241L634.4268831744627 1208.7366303616702L630.8658514184166 1212.2976621177163Z" fill="#fff" opacity="0.18"/></g><g opacity="0.4610403633836423" filter="url(#smallShadow)"><polygon points="927.1,987.6 924.3,990.4 920.3,990.4 917.5,987.6 917.5,983.7 920.3,980.9 924.3,980.9 927.1,983.7" fill="url(#gDiamond)" stroke="#fff" stroke-opacity="0.8" stroke-width="2"/><path d="M918.6756763951691 985.6335075973318L922.2897989776754 982.0193850148255L925.9039215601817 985.6335075973318L922.2897989776754 989.2476301798381Z" fill="#fff" opacity="0.18"/></g><g opacity="0.320971210960104" filter="url(#smallShadow)"><polygon points="259.0,1517.4 255.2,1521.2 249.9,1521.2 246.1,1517.4 246.1,1512.1 249.9,1508.3 255.2,1508.3 259.0,1512.1" fill="url(#gGold)" stroke="#fff" stroke-opacity="0.8" stroke-width="2"/><path d="M247.64964352521457 1514.7299349551276L252.5516600492121 1509.8279184311302L257.45367657320963 1514.7299349551276L252.5516600492121 1519.631951479125Z" fill="#fff" opacity="0.18"/></g><g opacity="0.29119896221672176" filter="url(#smallShadow)"><polygon points="869.7,198.7 866.7,201.8 862.3,201.8 859.2,198.7 859.2,194.4 862.3,191.3 866.7,191.3 869.7,194.4" fill="url(#gBronze)" stroke="#fff" stroke-opacity="0.8" stroke-width="2"/><path d="M860.51176357059 196.53554348837395L864.490572357286 192.55673470167795L868.4693811439821 196.53554348837395L864.490572357286 200.51435227506994Z" fill="#fff" opacity="0.18"/></g><g opacity="0.3171934784209391" filter="url(#smallShadow)"><polygon points="791.8,244.5 787.9,248.4 782.4,248.4 778.5,244.5 778.5,239.1 782.4,235.2 787.9,235.2 791.8,239.1" fill="url(#gPlatinum)" stroke="#fff" stroke-opacity="0.8" stroke-width="2"/><path d="M780.139855432849 241.8067919934371L785.1480665810884 236.79858084519768L790.1562777293278 241.8067919934371L785.1480665810884 246.8150031416765Z" fill="#fff" opacity="0.18"/></g><g opacity="0.46206676038958017" filter="url(#smallShadow)"><polygon points="526.7,1307.6 522.8,1311.5 517.3,1311.5 513.4,1307.6 513.4,1302.0 517.3,1298.1 522.8,1298.1 526.7,1302.0" fill="url(#gPlant)" stroke="#fff" stroke-opacity="0.8" stroke-width="2"/><path d="M514.9998041259138 1304.792162427108L520.0461761150455 1299.7457904379764L525.0925481041771 1304.792162427108L520.0461761150455 1309.8385344162396Z" fill="#fff" opacity="0.18"/></g><g opacity="0.31794169204347866" filter="url(#smallShadow)"><polygon points="531.6,845.8 527.5,849.9 521.7,849.9 517.6,845.8 517.6,840.0 521.7,835.9 527.5,835.9 531.6,840.0" fill="url(#gDiamond)" stroke="#fff" stroke-opacity="0.8" stroke-width="2"/><path d="M519.2674793984776 842.8992028304203L524.5683551506888 837.5983270782091L529.8692309029001 842.8992028304203L524.5683551506888 848.2000785826316Z" fill="#fff" opacity="0.18"/></g><g opacity="0.6556080880435027" filter="url(#smallShadow)"><polygon points="522.5,473.0 517.5,477.9 510.5,477.9 505.5,473.0 505.5,465.9 510.5,461.0 517.5,461.0 522.5,465.9" fill="url(#gGold)" stroke="#fff" stroke-opacity="0.8" stroke-width="2"/><path d="M507.5736205471665 469.44979500455867L514.0085236874174 463.01489186430774L520.4434268276683 469.44979500455867L514.0085236874174 475.8846981448096Z" fill="#fff" opacity="0.18"/></g><g opacity="0.5085788728040608" filter="url(#smallShadow)"><polygon points="105.4,299.7 100.9,304.1 94.6,304.1 90.2,299.7 90.2,293.4 94.6,288.9 100.9,288.9 105.4,293.4" fill="url(#gBronze)" stroke="#fff" stroke-opacity="0.8" stroke-width="2"/><path d="M92.02320293004293 296.53233296901595L97.77778059597165 290.77775530308725L103.53235826190037 296.53233296901595L97.77778059597165 302.28691063494466Z" fill="#fff" opacity="0.18"/></g><g opacity="0.4492441404485559" filter="url(#smallShadow)"><polygon points="58.4,1344.8 53.2,1350.0 45.8,1350.0 40.6,1344.8 40.6,1337.4 45.8,1332.2 53.2,1332.2 58.4,1337.4" fill="url(#gPlatinum)" stroke="#fff" stroke-opacity="0.8" stroke-width="2"/><path d="M42.72360364728512 1341.1022059215404L49.48811934782217 1334.3376902210034L56.252635048359224 1341.1022059215404L49.48811934782217 1347.8667216220774Z" fill="#fff" opacity="0.18"/></g><g opacity="0.3854154376852561" filter="url(#smallShadow)"><polygon points="393.3,1092.8 388.1,1098.0 380.8,1098.0 375.5,1092.8 375.5,1085.4 380.8,1080.2 388.1,1080.2 393.3,1085.4" fill="url(#gPlant)" stroke="#fff" stroke-opacity="0.8" stroke-width="2"/><path d="M377.69595647558873 1089.0868692427098L384.44032746492917 1082.3424982533693L391.1846984542696 1089.0868692427098L384.44032746492917 1095.8312402320503Z" fill="#fff" opacity="0.18"/></g><g opacity="0.32">
      <path d="M-30 1500 C324.0 1410 734.4000000000001 1590 1110 1500" fill="none" stroke="url(#gPlant)" stroke-width="15" stroke-linecap="round"/>
      <path d="M-30 1518 C270.0 1572.0 756.0 1446.0 1110 1508" fill="none" stroke="#A9DB91" stroke-opacity="0.46" stroke-width="4"/>
    </g><g opacity="0.36">
      <path d="M-50 1620 C302.40000000000003 1550 777.6 1690 1130 1620" fill="none" stroke="url(#gGold)" stroke-width="11" stroke-linecap="round"/>
      <path d="M-50 1642 C302.40000000000003 1655.0 777.6 1574.5 1130 1638" fill="none" stroke="#F7DD97" stroke-opacity="0.7" stroke-width="3"/>
      <path d="M-50 1602 C302.40000000000003 1602.5 777.6 1651.5 1130 1608" fill="none" stroke="#DAAE47" stroke-opacity="0.42" stroke-width="2"/>
    </g><g transform="translate(760 1220) rotate(0) scale(1.6)">
      <path d="M0 92 C2 58 6 30 14 0" fill="none" stroke="url(#gPlantDeep)" stroke-width="12" stroke-linecap="round"/>
      <g transform="translate(9 22) rotate(-32) scale(0.48)" opacity="1.0">
      <path d="M0 0 C28 -58 82 -62 112 -12 C78 18 32 30 0 0Z" fill="url(#gPlant)"/>
      <path d="M8 -1 C42 -16 69 -27 101 -15" fill="none" stroke="#EFFFF0" stroke-opacity="0.55" stroke-width="3"/>
      <path d="M10 0 C43 -12 74 -10 105 -12" fill="none" stroke="#134834" stroke-opacity="0.28" stroke-width="2"/>
    </g>
      <g transform="translate(12 34) rotate(155) scale(0.45)" opacity="1.0">
      <path d="M0 0 C28 -58 82 -62 112 -12 C78 18 32 30 0 0Z" fill="url(#gPlant)"/>
      <path d="M8 -1 C42 -16 69 -27 101 -15" fill="none" stroke="#EFFFF0" stroke-opacity="0.55" stroke-width="3"/>
      <path d="M10 0 C43 -12 74 -10 105 -12" fill="none" stroke="#134834" stroke-opacity="0.28" stroke-width="2"/>
    </g>
    </g><g transform="rotate(0 720 1360)" filter="url(#smallShadow)">
      <circle cx="720" cy="1360" r="160" fill="url(#gBronze)"/>
      <circle cx="720" cy="1360" r="131.2" fill="#FFFDF7" stroke="#fff" stroke-width="3"/>
      <line x1="720.0" y1="1251.2" x2="720.0" y2="1225.6" stroke="#6F3F26" stroke-width="3" stroke-linecap="round"/><line x1="774.4" y1="1265.8" x2="787.2" y2="1243.6" stroke="#6F3F26" stroke-width="3" stroke-linecap="round"/><line x1="814.2" y1="1305.6" x2="836.4" y2="1292.8" stroke="#6F3F26" stroke-width="3" stroke-linecap="round"/><line x1="828.8" y1="1360.0" x2="854.4" y2="1360.0" stroke="#6F3F26" stroke-width="3" stroke-linecap="round"/><line x1="814.2" y1="1414.4" x2="836.4" y2="1427.2" stroke="#6F3F26" stroke-width="3" stroke-linecap="round"/><line x1="774.4" y1="1454.2" x2="787.2" y2="1476.4" stroke="#6F3F26" stroke-width="3" stroke-linecap="round"/><line x1="720.0" y1="1468.8" x2="720.0" y2="1494.4" stroke="#6F3F26" stroke-width="3" stroke-linecap="round"/><line x1="665.6" y1="1454.2" x2="652.8" y2="1476.4" stroke="#6F3F26" stroke-width="3" stroke-linecap="round"/><line x1="625.8" y1="1414.4" x2="603.6" y2="1427.2" stroke="#6F3F26" stroke-width="3" stroke-linecap="round"/><line x1="611.2" y1="1360.0" x2="585.6" y2="1360.0" stroke="#6F3F26" stroke-width="3" stroke-linecap="round"/><line x1="625.8" y1="1305.6" x2="603.6" y2="1292.8" stroke="#6F3F26" stroke-width="3" stroke-linecap="round"/><line x1="665.6" y1="1265.8" x2="652.8" y2="1243.6" stroke="#6F3F26" stroke-width="3" stroke-linecap="round"/>
      <line x1="720" y1="1360" x2="787.2" y2="1328.0" stroke="#6F3F26" stroke-width="5" stroke-linecap="round"/>
      <line x1="720" y1="1360" x2="700.8" y2="1283.2" stroke="#6F3F26" stroke-width="4" stroke-linecap="round"/>
      <circle cx="720" cy="1360" r="12.8" fill="#DAAE47"/>
      <ellipse cx="680.0" cy="1299.2" rx="35.2" ry="12.8" fill="#fff" opacity="0.32" transform="rotate(-25 680.0 1299.2)"/>
    </g><g filter="url(#smallShadow)">
      <rect x="480" y="1050" width="330" height="290" rx="19.8" fill="url(#gPlatinum)" stroke="#fff" stroke-width="3"/>
      <rect x="499.8" y="1093.5" width="290.4" height="220.4" rx="9.9" fill="#FDFEFF" stroke="#697380" stroke-opacity="0.38" stroke-width="2"/>
      <path d="M539.4 1055.8V1108.0 M717.6 1055.8V1108.0" stroke="#697380" stroke-width="12" stroke-linecap="round"/>
      <rect x="532.8" y="1145.7" width="52.8" height="40.6" fill="#FFFFFF" stroke="#B4BCC6" stroke-width="2"/><rect x="595.5" y="1145.7" width="52.8" height="40.6" fill="#FFFFFF" stroke="#B4BCC6" stroke-width="2"/><rect x="658.2" y="1145.7" width="52.8" height="40.6" fill="#FFFFFF" stroke="#B4BCC6" stroke-width="2"/><rect x="720.9" y="1145.7" width="52.8" height="40.6" fill="#FFFFFF" stroke="#B4BCC6" stroke-width="2"/><rect x="532.8" y="1200.8" width="52.8" height="40.6" fill="#FFFFFF" stroke="#B4BCC6" stroke-width="2"/><rect x="595.5" y="1200.8" width="52.8" height="40.6" fill="#FFFFFF" stroke="#B4BCC6" stroke-width="2"/><rect x="658.2" y="1200.8" width="52.8" height="40.6" fill="url(#gPlant)" stroke="#236797" stroke-width="2"/><rect x="720.9" y="1200.8" width="52.8" height="40.6" fill="#FFFFFF" stroke="#B4BCC6" stroke-width="2"/><rect x="532.8" y="1255.9" width="52.8" height="40.6" fill="#FFFFFF" stroke="#B4BCC6" stroke-width="2"/><rect x="595.5" y="1255.9" width="52.8" height="40.6" fill="#FFFFFF" stroke="#B4BCC6" stroke-width="2"/><rect x="658.2" y="1255.9" width="52.8" height="40.6" fill="#FFFFFF" stroke="#B4BCC6" stroke-width="2"/><rect x="720.9" y="1255.9" width="52.8" height="40.6" fill="#FFFFFF" stroke="#B4BCC6" stroke-width="2"/>
      <g transform="translate(691.2 1186.3) rotate(0) scale(0.26)">
      <path d="M0 92 C2 58 6 30 14 0" fill="none" stroke="url(#gPlantDeep)" stroke-width="12" stroke-linecap="round"/>
      <g transform="translate(9 22) rotate(-32) scale(0.48)" opacity="1.0">
      <path d="M0 0 C28 -58 82 -62 112 -12 C78 18 32 30 0 0Z" fill="url(#gPlant)"/>
      <path d="M8 -1 C42 -16 69 -27 101 -15" fill="none" stroke="#EFFFF0" stroke-opacity="0.55" stroke-width="3"/>
      <path d="M10 0 C43 -12 74 -10 105 -12" fill="none" stroke="#134834" stroke-opacity="0.28" stroke-width="2"/>
    </g>
      <g transform="translate(12 34) rotate(155) scale(0.45)" opacity="1.0">
      <path d="M0 0 C28 -58 82 -62 112 -12 C78 18 32 30 0 0Z" fill="url(#gPlant)"/>
      <path d="M8 -1 C42 -16 69 -27 101 -15" fill="none" stroke="#EFFFF0" stroke-opacity="0.55" stroke-width="3"/>
      <path d="M10 0 C43 -12 74 -10 105 -12" fill="none" stroke="#134834" stroke-opacity="0.28" stroke-width="2"/>
    </g>
    </g>
    </g>
</svg>