<?xml version="1.0" encoding="UTF-8"?>
<svg xmlns="http://www.w3.org/2000/svg" viewBox="0 0 1080 1920" width="1080" height="1920" role="img">
<title>Fondo móvil puntos</title>

    <defs>
      <linearGradient id="gPlant" x1="0" y1="0" x2="1" y2="1">
        <stop offset="0" stop-color="#A9DB91"/><stop offset="0.5" stop-color="#4DA95F"/><stop offset="1" stop-color="#20744F"/>
      </linearGradient>
      <linearGradient id="gPlantDeep" x1="0" y1="0" x2="1" y2="1">
        <stop offset="0" stop-color="#4DA95F"/><stop offset="1" stop-color="#134834"/>
      </linearGradient>
      <linearGradient id="gDiamond" x1="0" y1="0" x2="1" y2="1">
        <stop offset="0" stop-color="#EBFAFF"/><stop offset="0.38" stop-color="#9ADEF1"/><stop offset="0.72" stop-color="#3997C9"/><stop offset="1" stop-color="#236797"/>
      </linearGradient>
      <linearGradient id="gGold" x1="0" y1="0" x2="1" y2="0">
        <stop offset="0" stop-color="#F7DD97"/><stop offset="0.52" stop-color="#DAAE47"/><stop offset="1" stop-color="#7D5420"/>
      </linearGradient>
      <linearGradient id="gBronze" x1="0" y1="0" x2="1" y2="1">
        <stop offset="0" stop-color="#E7AE77"/><stop offset="0.55" stop-color="#B57041"/><stop offset="1" stop-color="#6F3F26"/>
      </linearGradient>
      <linearGradient id="gPlatinum" x1="0" y1="0" x2="1" y2="1">
        <stop offset="0" stop-color="#FAFCFF"/><stop offset="0.42" stop-color="#DEE4EB"/><stop offset="0.75" stop-color="#B4BCC6"/><stop offset="1" stop-color="#697380"/>
      </linearGradient>
      <radialGradient id="rQuartz"><stop offset="0" stop-color="#fff"/><stop offset="1" stop-color="#F0F1F2"/></radialGradient>
      <filter id="softShadow" x="-40%" y="-40%" width="180%" height="180%"><feDropShadow dx="0" dy="8" stdDeviation="12" flood-color="#25343F" flood-opacity="0.16"/></filter>
      <filter id="smallShadow" x="-40%" y="-40%" width="180%" height="180%"><feDropShadow dx="0" dy="3" stdDeviation="4" flood-color="#25343F" flood-opacity="0.18"/></filter>
      <filter id="glow" x="-70%" y="-70%" width="240%" height="240%"><feGaussianBlur stdDeviation="6" result="b"/><feMerge><feMergeNode in="b"/><feMergeNode in="SourceGraphic"/></feMerge></filter>
      <pattern id="grid" width="48" height="48" patternUnits="userSpaceOnUse"><path d="M48 0H0V48" fill="none" stroke="#393E46" stroke-opacity="0.055" stroke-width="1"/></pattern>
      <pattern id="microGrid" width="20" height="20" patternUnits="userSpaceOnUse"><path d="M20 0H0V20" fill="none" stroke="#20744F" stroke-opacity="0.055" stroke-width="1"/></pattern>
    </defs>
<rect width="1080" height="1920" fill="url(#rQuartz)"/>
<rect width="1080" height="1920" fill="url(#rQuartz)"/><rect width="1080" height="1920" fill="url(#grid)" opacity="0.65"/>
    <ellipse cx="180" cy="250" rx="440" ry="520" fill="#A9DB91" opacity=".13"/>
    <g opacity="0.6197344645559721" filter="url(#smallShadow)"><polygon points="301.7,1307.7 297.3,1312.1 291.1,1312.1 286.7,1307.7 286.7,1301.5 291.1,1297.1 297.3,1297.1 301.7,1301.5" fill="url(#gDiamond)" stroke="#fff" stroke-opacity="0.8" stroke-width="2"/><path d="M288.5155174941154 1304.5798669140388L294.18866154978303 1298.906722858371L299.8618056054507 1304.5798669140388L294.18866154978303 1310.2530109697066Z" fill="#fff" opacity="0.18"/></g><g opacity="0.3700651742248451" filter="url(#smallShadow)"><polygon points="223.9,460.7 221.3,463.4 217.6,463.4 214.9,460.7 214.9,457.0 217.6,454.3 221.3,454.3 223.9,457.0" fill="url(#gGold)" stroke="#fff" stroke-opacity="0.8" stroke-width="2"/><path d="M216.02058569490276 458.8390126757707L219.4386573512101 455.4209410194633L222.85672900751746 458.8390126757707L219.4386573512101 462.257084332078Z" fill="#fff" opacity="0.18"/></g><g opacity="0.3655630121966963" filter="url(#smallShadow)"><polygon points="785.3,274.9 781.5,278.8 776.0,278.8 772.1,274.9 772.1,269.4 776.0,265.6 781.5,265.6 785.3,269.4" fill="url(#gBronze)" stroke="#fff" stroke-opacity="0.8" stroke-width="2"/><path d="M773.6725522992709 272.19622233314783L778.7040742570284 267.16470037539034L783.7355962147859 272.19622233314783L778.7040742570284 277.2277442909053Z" fill="#fff" opacity="0.18"/></g><g opacity="0.5233608591497145" filter="url(#smallShadow)"><polygon points="338.9,836.2 334.0,841.1 327.1,841.1 322.2,836.2 322.2,829.3 327.1,824.4 334.0,824.4 338.9,829.3" fill="url(#gPlatinum)" stroke="#fff" stroke-opacity="0.8" stroke-width="2"/><path d="M324.23173149451594 832.7394108095154L330.5498888386298 826.4212534654016L336.8680461827436 832.7394108095154L330.5498888386298 839.0575681536293Z" fill="#fff" opacity="0.18"/></g><g opacity="0.628513891679376" filter="url(#smallShadow)"><polygon points="49.2,544.9 46.6,547.6 42.9,547.6 40.2,544.9 40.2,541.2 42.9,538.5 46.6,538.5 49.2,541.2" fill="url(#gPlant)" stroke="#fff" stroke-opacity="0.8" stroke-width="2"/><path d="M41.30485746918522 543.0565483268315L44.7210408213337 539.640364974683L48.13722417348218 543.0565483268315L44.7210408213337 546.4727316789799Z" fill="#fff" opacity="0.18"/></g><g opacity="0.5779000611208831" filter="url(#smallShadow)"><polygon points="864.2,1532.7 859.4,1537.5 852.5,1537.5 847.7,1532.7 847.7,1525.8 852.5,1521.0 859.4,1521.0 864.2,1525.8" fill="url(#gDiamond)" stroke="#fff" stroke-opacity="0.8" stroke-width="2"/><path d="M849.6636690067086 1529.2471187424483L855.9344034352818 1522.976384313875L862.2051378638549 1529.2471187424483L855.9344034352818 1535.5178531710214Z" fill="#fff" opacity="0.18"/></g><g opacity="0.6199756051123972" filter="url(#smallShadow)"><polygon points="1003.4,1508.5 1000.4,1511.5 996.2,1511.5 993.2,1508.5 993.2,1504.3 996.2,1501.3 1000.4,1501.3 1003.4,1504.3" fill="url(#gGold)" stroke="#fff" stroke-opacity="0.8" stroke-width="2"/><path d="M994.4317116305469 1506.4132244232849L998.3098851315475 1502.5350509222844L1002.1880586325481 1506.4132244232849L998.3098851315475 1510.2913979242853Z" fill="#fff" opacity="0.18"/></g><g opacity="0.45183105847456556" filter="url(#smallShadow)"><polygon points="533.3,1437.1 529.3,1441.1 523.7,1441.1 519.7,1437.1 519.7,1431.5 523.7,1427.5 529.3,1427.5 533.3,1431.5" fill="url(#gBronze)" stroke="#fff" stroke-opacity="0.8" stroke-width="2"/><path d="M521.3518207794698 1434.307163375966L526.5212028935969 1429.1377812618389L531.6905850077239 1434.307163375966L526.5212028935969 1439.476545490093Z" fill="#fff" opacity="0.18"/></g><g opacity="0.32694402022951613" filter="url(#smallShadow)"><polygon points="406.9,831.7 403.7,834.9 399.2,834.9 396.1,831.7 396.1,827.2 399.2,824.0 403.7,824.0 406.9,827.2" fill="url(#gPlatinum)" stroke="#fff" stroke-opacity="0.8" stroke-width="2"/><path d="M397.3688799876713 829.4694237998056L401.4866777241376 825.3516260633392L405.60447546060396 829.4694237998056L401.4866777241376 833.587221536272Z" fill="#fff" opacity="0.18"/></g><g opacity="0.556369060422115" filter="url(#smallShadow)"><polygon points="875.2,1518.6 869.8,1523.9 862.2,1523.9 856.9,1518.6 856.9,1511.0 862.2,1505.6 869.8,1505.6 875.2,1511.0" fill="url(#gPlant)" stroke="#fff" stroke-opacity="0.8" stroke-width="2"/><path d="M859.096655348424 1514.7610650870176L866.0365163279224 1507.8212041075192L872.9763773074209 1514.7610650870176L866.0365163279224 1521.700926066516Z" fill="#fff" opacity="0.18"/></g><g opacity="0.5507286260394724" filter="url(#smallShadow)"><polygon points="599.8,1423.9 597.2,1426.5 593.5,1426.5 590.9,1423.9 590.9,1420.2 593.5,1417.6 597.2,1417.6 599.8,1420.2" fill="url(#gDiamond)" stroke="#fff" stroke-opacity="0.8" stroke-width="2"/><path d="M591.9444996875751 1422.0453740366345L595.3108854846107 1418.6789882395988L598.6772712816463 1422.0453740366345L595.3108854846107 1425.4117598336702Z" fill="#fff" opacity="0.18"/></g><g opacity="0.4890773205645337" filter="url(#smallShadow)"><polygon points="487.1,360.5 484.3,363.4 480.3,363.4 477.4,360.5 477.4,356.5 480.3,353.7 484.3,353.7 487.1,356.5" fill="url(#gGold)" stroke="#fff" stroke-opacity="0.8" stroke-width="2"/><path d="M478.61692209796547 358.53877056801406L482.267953952368 354.88773871361155L485.9189858067705 358.53877056801406L482.267953952368 362.18980242241656Z" fill="#fff" opacity="0.18"/></g><g opacity="0.4383029475488288" filter="url(#smallShadow)"><polygon points="295.4,887.5 291.3,891.6 285.5,891.6 281.3,887.5 281.3,881.7 285.5,877.5 291.3,877.5 295.4,881.7" fill="url(#gBronze)" stroke="#fff" stroke-opacity="0.8" stroke-width="2"/><path d="M283.03489629148163 884.5937839662868L288.377991158775 879.2506890989935L293.72108602606835 884.5937839662868L288.377991158775 889.9368788335801Z" fill="#fff" opacity="0.18"/></g><g opacity="0.37427133168763277" filter="url(#smallShadow)"><polygon points="168.4,945.1 165.5,948.0 161.3,948.0 158.4,945.1 158.4,940.9 161.3,938.0 165.5,938.0 168.4,940.9" fill="url(#gPlatinum)" stroke="#fff" stroke-opacity="0.8" stroke-width="2"/><path d="M159.60770380476154 942.9942727316114L163.39658117850533 939.2053953578677L167.18545855224912 942.9942727316114L163.39658117850533 946.7831501053552Z" fill="#fff" opacity="0.18"/></g><g opacity="0.5404927081736504" filter="url(#smallShadow)"><polygon points="232.5,713.3 230.1,715.7 226.7,715.7 224.3,713.3 224.3,709.9 226.7,707.5 230.1,707.5 232.5,709.9" fill="url(#gPlant)" stroke="#fff" stroke-opacity="0.8" stroke-width="2"/><path d="M225.2505712342986 711.5782320786159L228.35832950157905 708.4704738113354L231.4660877688595 711.5782320786159L228.35832950157905 714.6859903458964Z" fill="#fff" opacity="0.18"/></g><g opacity="0.6531911267861847" filter="url(#smallShadow)"><polygon points="1010.4,758.0 1005.9,762.5 999.6,762.5 995.1,758.0 995.1,751.6 999.6,747.1 1005.9,747.1 1010.4,751.6" fill="url(#gDiamond)" stroke="#fff" stroke-opacity="0.8" stroke-width="2"/><path d="M996.9200587521816 754.821093708699L1002.7393631110076 749.001789349873L1008.5586674698336 754.821093708699L1002.7393631110076 760.640398067525Z" fill="#fff" opacity="0.18"/></g><g opacity="0.6152581514272606" filter="url(#smallShadow)"><polygon points="82.2,297.0 77.5,301.8 70.7,301.8 65.9,297.0 65.9,290.3 70.7,285.5 77.5,285.5 82.2,290.3" fill="url(#gGold)" stroke="#fff" stroke-opacity="0.8" stroke-width="2"/><path d="M67.88711181931747 293.6467482621272L74.07271198483471 287.4611480966099L80.25831215035195 293.6467482621272L74.07271198483471 299.83234842764443Z" fill="#fff" opacity="0.18"/></g><g opacity="0.6272966082432203" filter="url(#smallShadow)"><polygon points="687.8,329.6 684.3,333.1 679.4,333.1 675.8,329.6 675.8,324.7 679.4,321.2 684.3,321.2 687.8,324.7" fill="url(#gBronze)" stroke="#fff" stroke-opacity="0.8" stroke-width="2"/><path d="M677.2999632319884 327.1474956248846L681.8366250304377 322.61083382643517L686.3732868288871 327.1474956248846L681.8366250304377 331.684157423334Z" fill="#fff" opacity="0.18"/></g><g opacity="0.6214616871789045" filter="url(#smallShadow)"><polygon points="938.7,1525.9 935.9,1528.7 931.9,1528.7 929.1,1525.9 929.1,1521.9 931.9,1519.1 935.9,1519.1 938.7,1521.9" fill="url(#gPlatinum)" stroke="#fff" stroke-opacity="0.8" stroke-width="2"/><path d="M930.2634279533929 1523.900146127492L933.916272782972 1520.2473012979128L937.569117612551 1523.900146127492L933.916272782972 1527.5529909570712Z" fill="#fff" opacity="0.18"/></g><g opacity="0.6685213157650847" filter="url(#smallShadow)"><polygon points="416.7,1364.6 414.1,1367.2 410.4,1367.2 407.8,1364.6 407.8,1360.9 410.4,1358.3 414.1,1358.3 416.7,1360.9" fill="url(#gPlant)" stroke="#fff" stroke-opacity="0.8" stroke-width="2"/><path d="M408.87593657951163 1362.7106283736161L412.2513680961742 1359.3351968569536L415.62679961283675 1362.7106283736161L412.2513680961742 1366.0860598902786Z" fill="#fff" opacity="0.18"/></g><g opacity="0.32">
      <path d="M-30 1500 C324.0 1410 734.4000000000001 1590 1110 1500" fill="none" stroke="url(#gPlant)" stroke-width="15" stroke-linecap="round"/>
      <path d="M-30 1518 C270.0 1572.0 756.0 1446.0 1110 1508" fill="none" stroke="#A9DB91" stroke-opacity="0.46" stroke-width="4"/>
    </g><g opacity="0.36">
      <path d="M-50 1620 C302.40000000000003 1550 777.6 1690 1130 1620" fill="none" stroke="url(#gGold)" stroke-width="11" stroke-linecap="round"/>
      <path d="M-50 1642 C302.40000000000003 1655.0 777.6 1574.5 1130 1638" fill="none" stroke="#F7DD97" stroke-opacity="0.7" stroke-width="3"/>
      <path d="M-50 1602 C302.40000000000003 1602.5 777.6 1651.5 1130 1608" fill="none" stroke="#DAAE47" stroke-opacity="0.42" stroke-width="2"/>
    </g><g transform="translate(760 1220) rotate(0) scale(1.6)">
      <path d="M0 92 C2 58 6 30 14 0" fill="none" stroke="url(#gPlantDeep)" stroke-width="12" stroke-linecap="round"/>
      <g transform="translate(9 22) rotate(-32) scale(0.48)" opacity="1.0">
      <path d="M0 0 C28 -58 82 -62 112 -12 C78 18 32 30 0 0Z" fill="url(#gPlant)"/>
      <path d="M8 -1 C42 -16 69 -27 101 -15" fill="none" stroke="#EFFFF0" stroke-opacity="0.55" stroke-width="3"/>
      <path d="M10 0 C43 -12 74 -10 105 -12" fill="none" stroke="#134834" stroke-opacity="0.28" stroke-width="2"/>
    </g>
      <g transform="translate(12 34) rotate(155) scale(0.45)" opacity="1.0">
      <path d="M0 0 C28 -58 82 -62 112 -12 C78 18 32 30 0 0Z" fill="url(#gPlant)"/>
      <path d="M8 -1 C42 -16 69 -27 101 -15" fill="none" stroke="#EFFFF0" stroke-opacity="0.55" stroke-width="3"/>
      <path d="M10 0 C43 -12 74 -10 105 -12" fill="none" stroke="#134834" stroke-opacity="0.28" stroke-width="2"/>
    </g>
    </g><g opacity="0.72" filter="url(#smallShadow)"><polygon points="611.4,1163.0 593.0,1181.4 567.0,1181.4 548.6,1163.0 548.6,1137.0 567.0,1118.6 593.0,1118.6 611.4,1137.0" fill="url(#gGold)" stroke="#fff" stroke-opacity="0.8" stroke-width="2"/><path d="M556.2 1150L580 1126.2L603.8 1150L580 1173.8Z" fill="#fff" opacity="0.18"/></g><g opacity="0.72" filter="url(#smallShadow)"><polygon points="731.4,1163.0 713.0,1181.4 687.0,1181.4 668.6,1163.0 668.6,1137.0 687.0,1118.6 713.0,1118.6 731.4,1137.0" fill="url(#gGold)" stroke="#fff" stroke-opacity="0.8" stroke-width="2"/><path d="M676.2 1150L700 1126.2L723.8 1150L700 1173.8Z" fill="#fff" opacity="0.18"/></g><g opacity="0.72" filter="url(#smallShadow)"><polygon points="851.4,1163.0 833.0,1181.4 807.0,1181.4 788.6,1163.0 788.6,1137.0 807.0,1118.6 833.0,1118.6 851.4,1137.0" fill="url(#gGold)" stroke="#fff" stroke-opacity="0.8" stroke-width="2"/><path d="M796.2 1150L820 1126.2L843.8 1150L820 1173.8Z" fill="#fff" opacity="0.18"/></g><g opacity="0.72" filter="url(#smallShadow)"><polygon points="611.4,1293.0 593.0,1311.4 567.0,1311.4 548.6,1293.0 548.6,1267.0 567.0,1248.6 593.0,1248.6 611.4,1267.0" fill="url(#gGold)" stroke="#fff" stroke-opacity="0.8" stroke-width="2"/><path d="M556.2 1280L580 1256.2L603.8 1280L580 1303.8Z" fill="#fff" opacity="0.18"/></g><g opacity="0.72" filter="url(#smallShadow)"><polygon points="731.4,1293.0 713.0,1311.4 687.0,1311.4 668.6,1293.0 668.6,1267.0 687.0,1248.6 713.0,1248.6 731.4,1267.0" fill="url(#gGold)" stroke="#fff" stroke-opacity="0.8" stroke-width="2"/><path d="M676.2 1280L700 1256.2L723.8 1280L700 1303.8Z" fill="#fff" opacity="0.18"/></g><g opacity="0.72" filter="url(#smallShadow)"><polygon points="851.4,1293.0 833.0,1311.4 807.0,1311.4 788.6,1293.0 788.6,1267.0 807.0,1248.6 833.0,1248.6 851.4,1267.0" fill="url(#gGold)" stroke="#fff" stroke-opacity="0.8" stroke-width="2"/><path d="M796.2 1280L820 1256.2L843.8 1280L820 1303.8Z" fill="#fff" opacity="0.18"/></g><g opacity="0.72" filter="url(#smallShadow)"><polygon points="611.4,1423.0 593.0,1441.4 567.0,1441.4 548.6,1423.0 548.6,1397.0 567.0,1378.6 593.0,1378.6 611.4,1397.0" fill="url(#gGold)" stroke="#fff" stroke-opacity="0.8" stroke-width="2"/><path d="M556.2 1410L580 1386.2L603.8 1410L580 1433.8Z" fill="#fff" opacity="0.18"/></g><g opacity="0.72" filter="url(#smallShadow)"><polygon points="731.4,1423.0 713.0,1441.4 687.0,1441.4 668.6,1423.0 668.6,1397.0 687.0,1378.6 713.0,1378.6 731.4,1397.0" fill="url(#gGold)" stroke="#fff" stroke-opacity="0.8" stroke-width="2"/><path d="M676.2 1410L700 1386.2L723.8 1410L700 1433.8Z" fill="#fff" opacity="0.18"/></g><g opacity="0.72" filter="url(#smallShadow)"><polygon points="851.4,1423.0 833.0,1441.4 807.0,1441.4 788.6,1423.0 788.6,1397.0 807.0,1378.6 833.0,1378.6 851.4,1397.0" fill="url(#gGold)" stroke="#fff" stroke-opacity="0.8" stroke-width="2"/><path d="M796.2 1410L820 1386.2L843.8 1410L820 1433.8Z" fill="#fff" opacity="0.18"/></g>
</svg>