<?xml version="1.0" encoding="UTF-8"?>
<svg xmlns="http://www.w3.org/2000/svg" viewBox="0 0 1080 1920" width="1080" height="1920" role="img">
<title>Fondo móvil calendario</title>

    <defs>
      <linearGradient id="gPlant" x1="0" y1="0" x2="1" y2="1">
        <stop offset="0" stop-color="#A9DB91"/><stop offset="0.5" stop-color="#4DA95F"/><stop offset="1" stop-color="#20744F"/>
      </linearGradient>
      <linearGradient id="gPlantDeep" x1="0" y1="0" x2="1" y2="1">
        <stop offset="0" stop-color="#4DA95F"/><stop offset="1" stop-color="#134834"/>
      </linearGradient>
      <linearGradient id="gDiamond" x1="0" y1="0" x2="1" y2="1">
        <stop offset="0" stop-color="#EBFAFF"/><stop offset="0.38" stop-color="#9ADEF1"/><stop offset="0.72" stop-color="#3997C9"/><stop offset="1" stop-color="#236797"/>
      </linearGradient>
      <linearGradient id="gGold" x1="0" y1="0" x2="1" y2="0">
        <stop offset="0" stop-color="#F7DD97"/><stop offset="0.52" stop-color="#DAAE47"/><stop offset="1" stop-color="#7D5420"/>
      </linearGradient>
      <linearGradient id="gBronze" x1="0" y1="0" x2="1" y2="1">
        <stop offset="0" stop-color="#E7AE77"/><stop offset="0.55" stop-color="#B57041"/><stop offset="1" stop-color="#6F3F26"/>
      </linearGradient>
      <linearGradient id="gPlatinum" x1="0" y1="0" x2="1" y2="1">
        <stop offset="0" stop-color="#FAFCFF"/><stop offset="0.42" stop-color="#DEE4EB"/><stop offset="0.75" stop-color="#B4BCC6"/><stop offset="1" stop-color="#697380"/>
      </linearGradient>
      <radialGradient id="rQuartz"><stop offset="0" stop-color="#fff"/><stop offset="1" stop-color="#F0F1F2"/></radialGradient>
      <filter id="softShadow" x="-40%" y="-40%" width="180%" height="180%"><feDropShadow dx="0" dy="8" stdDeviation="12" flood-color="#25343F" flood-opacity="0.16"/></filter>
      <filter id="smallShadow" x="-40%" y="-40%" width="180%" height="180%"><feDropShadow dx="0" dy="3" stdDeviation="4" flood-color="#25343F" flood-opacity="0.18"/></filter>
      <filter id="glow" x="-70%" y="-70%" width="240%" height="240%"><feGaussianBlur stdDeviation="6" result="b"/><feMerge><feMergeNode in="b"/><feMergeNode in="SourceGraphic"/></feMerge></filter>
      <pattern id="grid" width="48" height="48" patternUnits="userSpaceOnUse"><path d="M48 0H0V48" fill="none" stroke="#393E46" stroke-opacity="0.055" stroke-width="1"/></pattern>
      <pattern id="microGrid" width="20" height="20" patternUnits="userSpaceOnUse"><path d="M20 0H0V20" fill="none" stroke="#20744F" stroke-opacity="0.055" stroke-width="1"/></pattern>
    </defs>
<rect width="1080" height="1920" fill="url(#rQuartz)"/>
<rect width="1080" height="1920" fill="url(#rQuartz)"/><rect width="1080" height="1920" fill="url(#grid)" opacity="0.65"/>
    <ellipse cx="180" cy="250" rx="440" ry="520" fill="#A9DB91" opacity=".13"/>
    <g opacity="0.33704014117014713" filter="url(#smallShadow)"><polygon points="521.5,1256.0 517.1,1260.3 511.0,1260.3 506.7,1256.0 506.7,1249.8 511.0,1245.5 517.1,1245.5 521.5,1249.8" fill="url(#gDiamond)" stroke="#fff" stroke-opacity="0.8" stroke-width="2"/><path d="M508.46316828359477 1252.8988549424948L514.0620922623191 1247.2999309637705L519.6610162410434 1252.8988549424948L514.0620922623191 1258.4977789212192Z" fill="#fff" opacity="0.18"/></g><g opacity="0.6041392208940335" filter="url(#smallShadow)"><polygon points="46.3,729.2 43.2,732.3 38.9,732.3 35.9,729.2 35.9,724.9 38.9,721.8 43.2,721.8 46.3,724.9" fill="url(#gGold)" stroke="#fff" stroke-opacity="0.8" stroke-width="2"/><path d="M37.126649766060325 727.0433552378578L41.07765195186931 723.0923530520488L45.0286541376783 727.0433552378578L41.07765195186931 730.9943574236668Z" fill="#fff" opacity="0.18"/></g><g opacity="0.5445284343488004" filter="url(#smallShadow)"><polygon points="741.2,1151.5 737.2,1155.5 731.6,1155.5 727.6,1151.5 727.6,1145.9 731.6,1141.9 737.2,1141.9 741.2,1145.9" fill="url(#gBronze)" stroke="#fff" stroke-opacity="0.8" stroke-width="2"/><path d="M729.2601078988941 1148.7100920335836L734.4045060994582 1143.5656938330196L739.5489043000223 1148.7100920335836L734.4045060994582 1153.8544902341475Z" fill="#fff" opacity="0.18"/></g><g opacity="0.6423891926117291" filter="url(#smallShadow)"><polygon points="182.8,850.4 180.1,853.1 176.3,853.1 173.6,850.4 173.6,846.6 176.3,843.9 180.1,843.9 182.8,846.6" fill="url(#gPlatinum)" stroke="#fff" stroke-opacity="0.8" stroke-width="2"/><path d="M174.7273278502717 848.5019129800719L178.20885060430504 845.0203902260386L181.69037335833838 848.5019129800719L178.20885060430504 851.9834357341052Z" fill="#fff" opacity="0.18"/></g><g opacity="0.5547782016374168" filter="url(#smallShadow)"><polygon points="94.1,1554.7 91.7,1557.1 88.3,1557.1 85.9,1554.7 85.9,1551.3 88.3,1548.9 91.7,1548.9 94.1,1551.3" fill="url(#gPlant)" stroke="#fff" stroke-opacity="0.8" stroke-width="2"/><path d="M86.8874534978127 1553.0054377862696L90.00081395908339 1549.8920773249988L93.11417442035408 1553.0054377862696L90.00081395908339 1556.1187982475403Z" fill="#fff" opacity="0.18"/></g><g opacity="0.2874417201248011" filter="url(#smallShadow)"><polygon points="382.1,786.0 377.2,790.9 370.3,790.9 365.4,786.0 365.4,779.1 370.3,774.2 377.2,774.2 382.1,779.1" fill="url(#gDiamond)" stroke="#fff" stroke-opacity="0.8" stroke-width="2"/><path d="M367.4014905027902 782.5825666192874L373.73958464760295 776.2444724744746L380.0776787924157 782.5825666192874L373.73958464760295 788.9206607641001Z" fill="#fff" opacity="0.18"/></g><g opacity="0.3163911956234334" filter="url(#smallShadow)"><polygon points="98.5,1734.7 94.7,1738.5 89.3,1738.5 85.5,1734.7 85.5,1729.3 89.3,1725.4 94.7,1725.4 98.5,1729.3" fill="url(#gGold)" stroke="#fff" stroke-opacity="0.8" stroke-width="2"/><path d="M87.0629012637519 1731.9625767425011L92.00039011274825 1727.0250878935049L96.9378789617446 1731.9625767425011L92.00039011274825 1736.9000655914974Z" fill="#fff" opacity="0.18"/></g><g opacity="0.4492826449016375" filter="url(#smallShadow)"><polygon points="1041.2,1792.7 1038.7,1795.2 1035.1,1795.2 1032.6,1792.7 1032.6,1789.1 1035.1,1786.6 1038.7,1786.6 1041.2,1789.1" fill="url(#gBronze)" stroke="#fff" stroke-opacity="0.8" stroke-width="2"/><path d="M1033.6040541418633 1790.8862148624833L1036.8766702136809 1787.6135987906657L1040.1492862854984 1790.8862148624833L1036.8766702136809 1794.1588309343008Z" fill="#fff" opacity="0.18"/></g><g opacity="0.34540965132759255" filter="url(#smallShadow)"><polygon points="174.9,614.3 170.7,618.5 164.8,618.5 160.6,614.3 160.6,608.4 164.8,604.2 170.7,604.2 174.9,608.4" fill="url(#gPlatinum)" stroke="#fff" stroke-opacity="0.8" stroke-width="2"/><path d="M162.36079278540728 611.3256911976188L167.7708909681473 605.9155930148787L173.18098915088734 611.3256911976188L167.7708909681473 616.7357893803588Z" fill="#fff" opacity="0.18"/></g><g opacity="0.6062790593016232" filter="url(#smallShadow)"><polygon points="745.4,127.4 742.7,130.2 738.8,130.2 736.1,127.4 736.1,123.6 738.8,120.9 742.7,120.9 745.4,123.6" fill="url(#gPlant)" stroke="#fff" stroke-opacity="0.8" stroke-width="2"/><path d="M737.2520794388357 125.51716992690892L740.7711786276585 121.99807073808611L744.2902778164813 125.51716992690892L740.7711786276585 129.03626911573173Z" fill="#fff" opacity="0.18"/></g><g opacity="0.4707072979488862" filter="url(#smallShadow)"><polygon points="445.5,811.9 441.4,816.0 435.6,816.0 431.5,811.9 431.5,806.1 435.6,802.0 441.4,802.0 445.5,806.1" fill="url(#gDiamond)" stroke="#fff" stroke-opacity="0.8" stroke-width="2"/><path d="M433.22599340390786 809.0427945759668L438.5290715067668 803.7397164731078L443.83214960962573 809.0427945759668L438.5290715067668 814.3458726788258Z" fill="#fff" opacity="0.18"/></g><g opacity="0.6669835531469179" filter="url(#smallShadow)"><polygon points="430.0,89.9 425.5,94.4 419.1,94.4 414.6,89.9 414.6,83.5 419.1,79.0 425.5,79.0 430.0,83.5" fill="url(#gGold)" stroke="#fff" stroke-opacity="0.8" stroke-width="2"/><path d="M416.42244370151275 86.71955013091835L422.27301889637215 80.86897493605893L428.12359409123155 86.71955013091835L422.27301889637215 92.57012532577777Z" fill="#fff" opacity="0.18"/></g><g opacity="0.4252514227215404" filter="url(#smallShadow)"><polygon points="1031.5,1266.6 1028.2,1270.0 1023.5,1270.0 1020.2,1266.6 1020.2,1261.9 1023.5,1258.6 1028.2,1258.6 1031.5,1261.9" fill="url(#gBronze)" stroke="#fff" stroke-opacity="0.8" stroke-width="2"/><path d="M1021.5331951416955 1264.2886408158283L1025.8298449445633 1259.9919910129604L1030.1264947474313 1264.2886408158283L1025.8298449445633 1268.5852906186963Z" fill="#fff" opacity="0.18"/></g><g opacity="0.3739889709211369" filter="url(#smallShadow)"><polygon points="738.2,1285.0 735.7,1287.5 732.1,1287.5 729.6,1285.0 729.6,1281.4 732.1,1278.9 735.7,1278.9 738.2,1281.4" fill="url(#gPlatinum)" stroke="#fff" stroke-opacity="0.8" stroke-width="2"/><path d="M730.6386569488501 1283.2174482674811L733.9167530335937 1279.9393521827376L737.1948491183374 1283.2174482674811L733.9167530335937 1286.4955443522247Z" fill="#fff" opacity="0.18"/></g><g opacity="0.4800048493725314" filter="url(#smallShadow)"><polygon points="408.8,984.5 404.0,989.3 397.2,989.3 392.4,984.5 392.4,977.7 397.2,972.9 404.0,972.9 408.8,977.7" fill="url(#gPlant)" stroke="#fff" stroke-opacity="0.8" stroke-width="2"/><path d="M394.3863778641671 981.1119334862182L400.5888275704633 974.909483779922L406.7912772767595 981.1119334862182L400.5888275704633 987.3143831925144Z" fill="#fff" opacity="0.18"/></g><g opacity="0.4875989217333226" filter="url(#smallShadow)"><polygon points="64.8,1562.5 61.2,1566.1 56.2,1566.1 52.6,1562.5 52.6,1557.5 56.2,1553.9 61.2,1553.9 64.8,1557.5" fill="url(#gDiamond)" stroke="#fff" stroke-opacity="0.8" stroke-width="2"/><path d="M54.09948415604363 1559.9757701001706L58.70613253514152 1555.3691217210728L63.31278091423941 1559.9757701001706L58.70613253514152 1564.5824184792684Z" fill="#fff" opacity="0.18"/></g><g opacity="0.5887674308040391" filter="url(#smallShadow)"><polygon points="262.5,827.1 259.0,830.5 254.2,830.5 250.8,827.1 250.8,822.2 254.2,818.8 259.0,818.8 262.5,822.2" fill="url(#gGold)" stroke="#fff" stroke-opacity="0.8" stroke-width="2"/><path d="M252.1806767546306 824.6720808809939L256.6113104609209 820.2414471747036L261.04194416721117 824.6720808809939L256.6113104609209 829.1027145872843Z" fill="#fff" opacity="0.18"/></g><g opacity="0.5583582159095615" filter="url(#smallShadow)"><polygon points="139.3,1054.9 136.6,1057.6 132.7,1057.6 130.0,1054.9 130.0,1051.0 132.7,1048.3 136.6,1048.3 139.3,1051.0" fill="url(#gBronze)" stroke="#fff" stroke-opacity="0.8" stroke-width="2"/><path d="M131.1176346021451 1052.946740913329L134.66544261844172 1049.3989328970324L138.21325063473833 1052.946740913329L134.66544261844172 1056.4945489296256Z" fill="#fff" opacity="0.18"/></g><g opacity="0.5347718546565663" filter="url(#smallShadow)"><polygon points="73.2,546.7 69.9,550.0 65.3,550.0 62.0,546.7 62.0,542.1 65.3,538.8 69.9,538.8 73.2,542.1" fill="url(#gPlatinum)" stroke="#fff" stroke-opacity="0.8" stroke-width="2"/><path d="M63.337461757834056 544.3785906347447L67.58301140481277 540.133040987766L71.82856105179148 544.3785906347447L67.58301140481277 548.6241402817234Z" fill="#fff" opacity="0.18"/></g><g opacity="0.3927583189476454" filter="url(#smallShadow)"><polygon points="88.0,886.2 85.1,889.1 81.1,889.1 78.2,886.2 78.2,882.2 81.1,879.4 85.1,879.4 88.0,882.2" fill="url(#gPlant)" stroke="#fff" stroke-opacity="0.8" stroke-width="2"/><path d="M79.42306375855027 884.2273916680241L83.09999618156499 880.5504592450094L86.77692860457971 884.2273916680241L83.09999618156499 887.9043240910388Z" fill="#fff" opacity="0.18"/></g><g opacity="0.32">
      <path d="M-30 1500 C324.0 1410 734.4000000000001 1590 1110 1500" fill="none" stroke="url(#gPlant)" stroke-width="15" stroke-linecap="round"/>
      <path d="M-30 1518 C270.0 1572.0 756.0 1446.0 1110 1508" fill="none" stroke="#A9DB91" stroke-opacity="0.46" stroke-width="4"/>
    </g><g opacity="0.36">
      <path d="M-50 1620 C302.40000000000003 1550 777.6 1690 1130 1620" fill="none" stroke="url(#gGold)" stroke-width="11" stroke-linecap="round"/>
      <path d="M-50 1642 C302.40000000000003 1655.0 777.6 1574.5 1130 1638" fill="none" stroke="#F7DD97" stroke-opacity="0.7" stroke-width="3"/>
      <path d="M-50 1602 C302.40000000000003 1602.5 777.6 1651.5 1130 1608" fill="none" stroke="#DAAE47" stroke-opacity="0.42" stroke-width="2"/>
    </g><g transform="translate(760 1220) rotate(0) scale(1.6)">
      <path d="M0 92 C2 58 6 30 14 0" fill="none" stroke="url(#gPlantDeep)" stroke-width="12" stroke-linecap="round"/>
      <g transform="translate(9 22) rotate(-32) scale(0.48)" opacity="1.0">
      <path d="M0 0 C28 -58 82 -62 112 -12 C78 18 32 30 0 0Z" fill="url(#gPlant)"/>
      <path d="M8 -1 C42 -16 69 -27 101 -15" fill="none" stroke="#EFFFF0" stroke-opacity="0.55" stroke-width="3"/>
      <path d="M10 0 C43 -12 74 -10 105 -12" fill="none" stroke="#134834" stroke-opacity="0.28" stroke-width="2"/>
    </g>
      <g transform="translate(12 34) rotate(155) scale(0.45)" opacity="1.0">
      <path d="M0 0 C28 -58 82 -62 112 -12 C78 18 32 30 0 0Z" fill="url(#gPlant)"/>
      <path d="M8 -1 C42 -16 69 -27 101 -15" fill="none" stroke="#EFFFF0" stroke-opacity="0.55" stroke-width="3"/>
      <path d="M10 0 C43 -12 74 -10 105 -12" fill="none" stroke="#134834" stroke-opacity="0.28" stroke-width="2"/>
    </g>
    </g><g filter="url(#smallShadow)">
      <rect x="500" y="1230" width="360" height="320" rx="21.599999999999998" fill="url(#gPlatinum)" stroke="#fff" stroke-width="3"/>
      <rect x="521.6" y="1278.0" width="316.8" height="243.2" rx="10.799999999999999" fill="#FDFEFF" stroke="#697380" stroke-opacity="0.38" stroke-width="2"/>
      <path d="M564.8 1236.4V1294.0 M759.2 1236.4V1294.0" stroke="#697380" stroke-width="12" stroke-linecap="round"/>
      <rect x="557.6" y="1335.6" width="57.6" height="44.8" fill="#FFFFFF" stroke="#B4BCC6" stroke-width="2"/><rect x="626.0" y="1335.6" width="57.6" height="44.8" fill="#FFFFFF" stroke="#B4BCC6" stroke-width="2"/><rect x="694.4" y="1335.6" width="57.6" height="44.8" fill="#FFFFFF" stroke="#B4BCC6" stroke-width="2"/><rect x="762.8" y="1335.6" width="57.6" height="44.8" fill="#FFFFFF" stroke="#B4BCC6" stroke-width="2"/><rect x="557.6" y="1396.4" width="57.6" height="44.8" fill="#FFFFFF" stroke="#B4BCC6" stroke-width="2"/><rect x="626.0" y="1396.4" width="57.6" height="44.8" fill="#FFFFFF" stroke="#B4BCC6" stroke-width="2"/><rect x="694.4" y="1396.4" width="57.6" height="44.8" fill="url(#gPlant)" stroke="#20744F" stroke-width="2"/><rect x="762.8" y="1396.4" width="57.6" height="44.8" fill="#FFFFFF" stroke="#B4BCC6" stroke-width="2"/><rect x="557.6" y="1457.2" width="57.6" height="44.8" fill="#FFFFFF" stroke="#B4BCC6" stroke-width="2"/><rect x="626.0" y="1457.2" width="57.6" height="44.8" fill="#FFFFFF" stroke="#B4BCC6" stroke-width="2"/><rect x="694.4" y="1457.2" width="57.6" height="44.8" fill="#FFFFFF" stroke="#B4BCC6" stroke-width="2"/><rect x="762.8" y="1457.2" width="57.6" height="44.8" fill="#FFFFFF" stroke="#B4BCC6" stroke-width="2"/>
      <g transform="translate(730.4 1380.4) rotate(0) scale(0.26)">
      <path d="M0 92 C2 58 6 30 14 0" fill="none" stroke="url(#gPlantDeep)" stroke-width="12" stroke-linecap="round"/>
      <g transform="translate(9 22) rotate(-32) scale(0.48)" opacity="1.0">
      <path d="M0 0 C28 -58 82 -62 112 -12 C78 18 32 30 0 0Z" fill="url(#gPlant)"/>
      <path d="M8 -1 C42 -16 69 -27 101 -15" fill="none" stroke="#EFFFF0" stroke-opacity="0.55" stroke-width="3"/>
      <path d="M10 0 C43 -12 74 -10 105 -12" fill="none" stroke="#134834" stroke-opacity="0.28" stroke-width="2"/>
    </g>
      <g transform="translate(12 34) rotate(155) scale(0.45)" opacity="1.0">
      <path d="M0 0 C28 -58 82 -62 112 -12 C78 18 32 30 0 0Z" fill="url(#gPlant)"/>
      <path d="M8 -1 C42 -16 69 -27 101 -15" fill="none" stroke="#EFFFF0" stroke-opacity="0.55" stroke-width="3"/>
      <path d="M10 0 C43 -12 74 -10 105 -12" fill="none" stroke="#134834" stroke-opacity="0.28" stroke-width="2"/>
    </g>
    </g>
    </g><g transform="rotate(0 810 1530)" filter="url(#smallShadow)">
      <circle cx="810" cy="1530" r="105" fill="url(#gBronze)"/>
      <circle cx="810" cy="1530" r="86.1" fill="#FFFDF7" stroke="#fff" stroke-width="3"/>
      <line x1="810.0" y1="1458.6" x2="810.0" y2="1441.8" stroke="#6F3F26" stroke-width="3" stroke-linecap="round"/><line x1="845.7" y1="1468.2" x2="854.1" y2="1453.6" stroke="#6F3F26" stroke-width="3" stroke-linecap="round"/><line x1="871.8" y1="1494.3" x2="886.4" y2="1485.9" stroke="#6F3F26" stroke-width="3" stroke-linecap="round"/><line x1="881.4" y1="1530.0" x2="898.2" y2="1530.0" stroke="#6F3F26" stroke-width="3" stroke-linecap="round"/><line x1="871.8" y1="1565.7" x2="886.4" y2="1574.1" stroke="#6F3F26" stroke-width="3" stroke-linecap="round"/><line x1="845.7" y1="1591.8" x2="854.1" y2="1606.4" stroke="#6F3F26" stroke-width="3" stroke-linecap="round"/><line x1="810.0" y1="1601.4" x2="810.0" y2="1618.2" stroke="#6F3F26" stroke-width="3" stroke-linecap="round"/><line x1="774.3" y1="1591.8" x2="765.9" y2="1606.4" stroke="#6F3F26" stroke-width="3" stroke-linecap="round"/><line x1="748.2" y1="1565.7" x2="733.6" y2="1574.1" stroke="#6F3F26" stroke-width="3" stroke-linecap="round"/><line x1="738.6" y1="1530.0" x2="721.8" y2="1530.0" stroke="#6F3F26" stroke-width="3" stroke-linecap="round"/><line x1="748.2" y1="1494.3" x2="733.6" y2="1485.9" stroke="#6F3F26" stroke-width="3" stroke-linecap="round"/><line x1="774.3" y1="1468.2" x2="765.9" y2="1453.6" stroke="#6F3F26" stroke-width="3" stroke-linecap="round"/>
      <line x1="810" y1="1530" x2="854.1" y2="1509.0" stroke="#6F3F26" stroke-width="5" stroke-linecap="round"/>
      <line x1="810" y1="1530" x2="797.4" y2="1479.6" stroke="#6F3F26" stroke-width="4" stroke-linecap="round"/>
      <circle cx="810" cy="1530" r="8.4" fill="#DAAE47"/>
      <ellipse cx="783.75" cy="1490.1" rx="23.1" ry="8.4" fill="#fff" opacity="0.32" transform="rotate(-25 783.75 1490.1)"/>
    </g>
</svg>