<?xml version="1.0" encoding="UTF-8"?>
<svg xmlns="http://www.w3.org/2000/svg" viewBox="0 0 1080 1920" width="1080" height="1920" role="img">
<title>Fondo móvil global</title>

    <defs>
      <linearGradient id="gPlant" x1="0" y1="0" x2="1" y2="1">
        <stop offset="0" stop-color="#A9DB91"/><stop offset="0.5" stop-color="#4DA95F"/><stop offset="1" stop-color="#20744F"/>
      </linearGradient>
      <linearGradient id="gPlantDeep" x1="0" y1="0" x2="1" y2="1">
        <stop offset="0" stop-color="#4DA95F"/><stop offset="1" stop-color="#134834"/>
      </linearGradient>
      <linearGradient id="gDiamond" x1="0" y1="0" x2="1" y2="1">
        <stop offset="0" stop-color="#EBFAFF"/><stop offset="0.38" stop-color="#9ADEF1"/><stop offset="0.72" stop-color="#3997C9"/><stop offset="1" stop-color="#236797"/>
      </linearGradient>
      <linearGradient id="gGold" x1="0" y1="0" x2="1" y2="0">
        <stop offset="0" stop-color="#F7DD97"/><stop offset="0.52" stop-color="#DAAE47"/><stop offset="1" stop-color="#7D5420"/>
      </linearGradient>
      <linearGradient id="gBronze" x1="0" y1="0" x2="1" y2="1">
        <stop offset="0" stop-color="#E7AE77"/><stop offset="0.55" stop-color="#B57041"/><stop offset="1" stop-color="#6F3F26"/>
      </linearGradient>
      <linearGradient id="gPlatinum" x1="0" y1="0" x2="1" y2="1">
        <stop offset="0" stop-color="#FAFCFF"/><stop offset="0.42" stop-color="#DEE4EB"/><stop offset="0.75" stop-color="#B4BCC6"/><stop offset="1" stop-color="#697380"/>
      </linearGradient>
      <radialGradient id="rQuartz"><stop offset="0" stop-color="#fff"/><stop offset="1" stop-color="#F0F1F2"/></radialGradient>
      <filter id="softShadow" x="-40%" y="-40%" width="180%" height="180%"><feDropShadow dx="0" dy="8" stdDeviation="12" flood-color="#25343F" flood-opacity="0.16"/></filter>
      <filter id="smallShadow" x="-40%" y="-40%" width="180%" height="180%"><feDropShadow dx="0" dy="3" stdDeviation="4" flood-color="#25343F" flood-opacity="0.18"/></filter>
      <filter id="glow" x="-70%" y="-70%" width="240%" height="240%"><feGaussianBlur stdDeviation="6" result="b"/><feMerge><feMergeNode in="b"/><feMergeNode in="SourceGraphic"/></feMerge></filter>
      <pattern id="grid" width="48" height="48" patternUnits="userSpaceOnUse"><path d="M48 0H0V48" fill="none" stroke="#393E46" stroke-opacity="0.055" stroke-width="1"/></pattern>
      <pattern id="microGrid" width="20" height="20" patternUnits="userSpaceOnUse"><path d="M20 0H0V20" fill="none" stroke="#20744F" stroke-opacity="0.055" stroke-width="1"/></pattern>
    </defs>
<rect width="1080" height="1920" fill="url(#rQuartz)"/>
<rect width="1080" height="1920" fill="url(#rQuartz)"/><rect width="1080" height="1920" fill="url(#grid)" opacity="0.65"/>
    <ellipse cx="180" cy="250" rx="440" ry="520" fill="#A9DB91" opacity=".13"/>
    <g opacity="0.4662600280399094" filter="url(#smallShadow)"><polygon points="500.2,1074.8 495.1,1080.0 487.8,1080.0 482.6,1074.8 482.6,1067.5 487.8,1062.4 495.1,1062.4 500.2,1067.5" fill="url(#gDiamond)" stroke="#fff" stroke-opacity="0.8" stroke-width="2"/><path d="M484.74546012711534 1071.1766381097225L491.427144580015 1064.4949536568229L498.1088290329147 1071.1766381097225L491.427144580015 1077.858322562622Z" fill="#fff" opacity="0.18"/></g><g opacity="0.48476345561672224" filter="url(#smallShadow)"><polygon points="552.7,1124.5 550.0,1127.3 546.0,1127.3 543.3,1124.5 543.3,1120.6 546.0,1117.8 550.0,1117.8 552.7,1120.6" fill="url(#gGold)" stroke="#fff" stroke-opacity="0.8" stroke-width="2"/><path d="M544.4225250793261 1122.5357816608084L547.9980985235165 1118.960208216618L551.573671967707 1122.5357816608084L547.9980985235165 1126.111355104999Z" fill="#fff" opacity="0.18"/></g><g opacity="0.40136050504981025" filter="url(#smallShadow)"><polygon points="676.7,1506.7 674.2,1509.2 670.7,1509.2 668.3,1506.7 668.3,1503.2 670.7,1500.7 674.2,1500.7 676.7,1503.2" fill="url(#gBronze)" stroke="#fff" stroke-opacity="0.8" stroke-width="2"/><path d="M669.2850561049752 1504.936982887112L672.4803746211379 1501.7416643709494L675.6756931373006 1504.936982887112L672.4803746211379 1508.1323014032746Z" fill="#fff" opacity="0.18"/></g><g opacity="0.2967521345479384" filter="url(#smallShadow)"><polygon points="130.0,1539.1 125.6,1543.5 119.4,1543.5 114.9,1539.1 114.9,1532.8 119.4,1528.4 125.6,1528.4 130.0,1532.8" fill="url(#gPlatinum)" stroke="#fff" stroke-opacity="0.8" stroke-width="2"/><path d="M116.77150661500298 1535.9388339229502L122.48394824167619 1530.226392296277L128.1963898683494 1535.9388339229502L122.48394824167619 1541.6512755496233Z" fill="#fff" opacity="0.18"/></g><g opacity="0.5262250818314284" filter="url(#smallShadow)"><polygon points="1039.2,1827.5 1034.9,1831.8 1028.8,1831.8 1024.5,1827.5 1024.5,1821.4 1028.8,1817.1 1034.9,1817.1 1039.2,1821.4" fill="url(#gPlant)" stroke="#fff" stroke-opacity="0.8" stroke-width="2"/><path d="M1026.2908145739116 1824.4494728935542L1031.8372892147538 1818.902998252712L1037.383763855596 1824.4494728935542L1031.8372892147538 1829.9959475343965Z" fill="#fff" opacity="0.18"/></g><g opacity="0.303820442067542" filter="url(#smallShadow)"><polygon points="197.3,60.6 193.4,64.5 187.9,64.5 184.0,60.6 184.0,55.2 187.9,51.3 193.4,51.3 197.3,55.2" fill="url(#gDiamond)" stroke="#fff" stroke-opacity="0.8" stroke-width="2"/><path d="M185.62477572504966 57.90137072626513L190.64397704296567 52.88216940834912L195.6631783608817 57.90137072626513L190.64397704296567 62.920572044181135Z" fill="#fff" opacity="0.18"/></g><g opacity="0.46557378448931386" filter="url(#smallShadow)"><polygon points="227.9,481.6 225.6,483.9 222.4,483.9 220.2,481.6 220.2,478.4 222.4,476.2 225.6,476.2 227.9,478.4" fill="url(#gGold)" stroke="#fff" stroke-opacity="0.8" stroke-width="2"/><path d="M221.0860811791436 480.0140054172995L224.0124280538877 477.08765854255535L226.9387749286318 480.0140054172995L224.0124280538877 482.9403522920436Z" fill="#fff" opacity="0.18"/></g><g opacity="0.5361166831676709" filter="url(#smallShadow)"><polygon points="485.9,1599.6 482.1,1603.5 476.6,1603.5 472.8,1599.6 472.8,1594.2 476.6,1590.3 482.1,1590.3 485.9,1594.2" fill="url(#gBronze)" stroke="#fff" stroke-opacity="0.8" stroke-width="2"/><path d="M474.3614177077808 1596.9144590444694L479.3417389897899 1591.9341377624603L484.32206027179905 1596.9144590444694L479.3417389897899 1601.8947803264784Z" fill="#fff" opacity="0.18"/></g><g opacity="0.3912651598655544" filter="url(#smallShadow)"><polygon points="546.0,1264.7 542.3,1268.4 537.2,1268.4 533.5,1264.7 533.5,1259.6 537.2,1255.9 542.3,1255.9 546.0,1259.6" fill="url(#gPlatinum)" stroke="#fff" stroke-opacity="0.8" stroke-width="2"/><path d="M535.0478297482093 1262.1561293160848L539.7686152509275 1257.4353438133667L544.4894007536457 1262.1561293160848L539.7686152509275 1266.876914818803Z" fill="#fff" opacity="0.18"/></g><g opacity="0.5631238485991799" filter="url(#smallShadow)"><polygon points="1056.0,1885.4 1051.1,1890.3 1044.1,1890.3 1039.3,1885.4 1039.3,1878.5 1044.1,1873.6 1051.1,1873.6 1056.0,1878.5" fill="url(#gPlant)" stroke="#fff" stroke-opacity="0.8" stroke-width="2"/><path d="M1041.2804191644761 1881.9864534805304L1047.609324472346 1875.6575481726604L1053.938229780216 1881.9864534805304L1047.609324472346 1888.3153587884003Z" fill="#fff" opacity="0.18"/></g><g opacity="0.3080893998239704" filter="url(#smallShadow)"><polygon points="356.9,459.4 353.8,462.5 349.4,462.5 346.3,459.4 346.3,455.0 349.4,451.9 353.8,451.9 356.9,455.0" fill="url(#gDiamond)" stroke="#fff" stroke-opacity="0.8" stroke-width="2"/><path d="M347.56879357714126 457.17857699070436L351.5827613558609 453.1646092119847L355.5967291345805 457.17857699070436L351.5827613558609 461.192544769424Z" fill="#fff" opacity="0.18"/></g><g opacity="0.43460541268237385" filter="url(#smallShadow)"><polygon points="820.0,778.2 815.1,783.1 808.1,783.1 803.2,778.2 803.2,771.3 808.1,766.4 815.1,766.4 820.0,771.3" fill="url(#gGold)" stroke="#fff" stroke-opacity="0.8" stroke-width="2"/><path d="M805.2579929267142 774.7436371483933L811.6136441386152 768.3879859364923L817.9692953505162 774.7436371483933L811.6136441386152 781.0992883602943Z" fill="#fff" opacity="0.18"/></g><g opacity="0.3638869658918445" filter="url(#smallShadow)"><polygon points="1010.9,1607.5 1008.7,1609.7 1005.7,1609.7 1003.5,1607.5 1003.5,1604.5 1005.7,1602.3 1008.7,1602.3 1010.9,1604.5" fill="url(#gBronze)" stroke="#fff" stroke-opacity="0.8" stroke-width="2"/><path d="M1004.4009422505763 1605.9961783432163L1007.2032309862097 1603.193889607583L1010.0055197218431 1605.9961783432163L1007.2032309862097 1608.7984670788496Z" fill="#fff" opacity="0.18"/></g><g opacity="0.4389697552317125" filter="url(#smallShadow)"><polygon points="967.6,908.0 962.3,913.3 954.7,913.3 949.3,908.0 949.3,900.4 954.7,895.0 962.3,895.0 967.6,900.4" fill="url(#gPlatinum)" stroke="#fff" stroke-opacity="0.8" stroke-width="2"/><path d="M951.559859113333 904.1763333854195L958.4773666662651 897.2588258324874L965.3948742191972 904.1763333854195L958.4773666662651 911.0938409383516Z" fill="#fff" opacity="0.18"/></g><g opacity="0.3879102347400571" filter="url(#smallShadow)"><polygon points="112.5,1204.1 107.8,1208.8 101.2,1208.8 96.5,1204.1 96.5,1197.5 101.2,1192.8 107.8,1192.8 112.5,1197.5" fill="url(#gPlant)" stroke="#fff" stroke-opacity="0.8" stroke-width="2"/><path d="M98.42936510392992 1200.786136755285L104.49911071037185 1194.716391148843L110.56885631681378 1200.786136755285L104.49911071037185 1206.855882361727Z" fill="#fff" opacity="0.18"/></g><g opacity="0.5832162067975035" filter="url(#smallShadow)"><polygon points="127.9,652.4 122.6,657.6 115.1,657.6 109.8,652.4 109.8,644.9 115.1,639.6 122.6,639.6 127.9,644.9" fill="url(#gDiamond)" stroke="#fff" stroke-opacity="0.8" stroke-width="2"/><path d="M112.03796220951972 648.6092633618271L118.88708231921353 641.7601432521333L125.73620242890735 648.6092633618271L118.88708231921353 655.4583834715208Z" fill="#fff" opacity="0.18"/></g><g opacity="0.3039573611764307" filter="url(#smallShadow)"><polygon points="154.6,490.0 152.1,492.5 148.6,492.5 146.1,490.0 146.1,486.5 148.6,484.0 152.1,484.0 154.6,486.5" fill="url(#gGold)" stroke="#fff" stroke-opacity="0.8" stroke-width="2"/><path d="M147.12711851032367 488.28158494122175L150.35151300794183 485.0571904436036L153.57590750556 488.28158494122175L150.35151300794183 491.5059794388399Z" fill="#fff" opacity="0.18"/></g><g opacity="0.45896995100040866" filter="url(#smallShadow)"><polygon points="849.8,363.3 845.8,367.3 840.1,367.3 836.2,363.3 836.2,357.7 840.1,353.7 845.8,353.7 849.8,357.7" fill="url(#gBronze)" stroke="#fff" stroke-opacity="0.8" stroke-width="2"/><path d="M837.8129024860899 360.481318448961L842.9619420808535 355.33227885419734L848.1109816756172 360.481318448961L842.9619420808535 365.6303580437247Z" fill="#fff" opacity="0.18"/></g><g opacity="0.5374860494844669" filter="url(#smallShadow)"><polygon points="228.9,1393.2 226.3,1395.7 222.7,1395.7 220.1,1393.2 220.1,1389.5 222.7,1386.9 226.3,1386.9 228.9,1389.5" fill="url(#gPlatinum)" stroke="#fff" stroke-opacity="0.8" stroke-width="2"/><path d="M221.14804184456358 1391.3232412286916L224.4981035961734 1387.9731794770819L227.8481653477832 1391.3232412286916L224.4981035961734 1394.6733029803013Z" fill="#fff" opacity="0.18"/></g><g opacity="0.38791799087623935" filter="url(#smallShadow)"><polygon points="153.7,814.6 150.9,817.5 146.8,817.5 144.0,814.6 144.0,810.6 146.8,807.7 150.9,807.7 153.7,810.6" fill="url(#gPlant)" stroke="#fff" stroke-opacity="0.8" stroke-width="2"/><path d="M145.14411156586152 812.605448078343L148.8381473924997 808.9114122517049L152.5321832191379 812.605448078343L148.8381473924997 816.2994839049811Z" fill="#fff" opacity="0.18"/></g><g opacity="0.32">
      <path d="M-30 1500 C324.0 1410 734.4000000000001 1590 1110 1500" fill="none" stroke="url(#gPlant)" stroke-width="15" stroke-linecap="round"/>
      <path d="M-30 1518 C270.0 1572.0 756.0 1446.0 1110 1508" fill="none" stroke="#A9DB91" stroke-opacity="0.46" stroke-width="4"/>
    </g><g opacity="0.36">
      <path d="M-50 1620 C302.40000000000003 1550 777.6 1690 1130 1620" fill="none" stroke="url(#gGold)" stroke-width="11" stroke-linecap="round"/>
      <path d="M-50 1642 C302.40000000000003 1655.0 777.6 1574.5 1130 1638" fill="none" stroke="#F7DD97" stroke-opacity="0.7" stroke-width="3"/>
      <path d="M-50 1602 C302.40000000000003 1602.5 777.6 1651.5 1130 1608" fill="none" stroke="#DAAE47" stroke-opacity="0.42" stroke-width="2"/>
    </g><g transform="translate(760 1220) rotate(0) scale(1.6)">
      <path d="M0 92 C2 58 6 30 14 0" fill="none" stroke="url(#gPlantDeep)" stroke-width="12" stroke-linecap="round"/>
      <g transform="translate(9 22) rotate(-32) scale(0.48)" opacity="1.0">
      <path d="M0 0 C28 -58 82 -62 112 -12 C78 18 32 30 0 0Z" fill="url(#gPlant)"/>
      <path d="M8 -1 C42 -16 69 -27 101 -15" fill="none" stroke="#EFFFF0" stroke-opacity="0.55" stroke-width="3"/>
      <path d="M10 0 C43 -12 74 -10 105 -12" fill="none" stroke="#134834" stroke-opacity="0.28" stroke-width="2"/>
    </g>
      <g transform="translate(12 34) rotate(155) scale(0.45)" opacity="1.0">
      <path d="M0 0 C28 -58 82 -62 112 -12 C78 18 32 30 0 0Z" fill="url(#gPlant)"/>
      <path d="M8 -1 C42 -16 69 -27 101 -15" fill="none" stroke="#EFFFF0" stroke-opacity="0.55" stroke-width="3"/>
      <path d="M10 0 C43 -12 74 -10 105 -12" fill="none" stroke="#134834" stroke-opacity="0.28" stroke-width="2"/>
    </g>
    </g>
</svg>