<svg xmlns="http://www.w3.org/2000/svg" xmlns:xlink="http://www.w3.org/1999/xlink" version="1.1" style="background: #ffffff" viewBox="0 0 4850 2709"><style id="v-3" type="text/css">        .joint-element .scalable * {            vector-effect: non-scaling-stroke;        }    </style><defs joint-selector="defs"><marker id="v-2-671199615" orient="auto" overflow="visible" markerUnits="userSpaceOnUse"><path id="v-143" stroke="#64748b" fill="#64748b" transform="rotate(180)" d="M 20 -10 0 0 20 10 Z"></path></marker></defs><g joint-selector="layers"  transform="matrix(1,0,0,1,0,0)"><g  style="pointer-events: none;"></g><g ></g><g  style="user-select: none;"><!--z-index:1--><!--z-index:2--><!--z-index:3--><!--z-index:4--><!--z-index:5--><!--z-index:6--><!--z-index:7--><!--z-index:8--><!--z-index:9--><!--z-index:10--><!--z-index:11--><!--z-index:12--><!--z-index:13--><!--z-index:14--><!--z-index:15--><!--z-index:16--><!--z-index:17--><!--z-index:18--><!--z-index:19--><!--z-index:20--><!--z-index:21--><!--z-index:22--><!--z-index:23--><g   id="j_2"  transform="translate(20,2665)"><g id="v-6"><text  id="v-7" font-size="24px" xml:space="preserve" y="0.8em" font-weight="normal" text-anchor="start" fill="#444444" pointer-events="none" display="block" font-family="Tahoma, Verdana, Helvetica, Arial"><tspan dy="0" >lunes, 13 de julio de 2026, 0:09 hora estándar de Chile</tspan></text></g></g><!--z-index:24--><g   id="j_1"  transform="translate(20,2619)"><g id="v-4"><text  id="v-5" font-size="36px" xml:space="preserve" y="0.8em" font-weight="normal" text-anchor="start" fill="#444444" pointer-events="none" display="block" font-family="Tahoma, Verdana, Helvetica, Arial"><tspan dy="0" >HereToPlan — Arquitectura</tspan></text></g></g><!--z-index:25--><g   id="j_3"  transform="translate(325,160)" style=""><g  id="v-11" style="opacity: 1;"><rect  x="0" y="160" width="400" height="240" rx="70" id="v-13" stroke-width="2" pointer-events="visiblePainted" fill="#334155" stroke="#1e293b" stroke-dasharray="" style="fill: rgb(51, 65, 85); stroke: rgb(30, 41, 59);"></rect><circle  cx="200" cy="88.88888888888889" r="88.88888888888889" id="v-12" stroke-width="2" pointer-events="visiblePainted" fill="#334155" stroke="#1e293b" stroke-dasharray="" style="fill: rgb(51, 65, 85); stroke: rgb(30, 41, 59);"></circle><line  x1="80" y1="266.6666666666667" x2="80" y2="400" id="v-19" stroke="#1e293b" stroke-width="1" stroke-dasharray="" style="stroke: rgb(30, 41, 59);"></line><line  x1="320" y1="266.6666666666667" x2="320" y2="400" id="v-20" stroke="#1e293b" stroke-width="1" stroke-dasharray="" style="stroke: rgb(30, 41, 59);"></line><text  id="v-14" font-size="30.799999999999997px" xml:space="preserve" y="221.2" font-weight="bold" text-anchor="middle" pointer-events="visible" font-family="Tahoma, Verdana, Helvetica, Arial" fill="#ffffff" dominant-baseline="hanging" transform="matrix(1,0,0,1,200,0)" style="fill: rgb(255, 255, 255);"><tspan dy="0" >Usuario</tspan></text><text  id="v-15" font-size="15.399999999999999px" xml:space="preserve" y="260" text-anchor="middle" font-family="Tahoma, Verdana, Helvetica, Arial" fill="#ffffff" dominant-baseline="hanging" transform="matrix(1,0,0,1,200,0)" style="display: block; fill: rgb(255, 255, 255);"><tspan dy="0" >[Person]</tspan></text><text  id="v-16" font-size="22px" xml:space="preserve" y="290.4" text-anchor="middle" font-family="Tahoma, Verdana, Helvetica, Arial" fill="#ffffff" dominant-baseline="hanging" transform="matrix(1,0,0,1,200,0)" style="display: block; fill: rgb(255, 255, 255);"><tspan dy="0" >Planifica, ejecuta y revisa sus</tspan><tspan dy="1.2em" x="0" >compromisos personales.</tspan></text><g  id="v-17" font-weight="normal" text-anchor="middle" color="#ffffff" transform="matrix(1,0,0,1,197.5,368)" style="fill: rgb(255, 255, 255);" display="none"><g ></g><g ></g><g ></g><g ></g></g><image  id="v-18"></image></g></g><!--z-index:26--><g   id="j_6"  transform="translate(200,740)" style="; opacity: 1;"><g id="v-39"><rect  id="v-40" width="4450" height="1729" rx="20" ry="20" stroke-width="2" pointer-events="none" stroke="#64748b" fill="#ffffff" opacity="1" stroke-dasharray=""></rect><text  id="v-41" font-size="33.599999999999994px" xml:space="preserve" y="1690" font-weight="bold" text-anchor="start" pointer-events="visible" font-family="Tahoma, Verdana, Helvetica, Arial" fill="#1168bd" transform="matrix(1,0,0,1,15,0)"><tspan dy="0" >HereToPlan</tspan></text><text  id="v-42" font-size="16.799999999999997px" xml:space="preserve" y="1714" font-weight="normal" text-anchor="start" pointer-events="visible" font-family="Tahoma, Verdana, Helvetica, Arial" fill="#1168bd" transform="matrix(1,0,0,1,15,0)"><tspan dy="0" >[Software System]</tspan></text><image  id="v-43" pointer-events="visible"></image></g></g><!--z-index:27--><g   id="j_5"  transform="translate(250,790)" style="; opacity: 1;"><g id="v-34"><rect  id="v-35" width="4350" height="1550" rx="20" ry="20" stroke-width="2" pointer-events="none" stroke="#64748b" fill="#ffffff" opacity="1" stroke-dasharray=""></rect><text  id="v-36" font-size="33.599999999999994px" xml:space="preserve" y="1511" font-weight="bold" text-anchor="start" pointer-events="visible" font-family="Tahoma, Verdana, Helvetica, Arial" fill="#438dd5" transform="matrix(1,0,0,1,15,0)"><tspan dy="0" >Aplicación web</tspan></text><text  id="v-37" font-size="16.799999999999997px" xml:space="preserve" y="1535" font-weight="normal" text-anchor="start" pointer-events="visible" font-family="Tahoma, Verdana, Helvetica, Arial" fill="#438dd5" transform="matrix(1,0,0,1,15,0)"><tspan dy="0" >[Container]</tspan></text><image  id="v-38" pointer-events="visible"></image></g></g><!--z-index:28--><g   id="j_4"  transform="translate(300,1768)" style=""><g  id="v-27" style="opacity: 1;"><rect  id="v-28" rx="20" ry="20" stroke-width="2" pointer-events="visiblePainted" fill="#e2e8f0" stroke="#475569" stroke-dasharray="" width="450" height="300" style="fill: rgb(226, 232, 240); stroke: rgb(71, 85, 105);"></rect><text  id="v-29" font-size="30.799999999999997px" xml:space="preserve" y="78" font-weight="bold" text-anchor="middle" pointer-events="visible" font-family="Tahoma, Verdana, Helvetica, Arial" fill="#0f172a" dominant-baseline="hanging" transform="matrix(1,0,0,1,225,0)" style="fill: rgb(15, 23, 42);"><tspan dy="0" >Raíz de composición</tspan></text><text  id="v-30" font-size="15.399999999999999px" xml:space="preserve" y="116.8" text-anchor="middle" font-family="Tahoma, Verdana, Helvetica, Arial" fill="#0f172a" dominant-baseline="hanging" transform="matrix(1,0,0,1,225,0)" style="display: block; fill: rgb(15, 23, 42);"><tspan dy="0" >[Component: app]</tspan></text><text  id="v-31" font-size="22px" xml:space="preserve" y="147.2" text-anchor="middle" font-family="Tahoma, Verdana, Helvetica, Arial" fill="#0f172a" dominant-baseline="hanging" transform="matrix(1,0,0,1,225,0)" style="display: block; fill: rgb(15, 23, 42);"><tspan dy="0" >Construye casos de uso, selecciona</tspan><tspan dy="1.2em" x="0" >adaptadores y entrega dependencias a</tspan><tspan dy="1.2em" x="0" >la interfaz.</tspan></text><g  id="v-32" color="#0f172a" transform="matrix(1,0,0,1,222.5,268)" style="fill: rgb(15, 23, 42);" display="none"><g ></g><g ></g><g ></g><g ></g></g><image  id="v-33"></image></g></g><!--z-index:29--><g   id="j_7"  transform="translate(1250,884)" style=""><g  id="v-50" style="opacity: 1;"><rect  id="v-51" rx="20" ry="20" stroke-width="2" pointer-events="visiblePainted" fill="#dbeafe" stroke="#2563eb" stroke-dasharray="" width="450" height="300" style="fill: rgb(219, 234, 254); stroke: rgb(37, 99, 235);"></rect><text  id="v-52" font-size="30.799999999999997px" xml:space="preserve" y="91.2" font-weight="bold" text-anchor="middle" pointer-events="visible" font-family="Tahoma, Verdana, Helvetica, Arial" fill="#1e3a8a" dominant-baseline="hanging" transform="matrix(1,0,0,1,225,0)" style="fill: rgb(30, 58, 138);"><tspan dy="0" >Adaptador de entrada</tspan></text><text  id="v-53" font-size="15.399999999999999px" xml:space="preserve" y="130" text-anchor="middle" font-family="Tahoma, Verdana, Helvetica, Arial" fill="#1e3a8a" dominant-baseline="hanging" transform="matrix(1,0,0,1,225,0)" style="display: block; fill: rgb(30, 58, 138);"><tspan dy="0" >[Component: React]</tspan></text><text  id="v-54" font-size="22px" xml:space="preserve" y="160.39999999999998" text-anchor="middle" font-family="Tahoma, Verdana, Helvetica, Arial" fill="#1e3a8a" dominant-baseline="hanging" transform="matrix(1,0,0,1,225,0)" style="display: block; fill: rgb(30, 58, 138);"><tspan dy="0" >Traduce acciones del usuario a</tspan><tspan dy="1.2em" x="0" >solicitudes y resultados a vistas.</tspan></text><g  id="v-55" color="#1e3a8a" transform="matrix(1,0,0,1,222.5,268)" style="fill: rgb(30, 58, 138);" display="none"><g ></g><g ></g><g ></g><g ></g></g><image  id="v-56"></image></g></g><!--z-index:30--><g   id="j_8"  transform="translate(2200,840)" style=""><g  id="v-63" style="opacity: 1;"><polygon  id="v-64" stroke-width="2" pointer-events="visiblePainted" fill="#fef7d8" stroke="#e4a051" stroke-dasharray="" points="112.5,0 337.5,0 450,194.5 337.5,389 112.5,389 0,194.5" style="fill: rgb(254, 247, 216); stroke: rgb(228, 160, 81);"></polygon><text  id="v-65" font-size="30.799999999999997px" xml:space="preserve" y="135.7" font-weight="bold" text-anchor="middle" pointer-events="visible" font-family="Tahoma, Verdana, Helvetica, Arial" fill="#a17257" dominant-baseline="hanging" transform="matrix(1,0,0,1,225,0)" style="fill: rgb(161, 114, 87);"><tspan dy="0" >Puertos de entrada</tspan></text><text  id="v-66" font-size="15.399999999999999px" xml:space="preserve" y="174.5" text-anchor="middle" font-family="Tahoma, Verdana, Helvetica, Arial" fill="#a17257" dominant-baseline="hanging" transform="matrix(1,0,0,1,225,0)" style="display: block; fill: rgb(161, 114, 87);"><tspan dy="0" >[Component: TypeScript]</tspan></text><text  id="v-67" font-size="22px" xml:space="preserve" y="204.89999999999998" text-anchor="middle" font-family="Tahoma, Verdana, Helvetica, Arial" fill="#a17257" dominant-baseline="hanging" transform="matrix(1,0,0,1,225,0)" style="display: block; fill: rgb(161, 114, 87);"><tspan dy="0" >Contratos de comandos y consultas</tspan><tspan dy="1.2em" x="0" >ofrecidos por la aplicación.</tspan></text><g  id="v-68" font-weight="normal" text-anchor="middle" color="#a17257" transform="matrix(1,0,0,1,222.5,357)" style="fill: rgb(161, 114, 87);" display="none"><g ></g><g ></g><g ></g><g ></g></g><image  id="v-69"></image></g></g><!--z-index:31--><g   id="j_9"  transform="translate(3150,1039)" style=""><g  id="v-73" style="opacity: 1;"><rect  id="v-74" rx="20" ry="20" stroke-width="2" pointer-events="visiblePainted" fill="#e7fdee" stroke="#5cbf80" stroke-dasharray="" width="450" height="300" style="fill: rgb(231, 253, 238); stroke: rgb(92, 191, 128);"></rect><text  id="v-75" font-size="30.799999999999997px" xml:space="preserve" y="78" font-weight="bold" text-anchor="middle" pointer-events="visible" font-family="Tahoma, Verdana, Helvetica, Arial" fill="#5b876c" dominant-baseline="hanging" transform="matrix(1,0,0,1,225,0)" style="fill: rgb(91, 135, 108);"><tspan dy="0" >Casos de uso</tspan></text><text  id="v-76" font-size="15.399999999999999px" xml:space="preserve" y="116.8" text-anchor="middle" font-family="Tahoma, Verdana, Helvetica, Arial" fill="#5b876c" dominant-baseline="hanging" transform="matrix(1,0,0,1,225,0)" style="display: block; fill: rgb(91, 135, 108);"><tspan dy="0" >[Component: TypeScript]</tspan></text><text  id="v-77" font-size="22px" xml:space="preserve" y="147.2" text-anchor="middle" font-family="Tahoma, Verdana, Helvetica, Arial" fill="#5b876c" dominant-baseline="hanging" transform="matrix(1,0,0,1,225,0)" style="display: block; fill: rgb(91, 135, 108);"><tspan dy="0" >Orquestan el flujo, los límites</tspan><tspan dy="1.2em" x="0" >transaccionales y la colaboración con el</tspan><tspan dy="1.2em" x="0" >dominio.</tspan></text><g  id="v-78" color="#5b876c" transform="matrix(1,0,0,1,222.5,268)" style="fill: rgb(91, 135, 108);" display="none"><g ></g><g ></g><g ></g><g ></g></g><image  id="v-79"></image></g></g><!--z-index:32--><g   id="j_10"  transform="translate(4100,862)" style=""><g  id="v-83" style="opacity: 1;"><rect  id="v-84" rx="20" ry="20" stroke-width="2" pointer-events="visiblePainted" fill="#dcfce7" stroke="#16a34a" stroke-dasharray="" width="450" height="300" style="fill: rgb(220, 252, 231); stroke: rgb(22, 163, 74);"></rect><text  id="v-85" font-size="30.799999999999997px" xml:space="preserve" y="91.2" font-weight="bold" text-anchor="middle" pointer-events="visible" font-family="Tahoma, Verdana, Helvetica, Arial" fill="#14532d" dominant-baseline="hanging" transform="matrix(1,0,0,1,225,0)" style="fill: rgb(20, 83, 45);"><tspan dy="0" >Dominio</tspan></text><text  id="v-86" font-size="15.399999999999999px" xml:space="preserve" y="130" text-anchor="middle" font-family="Tahoma, Verdana, Helvetica, Arial" fill="#14532d" dominant-baseline="hanging" transform="matrix(1,0,0,1,225,0)" style="display: block; fill: rgb(20, 83, 45);"><tspan dy="0" >[Component: TypeScript]</tspan></text><text  id="v-87" font-size="22px" xml:space="preserve" y="160.39999999999998" text-anchor="middle" font-family="Tahoma, Verdana, Helvetica, Arial" fill="#14532d" dominant-baseline="hanging" transform="matrix(1,0,0,1,225,0)" style="display: block; fill: rgb(20, 83, 45);"><tspan dy="0" >Agregados, entidades, objetos de valor,</tspan><tspan dy="1.2em" x="0" >servicios e invariantes de HereToPlan.</tspan></text><g  id="v-88" color="#14532d" transform="matrix(1,0,0,1,222.5,268)" style="fill: rgb(20, 83, 45);" display="none"><g ></g><g ></g><g ></g><g ></g></g><image  id="v-89"></image></g></g><!--z-index:33--><g   id="j_11"  transform="translate(4100,1342)" style=""><g  id="v-96" style="opacity: 1;"><polygon  id="v-97" stroke-width="2" pointer-events="visiblePainted" fill="#fef7d8" stroke="#e4a051" stroke-dasharray="" points="112.5,0 337.5,0 450,194.5 337.5,389 112.5,389 0,194.5" style="fill: rgb(254, 247, 216); stroke: rgb(228, 160, 81);"></polygon><text  id="v-98" font-size="30.799999999999997px" xml:space="preserve" y="122.5" font-weight="bold" text-anchor="middle" pointer-events="visible" font-family="Tahoma, Verdana, Helvetica, Arial" fill="#a17257" dominant-baseline="hanging" transform="matrix(1,0,0,1,225,0)" style="fill: rgb(161, 114, 87);"><tspan dy="0" >Puertos de salida</tspan></text><text  id="v-99" font-size="15.399999999999999px" xml:space="preserve" y="161.3" text-anchor="middle" font-family="Tahoma, Verdana, Helvetica, Arial" fill="#a17257" dominant-baseline="hanging" transform="matrix(1,0,0,1,225,0)" style="display: block; fill: rgb(161, 114, 87);"><tspan dy="0" >[Component: TypeScript]</tspan></text><text  id="v-100" font-size="22px" xml:space="preserve" y="191.7" text-anchor="middle" font-family="Tahoma, Verdana, Helvetica, Arial" fill="#a17257" dominant-baseline="hanging" transform="matrix(1,0,0,1,225,0)" style="display: block; fill: rgb(161, 114, 87);"><tspan dy="0" >Contratos requeridos para persistencia,</tspan><tspan dy="1.2em" x="0" >reloj, identificadores y unidad de</tspan><tspan dy="1.2em" x="0" >trabajo.</tspan></text><g  id="v-101" font-weight="normal" text-anchor="middle" color="#a17257" transform="matrix(1,0,0,1,222.5,357)" style="fill: rgb(161, 114, 87);" display="none"><g ></g><g ></g><g ></g><g ></g></g><image  id="v-102"></image></g></g><!--z-index:34--><g   id="j_12"  transform="translate(3150,1877)" style=""><g  id="v-109" style="opacity: 1;"><rect  id="v-110" rx="20" ry="20" stroke-width="2" pointer-events="visiblePainted" fill="#f2f0fe" stroke="#a375f2" stroke-dasharray="" width="450" height="300" style="fill: rgb(242, 240, 254); stroke: rgb(163, 117, 242);"></rect><text  id="v-111" font-size="30.799999999999997px" xml:space="preserve" y="91.2" font-weight="bold" text-anchor="middle" pointer-events="visible" font-family="Tahoma, Verdana, Helvetica, Arial" fill="#8261b5" dominant-baseline="hanging" transform="matrix(1,0,0,1,225,0)" style="fill: rgb(130, 97, 181);"><tspan dy="0" >Adaptadores de salida</tspan></text><text  id="v-112" font-size="15.399999999999999px" xml:space="preserve" y="130" text-anchor="middle" font-family="Tahoma, Verdana, Helvetica, Arial" fill="#8261b5" dominant-baseline="hanging" transform="matrix(1,0,0,1,225,0)" style="display: block; fill: rgb(130, 97, 181);"><tspan dy="0" >[Component: TypeScript]</tspan></text><text  id="v-113" font-size="22px" xml:space="preserve" y="160.39999999999998" text-anchor="middle" font-family="Tahoma, Verdana, Helvetica, Arial" fill="#8261b5" dominant-baseline="hanging" transform="matrix(1,0,0,1,225,0)" style="display: block; fill: rgb(130, 97, 181);"><tspan dy="0" >Implementan los puertos mediante</tspan><tspan dy="1.2em" x="0" >tecnologías del navegador.</tspan></text><g  id="v-114" color="#8261b5" transform="matrix(1,0,0,1,222.5,268)" style="fill: rgb(130, 97, 181);" display="none"><g ></g><g ></g><g ></g><g ></g></g><image  id="v-115"></image></g></g><!--z-index:35--><g   id="j_13"  transform="translate(4100,1911)" style=""><g  id="v-125" style="opacity: 1;"><path  d="M 0,30 a 225,30 0,0,0 450 0 a 225,30 0,0,0 -450 0 l 0,240 a 225,30 0,0,0 450 0 l 0,-240" id="v-126" stroke-width="2" pointer-events="visiblePainted" fill="#f5f8fb" stroke="#b4bfcd" stroke-dasharray="" style="fill: rgb(245, 248, 251); stroke: rgb(180, 191, 205);"></path><rect  id="v-127" stroke-width="0" pointer-events="visiblePainted" fill="none" stroke="none" width="450" height="270" x="0" y="30"></rect><text  id="v-128" font-size="30.799999999999997px" xml:space="preserve" y="106.2" font-weight="bold" text-anchor="middle" pointer-events="visible" font-family="Tahoma, Verdana, Helvetica, Arial" fill="#707a88" dominant-baseline="hanging" transform="matrix(1,0,0,1,225,0)" style="fill: rgb(112, 122, 136);"><tspan dy="0" >Almacenamiento local</tspan></text><text  id="v-129" font-size="15.399999999999999px" xml:space="preserve" y="145" text-anchor="middle" font-family="Tahoma, Verdana, Helvetica, Arial" fill="#707a88" dominant-baseline="hanging" transform="matrix(1,0,0,1,225,0)" style="display: block; fill: rgb(112, 122, 136);"><tspan dy="0" >[Component: IndexedDB o Web Storage]</tspan></text><text  id="v-130" font-size="22px" xml:space="preserve" y="175.39999999999998" text-anchor="middle" font-family="Tahoma, Verdana, Helvetica, Arial" fill="#707a88" dominant-baseline="hanging" transform="matrix(1,0,0,1,225,0)" style="display: block; fill: rgb(112, 122, 136);"><tspan dy="0" >Conserva y rehidrata el estado del</tspan><tspan dy="1.2em" x="0" >usuario.</tspan></text><g  id="v-131" font-weight="normal" text-anchor="middle" color="#707a88" transform="matrix(1,0,0,1,222.5,268)" style="fill: rgb(112, 122, 136);" display="none"><g ></g><g ></g><g ></g><g ></g></g><image  id="v-132"></image></g></g><!--z-index:36--><g   id="j_14"  style="opacity: 1;"><path fill="none" cursor="pointer" stroke="transparent" stroke-linecap="round" joint-selector="wrapper" id="v-141" stroke-width="10" stroke-linejoin="round" d="M 525 560 L 525 899 C 525 905.8333333333333 528.3333333333333 909.1666666666666 535 909 L 990 909 C 996.6666666666666 909.1666666666666 1000 912.5 1000 919 L 1000 1024 C 1000 1030.6666666666665 1003.3333333333333 1034 1010 1034 L 1250 1034" style="stroke-width: 10px;"></path><path fill="none" pointer-events="none" joint-selector="line" id="v-140" stroke="#64748b" stroke-width="2" stroke-linejoin="round" stroke-dasharray="8 8" d="M 525 560 L 525 899 C 525 905.8333333333333 528.3333333333333 909.1666666666666 535 909 L 990 909 C 996.6666666666666 909.1666666666666 1000 912.5 1000 919 L 1000 1024 C 1000 1030.6666666666665 1003.3333333333333 1034 1010 1034 L 1250 1034" marker-end="url(#v-2-671199615)"></path><g id="v-133" ><g id="v-134"  label-idx="0" cursor="move" transform="matrix(1,0,0,1,941.0462036132812,909)" style="cursor: default;"><rect joint-selector="rect" id="v-137" fill="#ffffff" rx="3" ry="3" x="-57.67884063720703" y="-13.271956443786621" width="116.5033950805664" height="22.406347274780273" pointer-events="none"  style="display: block;"></rect><text joint-selector="text" id="v-136" font-size="18px" xml:space="preserve" fill="#64748b" text-anchor="middle" pointer-events="none" font-family="Tahoma, Verdana, Helvetica, Arial" font-weight="normal"  style="display: block;"><tspan dy="0.3em" >Interactúa con</tspan></text></g><g id="v-135"  label-idx="1" cursor="move" transform="matrix(1,0,0,1,931.0462036132812,918)" style="cursor: default;"><rect joint-selector="rect" id="v-139" fill="#ffffff" rx="3" ry="3" x="0" y="0" width="0" height="0"  display="none"></rect><text joint-selector="text" id="v-138" fill="#000000" font-size="14" text-anchor="middle" text-vertical-anchor="middle" pointer-events="none"></text></g></g></g><!--z-index:37--><g   id="j_15"  style="opacity: 1;"><path fill="none" cursor="pointer" stroke="transparent" stroke-linecap="round" joint-selector="wrapper" id="v-152" stroke-width="10" stroke-linejoin="round" d="M 1700 1034 L 1940 1034 C 1946.6666666666665 1034 1950 1034 1950 1034 L 1950 1034 C 1950 1034.3333333333333 1953.3333333333333 1034.6666666666665 1960 1035 L 2200 1034.5" style="stroke-width: 10px;"></path><path fill="none" pointer-events="none" joint-selector="line" id="v-151" stroke="#64748b" stroke-width="2" stroke-linejoin="round" stroke-dasharray="8 8" d="M 1700 1034 L 1940 1034 C 1946.6666666666665 1034 1950 1034 1950 1034 L 1950 1034 C 1950 1034.3333333333333 1953.3333333333333 1034.6666666666665 1960 1035 L 2200 1034.5" marker-end="url(#v-2-671199615)"></path><g id="v-144" ><g id="v-145"  label-idx="0" cursor="move" transform="matrix(1,0,0,1,1950.02197265625,1034.046875)" style="cursor: default;"><rect joint-selector="rect" id="v-148" fill="#ffffff" rx="3" ry="3" x="-26.43248748779297" y="-13.271956443786621" width="52.86497497558594" height="22.406347274780273" pointer-events="none"  style="display: block;"></rect><text joint-selector="text" id="v-147" font-size="18px" xml:space="preserve" fill="#64748b" text-anchor="middle" pointer-events="none" font-family="Tahoma, Verdana, Helvetica, Arial" font-weight="normal"  style="display: block;"><tspan dy="0.3em" >Invoca</tspan></text></g><g id="v-146"  label-idx="1" cursor="move" transform="matrix(1,0,0,1,1940.02197265625,1043.046875)" style="cursor: default;"><rect joint-selector="rect" id="v-150" fill="#ffffff" rx="3" ry="3" x="0" y="0" width="0" height="0"  display="none"></rect><text joint-selector="text" id="v-149" fill="#000000" font-size="14" text-anchor="middle" text-vertical-anchor="middle" pointer-events="none"></text></g></g></g><!--z-index:38--><g   id="j_16"  style="opacity: 1;"><path fill="none" cursor="pointer" stroke="transparent" stroke-linecap="round" joint-selector="wrapper" id="v-161" stroke-width="10" stroke-linejoin="round" d="M 2650 1034.5 L 2890 1035 C 2896.6666666666665 1034.6666666666665 2900 1038 2900 1045 L 2900 1179 C 2900 1185.6666666666665 2903.333333333333 1189 2910 1189 L 3150 1189"></path><path fill="none" pointer-events="none" joint-selector="line" id="v-160" stroke="#64748b" stroke-width="2" stroke-linejoin="round" stroke-dasharray="8 8" d="M 2650 1034.5 L 2890 1035 C 2896.6666666666665 1034.6666666666665 2900 1038 2900 1045 L 2900 1179 C 2900 1185.6666666666665 2903.333333333333 1189 2910 1189 L 3150 1189" marker-end="url(#v-2-671199615)"></path><g id="v-153" ><g id="v-154"  label-idx="0" cursor="move" transform="matrix(1,0,0,1,2900,1103.7509765625)" style="cursor: default;"><rect joint-selector="rect" id="v-157" fill="#ffffff" rx="3" ry="3" x="-29.131168365478516" y="-13.271956443786621" width="59.97297286987305" height="22.406347274780273" pointer-events="none"  style="display: block;"></rect><text joint-selector="text" id="v-156" font-size="18px" xml:space="preserve" fill="#64748b" text-anchor="middle" pointer-events="none" font-family="Tahoma, Verdana, Helvetica, Arial" font-weight="normal"  style="display: block;"><tspan dy="0.3em" >Expone</tspan></text></g><g id="v-155"  label-idx="1" cursor="move" transform="matrix(1,0,0,1,2890,1112.7509765625)" style="cursor: default;"><rect joint-selector="rect" id="v-159" fill="#ffffff" rx="3" ry="3" x="0" y="-2.2737367544323206e-13" width="0" height="0"  display="none"></rect><text joint-selector="text" id="v-158" fill="#000000" font-size="14" text-anchor="middle" text-vertical-anchor="middle" pointer-events="none"></text></g></g></g><!--z-index:39--><g   id="j_17"  style="opacity: 1;"><path fill="none" cursor="pointer" stroke="transparent" stroke-linecap="round" joint-selector="wrapper" id="v-170" stroke-width="10" stroke-linejoin="round" d="M 3375 1039 L 3375 1022 C 3375 1015.4999999999999 3378.333333333333 1012.1666666666665 3385 1012 L 3840 1012 C 3846.6666666666665 1012.1666666666665 3850 1012.1666666666665 3850 1012 L 3850 1012 C 3850 1012 3853.333333333333 1012 3860 1012 L 4100 1012"></path><path fill="none" pointer-events="none" joint-selector="line" id="v-169" stroke="#64748b" stroke-width="2" stroke-linejoin="round" stroke-dasharray="8 8" d="M 3375 1039 L 3375 1022 C 3375 1015.4999999999999 3378.333333333333 1012.1666666666665 3385 1012 L 3840 1012 C 3846.6666666666665 1012.1666666666665 3850 1012.1666666666665 3850 1012 L 3850 1012 C 3850 1012 3853.333333333333 1012 3860 1012 L 4100 1012" marker-end="url(#v-2-671199615)"></path><g id="v-162" ><g id="v-163"  label-idx="0" cursor="move" transform="matrix(1,0,0,1,3738.090576171875,1012)" style="cursor: default;"><rect joint-selector="rect" id="v-166" fill="#ffffff" rx="3" ry="3" x="-51.77091598510742" y="-13.271956443786621" width="102.95086669921875" height="22.406347274780273" pointer-events="none"  style="display: block;"></rect><text joint-selector="text" id="v-165" font-size="18px" xml:space="preserve" fill="#64748b" text-anchor="middle" pointer-events="none" font-family="Tahoma, Verdana, Helvetica, Arial" font-weight="normal"  style="display: block;"><tspan dy="0.3em" >Aplica reglas</tspan></text></g><g id="v-164"  label-idx="1" cursor="move" transform="matrix(1,0,0,1,3728.090576171875,1021)" style="cursor: default;"><rect joint-selector="rect" id="v-168" fill="#ffffff" rx="3" ry="3" x="-4.547473508864641e-13" y="0" width="0" height="0"  display="none"></rect><text joint-selector="text" id="v-167" fill="#000000" font-size="14" text-anchor="middle" text-vertical-anchor="middle" pointer-events="none"></text></g></g></g><!--z-index:40--><g   id="j_18"  style="opacity: 1;"><path fill="none" cursor="pointer" stroke="transparent" stroke-linecap="round" joint-selector="wrapper" id="v-182" stroke-width="10" stroke-linejoin="round" d="M 3375 1339 L 3375 1442 C 3375 1448.3333333333333 3378.333333333333 1451.6666666666665 3385 1452 L 3840 1452 C 3846.6666666666665 1451.6666666666665 3850 1455 3850 1462 L 3850 1527 C 3850 1533.3333333333333 3853.333333333333 1536.6666666666665 3860 1537 L 4100 1536.5"></path><path fill="none" pointer-events="none" joint-selector="line" id="v-181" stroke="#64748b" stroke-width="2" stroke-linejoin="round" stroke-dasharray="8 8" d="M 3375 1339 L 3375 1442 C 3375 1448.3333333333333 3378.333333333333 1451.6666666666665 3385 1452 L 3840 1452 C 3846.6666666666665 1451.6666666666665 3850 1455 3850 1462 L 3850 1527 C 3850 1533.3333333333333 3853.333333333333 1536.6666666666665 3860 1537 L 4100 1536.5" marker-end="url(#v-2-671199615)"></path><g id="v-174" ><g id="v-175"  label-idx="0" cursor="move" transform="matrix(1,0,0,1,3748.384765625,1452)" style="cursor: default;"><rect joint-selector="rect" id="v-178" fill="#ffffff" rx="3" ry="3" x="-85.92017364501953" y="-13.271956443786621" width="173.11782836914062" height="22.406347274780273" pointer-events="none"  style="display: block;"></rect><text joint-selector="text" id="v-177" font-size="18px" xml:space="preserve" fill="#64748b" text-anchor="middle" pointer-events="none" font-family="Tahoma, Verdana, Helvetica, Arial" font-weight="normal"  style="display: block;"><tspan dy="0.3em" >Requiere capacidades</tspan></text></g><g id="v-176"  label-idx="1" cursor="move" transform="matrix(1,0,0,1,3738.384765625,1461)" style="cursor: default;"><rect joint-selector="rect" id="v-180" fill="#ffffff" rx="3" ry="3" x="0" y="-2.2737367544323206e-13" width="0" height="0"  display="none"></rect><text joint-selector="text" id="v-179" fill="#000000" font-size="14" text-anchor="middle" text-vertical-anchor="middle" pointer-events="none"></text></g></g></g><!--z-index:41--><g   id="j_19"  style="opacity: 1;"><path fill="none" cursor="pointer" stroke="transparent" stroke-linecap="round" joint-selector="wrapper" id="v-191" stroke-width="10" stroke-linejoin="round" d="M 3375 1877 L 3375 1775 C 3375 1768.333333333333 3378.333333333333 1764.9999999999998 3385 1765 L 3840 1765 C 3846.6666666666665 1764.9999999999998 3853.333333333333 1764.9999999999998 3860 1765 L 4315 1765 C 4321.666666666666 1764.9999999999998 4325 1761.6666666666665 4325 1755 L 4325 1731" style="stroke-width: 10px;"></path><path fill="none" pointer-events="none" joint-selector="line" id="v-190" stroke="#64748b" stroke-width="2" stroke-linejoin="round" stroke-dasharray="8 8" d="M 3375 1877 L 3375 1775 C 3375 1768.333333333333 3378.333333333333 1764.9999999999998 3385 1765 L 3840 1765 C 3846.6666666666665 1764.9999999999998 3853.333333333333 1764.9999999999998 3860 1765 L 4315 1765 C 4321.666666666666 1764.9999999999998 4325 1761.6666666666665 4325 1755 L 4325 1731" marker-end="url(#v-2-671199615)"></path><g id="v-183" ><g id="v-184"  label-idx="0" cursor="move" transform="matrix(1,0,0,1,3818.93359375,1765)" style="cursor: default;"><rect joint-selector="rect" id="v-187" fill="#ffffff" rx="3" ry="3" x="-52.71910095214844" y="-13.271956443786621" width="106.58069610595703" height="22.406347274780273" pointer-events="none"  style="display: block;"></rect><text joint-selector="text" id="v-186" font-size="18px" xml:space="preserve" fill="#64748b" text-anchor="middle" pointer-events="none" font-family="Tahoma, Verdana, Helvetica, Arial" font-weight="normal"  style="display: block;"><tspan dy="0.3em" >Implementan</tspan></text></g><g id="v-185"  label-idx="1" cursor="move" transform="matrix(1,0,0,1,3808.93359375,1774)" style="cursor: default;"><rect joint-selector="rect" id="v-189" fill="#ffffff" rx="3" ry="3" x="0" y="0" width="0" height="0"  display="none"></rect><text joint-selector="text" id="v-188" fill="#000000" font-size="14" text-anchor="middle" text-vertical-anchor="middle" pointer-events="none"></text></g></g></g><!--z-index:42--><g   id="j_20"  style="opacity: 1;"><path fill="none" cursor="pointer" stroke="transparent" stroke-linecap="round" joint-selector="wrapper" id="v-203" stroke-width="10" stroke-linejoin="round" d="M 3600 2027 L 3840 2027 C 3846.6666666666665 2027 3850 2030.3333333333333 3850 2037 L 3850 2051 C 3850 2057.833333333333 3850 2064.5 3850 2071 L 3850 2221 C 3850 2227.6666666666665 3853.333333333333 2231 3860 2231 L 4315 2231 C 4321.666666666666 2231 4325 2227.6666666666665 4325 2221 L 4325 2211" style="stroke-width: 10px;"></path><path fill="none" pointer-events="none" joint-selector="line" id="v-202" stroke="#64748b" stroke-width="2" stroke-linejoin="round" stroke-dasharray="8 8" d="M 3600 2027 L 3840 2027 C 3846.6666666666665 2027 3850 2030.3333333333333 3850 2037 L 3850 2051 C 3850 2057.833333333333 3850 2064.5 3850 2071 L 3850 2221 C 3850 2227.6666666666665 3853.333333333333 2231 3860 2231 L 4315 2231 C 4321.666666666666 2231 4325 2227.6666666666665 4325 2221 L 4325 2211" marker-end="url(#v-2-671199615)"></path><g id="v-195" ><g id="v-196"  label-idx="0" cursor="move" transform="matrix(1,0,0,1,3872.983642578125,2231)" style="cursor: default;"><rect joint-selector="rect" id="v-199" fill="#ffffff" rx="3" ry="3" x="-62.02590560913086" y="-13.271956443786621" width="125.19567108154297" height="22.406347274780273" pointer-events="none"  style="display: block;"></rect><text joint-selector="text" id="v-198" font-size="18px" xml:space="preserve" fill="#64748b" text-anchor="middle" pointer-events="none" font-family="Tahoma, Verdana, Helvetica, Arial" font-weight="normal"  style="display: block;"><tspan dy="0.3em" >Leen y escriben</tspan></text></g><g id="v-197"  label-idx="1" cursor="move" transform="matrix(1,0,0,1,3862.983642578125,2240)" style="cursor: default;"><rect joint-selector="rect" id="v-201" fill="#ffffff" rx="3" ry="3" x="-4.547473508864641e-13" y="0" width="0" height="0"  display="none"></rect><text joint-selector="text" id="v-200" fill="#000000" font-size="14" text-anchor="middle" text-vertical-anchor="middle" pointer-events="none"></text></g></g></g><!--z-index:43--><g   id="j_21"  style="opacity: 1;"><path fill="none" cursor="pointer" stroke="transparent" stroke-linecap="round" joint-selector="wrapper" id="v-212" stroke-width="10" stroke-linejoin="round" d="M 525 1768 L 525 1472 C 525 1465 528.3333333333333 1461.6666666666665 535 1462 L 990 1462 C 996.6666666666666 1461.6666666666665 1003.3333333333333 1461.6666666666665 1010 1462 L 1465 1462 C 1471.6666666666665 1461.6666666666665 1475 1458.3333333333333 1475 1452 L 1475 1184" style="stroke-width: 10px;"></path><path fill="none" pointer-events="none" joint-selector="line" id="v-211" stroke="#64748b" stroke-width="2" stroke-linejoin="round" stroke-dasharray="8 8" d="M 525 1768 L 525 1472 C 525 1465 528.3333333333333 1461.6666666666665 535 1462 L 990 1462 C 996.6666666666666 1461.6666666666665 1003.3333333333333 1461.6666666666665 1010 1462 L 1465 1462 C 1471.6666666666665 1461.6666666666665 1475 1458.3333333333333 1475 1452 L 1475 1184" marker-end="url(#v-2-671199615)"></path><g id="v-204" ><g id="v-205"  label-idx="0" cursor="move" transform="matrix(1,0,0,1,1010.7417602539062,1462)" style="cursor: default;"><rect joint-selector="rect" id="v-208" fill="#ffffff" rx="3" ry="3" x="-38.04410934448242" y="-13.271956443786621" width="76.08821868896484" height="22.406347274780273" pointer-events="none"  style="display: block;"></rect><text joint-selector="text" id="v-207" font-size="18px" xml:space="preserve" fill="#64748b" text-anchor="middle" pointer-events="none" font-family="Tahoma, Verdana, Helvetica, Arial" font-weight="normal"  style="display: block;"><tspan dy="0.3em" >Configura</tspan></text></g><g id="v-206"  label-idx="1" cursor="move" transform="matrix(1,0,0,1,1000.7417602539062,1471)" style="cursor: default;"><rect joint-selector="rect" id="v-210" fill="#ffffff" rx="3" ry="3" x="-1.1368683772161603e-13" y="0" width="0" height="0"  display="none"></rect><text joint-selector="text" id="v-209" fill="#000000" font-size="14" text-anchor="middle" text-vertical-anchor="middle" pointer-events="none"></text></g></g></g><!--z-index:44--><g   id="j_22"  style="opacity: 1;"><path fill="none" cursor="pointer" stroke="transparent" stroke-linecap="round" joint-selector="wrapper" id="v-221" stroke-width="10" stroke-linejoin="round" d="M 525 1768 L 525 1656 C 525 1649.1666666666665 528.3333333333333 1645.833333333333 535 1646 L 990 1646 C 996.6666666666666 1645.833333333333 1003.3333333333333 1645.833333333333 1010 1646 L 2890 1646 C 2896.6666666666665 1645.833333333333 2903.333333333333 1645.833333333333 2910 1646 L 3365 1646 C 3371.6666666666665 1645.833333333333 3375 1642.4999999999998 3375 1636 L 3375 1339"></path><path fill="none" pointer-events="none" joint-selector="line" id="v-220" stroke="#64748b" stroke-width="2" stroke-linejoin="round" stroke-dasharray="8 8" d="M 525 1768 L 525 1656 C 525 1649.1666666666665 528.3333333333333 1645.833333333333 535 1646 L 990 1646 C 996.6666666666666 1645.833333333333 1003.3333333333333 1645.833333333333 1010 1646 L 2890 1646 C 2896.6666666666665 1645.833333333333 2903.333333333333 1645.833333333333 2910 1646 L 3365 1646 C 3371.6666666666665 1645.833333333333 3375 1642.4999999999998 3375 1636 L 3375 1339" marker-end="url(#v-2-671199615)"></path><g id="v-213" ><g id="v-214"  label-idx="0" cursor="move" transform="matrix(1,0,0,1,1946.534423828125,1646)" style="cursor: default;"><rect joint-selector="rect" id="v-217" fill="#ffffff" rx="3" ry="3" x="-39.7508430480957" y="-13.271956443786621" width="81.22460174560547" height="22.406347274780273" pointer-events="none"  style="display: block;"></rect><text joint-selector="text" id="v-216" font-size="18px" xml:space="preserve" fill="#64748b" text-anchor="middle" pointer-events="none" font-family="Tahoma, Verdana, Helvetica, Arial" font-weight="normal"  style="display: block;"><tspan dy="0.3em" >Construye</tspan></text></g><g id="v-215"  label-idx="1" cursor="move" transform="matrix(1,0,0,1,1936.534423828125,1655)" style="cursor: default;"><rect joint-selector="rect" id="v-219" fill="#ffffff" rx="3" ry="3" x="-2.2737367544323206e-13" y="0" width="0" height="0"  display="none"></rect><text joint-selector="text" id="v-218" fill="#000000" font-size="14" text-anchor="middle" text-vertical-anchor="middle" pointer-events="none"></text></g></g></g><!--z-index:45--><g   id="j_23"  style="opacity: 1;"><path fill="none" cursor="pointer" stroke="transparent" stroke-linecap="round" joint-selector="wrapper" id="v-230" stroke-width="10" stroke-linejoin="round" d="M 750 1918 L 990 1918 C 996.6666666666666 1917.9999999999998 1000 1921.333333333333 1000 1928 L 1000 2017 C 1000 2023.8333333333333 1000 2030.5 1000 2037 L 1000 2187 C 1000 2193.6666666666665 1003.3333333333333 2197 1010 2197 L 3365 2197 C 3371.6666666666665 2197 3375 2193.6666666666665 3375 2187 L 3375 2177" style="stroke-width: 10px;"></path><path fill="none" pointer-events="none" joint-selector="line" id="v-229" stroke="#64748b" stroke-width="2" stroke-linejoin="round" stroke-dasharray="8 8" d="M 750 1918 L 990 1918 C 996.6666666666666 1917.9999999999998 1000 1921.333333333333 1000 1928 L 1000 2017 C 1000 2023.8333333333333 1000 2030.5 1000 2037 L 1000 2187 C 1000 2193.6666666666665 1003.3333333333333 2197 1010 2197 L 3365 2197 C 3371.6666666666665 2197 3375 2193.6666666666665 3375 2187 L 3375 2177" marker-end="url(#v-2-671199615)"></path><g id="v-222" ><g id="v-223"  label-idx="0" cursor="move" transform="matrix(1,0,0,1,1938.834716796875,2197)" style="cursor: default;"><rect joint-selector="rect" id="v-226" fill="#ffffff" rx="3" ry="3" x="-41.530513763427734" y="-13.271956443786621" width="83.06102752685547" height="22.406347274780273" pointer-events="none"  style="display: block;"></rect><text joint-selector="text" id="v-225" font-size="18px" xml:space="preserve" fill="#64748b" text-anchor="middle" pointer-events="none" font-family="Tahoma, Verdana, Helvetica, Arial" font-weight="normal"  style="display: block;"><tspan dy="0.3em" >Selecciona</tspan></text></g><g id="v-224"  label-idx="1" cursor="move" transform="matrix(1,0,0,1,1928.834716796875,2206)" style="cursor: default;"><rect joint-selector="rect" id="v-228" fill="#ffffff" rx="3" ry="3" x="0" y="0" width="0" height="0"  display="none"></rect><text joint-selector="text" id="v-227" fill="#000000" font-size="14" text-anchor="middle" text-vertical-anchor="middle" pointer-events="none"></text></g></g></g><!--z-index:46--></g><g  style="user-select: none;"></g><g ></g><g  display="none"></g></g></svg>