<svg xmlns="http://www.w3.org/2000/svg" xmlns:xlink="http://www.w3.org/1999/xlink" version="1.1" style="background: #ffffff" viewBox="0 0 5450 1330"><style id="v-3" type="text/css">        .joint-element .scalable * {            vector-effect: non-scaling-stroke;        }    </style><defs joint-selector="defs"><marker id="v-2-671199615" orient="auto" overflow="visible" markerUnits="userSpaceOnUse"><path id="v-114" stroke="#64748b" fill="#64748b" transform="rotate(180)" d="M 20 -10 0 0 20 10 Z"></path></marker></defs><g joint-selector="layers"  transform="matrix(1,0,0,1,0,0)"><g  style="pointer-events: none;"></g><g ></g><g  style="user-select: none;"><!--z-index:0--><!--z-index:1--><!--z-index:2--><!--z-index:3--><!--z-index:4--><!--z-index:5--><!--z-index:6--><!--z-index:7--><!--z-index:8--><!--z-index:9--><!--z-index:10--><!--z-index:11--><!--z-index:12--><!--z-index:13--><!--z-index:14--><!--z-index:15--><!--z-index:16--><g   id="j_3"  transform="translate(20,1286)"><g id="v-8"><text  id="v-9" font-size="24px" xml:space="preserve" y="0.8em" font-weight="normal" text-anchor="start" fill="#444444" pointer-events="none" display="block" font-family="Tahoma, Verdana, Helvetica, Arial"><tspan dy="0"  display="block">lunes, 13 de julio de 2026, 0:10 hora estándar de Chile</tspan></text></g></g><!--z-index:17--><g   id="j_2"  transform="translate(20,1252)"><g id="v-6"><text  id="v-7" font-size="24px" xml:space="preserve" y="0.8em" font-weight="normal" text-anchor="start" fill="#444444" pointer-events="none" display="block" font-family="Tahoma, Verdana, Helvetica, Arial"><tspan dy="0"  display="block">Flujo desde el repositorio hasta la ejecución local del sitio estático. Los datos personales no se publican en GitHub Pages.</tspan></text></g></g><!--z-index:18--><g   id="j_1"  transform="translate(20,1206)"><g id="v-4"><text  id="v-5" font-size="36px" xml:space="preserve" y="0.8em" font-weight="normal" text-anchor="start" fill="#444444" pointer-events="none" display="block" font-family="Tahoma, Verdana, Helvetica, Arial"><tspan dy="0"  display="block">HereToPlan — Deploy en Github Pages</tspan></text></g></g><!--z-index:19--><g   id="j_4"  transform="translate(200,142)" style=""><g  id="v-13" style="opacity: 1;"><rect  x="0" y="160" width="400" height="240" rx="70" id="v-15" stroke-width="2" pointer-events="visiblePainted" fill="#334155" stroke="#1e293b" stroke-dasharray="" style="fill: rgb(51, 65, 85); stroke: rgb(30, 41, 59);"></rect><circle  cx="200" cy="88.88888888888889" r="88.88888888888889" id="v-14" stroke-width="2" pointer-events="visiblePainted" fill="#334155" stroke="#1e293b" stroke-dasharray="" style="fill: rgb(51, 65, 85); stroke: rgb(30, 41, 59);"></circle><line  x1="80" y1="266.6666666666667" x2="80" y2="400" id="v-21" stroke="#1e293b" stroke-width="1" stroke-dasharray="" style="stroke: rgb(30, 41, 59);"></line><line  x1="320" y1="266.6666666666667" x2="320" y2="400" id="v-22" stroke="#1e293b" stroke-width="1" stroke-dasharray="" style="stroke: rgb(30, 41, 59);"></line><text  id="v-16" font-size="30.799999999999997px" xml:space="preserve" y="221.2" font-weight="bold" text-anchor="middle" pointer-events="visible" font-family="Tahoma, Verdana, Helvetica, Arial" fill="#ffffff" dominant-baseline="hanging" transform="matrix(1,0,0,1,200,0)" style="fill: rgb(255, 255, 255);"><tspan dy="0" >Desarrollador</tspan></text><text  id="v-17" font-size="15.399999999999999px" xml:space="preserve" y="260" text-anchor="middle" font-family="Tahoma, Verdana, Helvetica, Arial" fill="#ffffff" dominant-baseline="hanging" transform="matrix(1,0,0,1,200,0)" style="display: block; fill: rgb(255, 255, 255);"><tspan dy="0" >[Person]</tspan></text><text  id="v-18" font-size="22px" xml:space="preserve" y="290.4" text-anchor="middle" font-family="Tahoma, Verdana, Helvetica, Arial" fill="#ffffff" dominant-baseline="hanging" transform="matrix(1,0,0,1,200,0)" style="display: block; fill: rgb(255, 255, 255);"><tspan dy="0" >Publica cambios en la rama</tspan><tspan dy="1.2em" x="0" >principal.</tspan></text><g  id="v-19" font-weight="normal" text-anchor="middle" color="#ffffff" transform="matrix(1,0,0,1,197.5,368)" style="fill: rgb(255, 255, 255);" display="none"><g ></g><g ></g><g ></g><g ></g></g><image  id="v-20"></image></g></g><!--z-index:20--><g   id="j_5"  transform="translate(2035,672)" style=""><g  id="v-26" style="opacity: 1;"><rect  x="0" y="160" width="400" height="240" rx="70" id="v-28" stroke-width="2" pointer-events="visiblePainted" fill="#334155" stroke="#1e293b" stroke-dasharray="" style="fill: rgb(51, 65, 85); stroke: rgb(30, 41, 59);"></rect><circle  cx="200" cy="88.88888888888889" r="88.88888888888889" id="v-27" stroke-width="2" pointer-events="visiblePainted" fill="#334155" stroke="#1e293b" stroke-dasharray="" style="fill: rgb(51, 65, 85); stroke: rgb(30, 41, 59);"></circle><line  x1="80" y1="266.6666666666667" x2="80" y2="400" id="v-34" stroke="#1e293b" stroke-width="1" stroke-dasharray="" style="stroke: rgb(30, 41, 59);"></line><line  x1="320" y1="266.6666666666667" x2="320" y2="400" id="v-35" stroke="#1e293b" stroke-width="1" stroke-dasharray="" style="stroke: rgb(30, 41, 59);"></line><text  id="v-29" font-size="30.799999999999997px" xml:space="preserve" y="221.2" font-weight="bold" text-anchor="middle" pointer-events="visible" font-family="Tahoma, Verdana, Helvetica, Arial" fill="#ffffff" dominant-baseline="hanging" transform="matrix(1,0,0,1,200,0)" style="fill: rgb(255, 255, 255);"><tspan dy="0" >Usuario</tspan></text><text  id="v-30" font-size="15.399999999999999px" xml:space="preserve" y="260" text-anchor="middle" font-family="Tahoma, Verdana, Helvetica, Arial" fill="#ffffff" dominant-baseline="hanging" transform="matrix(1,0,0,1,200,0)" style="display: block; fill: rgb(255, 255, 255);"><tspan dy="0" >[Person]</tspan></text><text  id="v-31" font-size="22px" xml:space="preserve" y="290.4" text-anchor="middle" font-family="Tahoma, Verdana, Helvetica, Arial" fill="#ffffff" dominant-baseline="hanging" transform="matrix(1,0,0,1,200,0)" style="display: block; fill: rgb(255, 255, 255);"><tspan dy="0" >Accede a la aplicación desde la</tspan><tspan dy="1.2em" x="0" >URL pública.</tspan></text><g  id="v-32" font-weight="normal" text-anchor="middle" color="#ffffff" transform="matrix(1,0,0,1,197.5,368)" style="fill: rgb(255, 255, 255);" display="none"><g ></g><g ></g><g ></g><g ></g></g><image  id="v-33"></image></g></g><!--z-index:21--><g   id="j_6"  transform="translate(1080,192)" style=""><g  id="v-42" style="opacity: 1;"><rect  id="v-43" rx="20" ry="20" stroke-width="2" pointer-events="visiblePainted" fill="#24292f" stroke="#0d1117" stroke-dasharray="" width="450" height="300" style="fill: rgb(36, 41, 47); stroke: rgb(13, 17, 23);"></rect><text  id="v-44" font-size="30.799999999999997px" xml:space="preserve" y="91.2" font-weight="bold" text-anchor="middle" pointer-events="visible" font-family="Tahoma, Verdana, Helvetica, Arial" fill="#ffffff" dominant-baseline="hanging" transform="matrix(1,0,0,1,225,0)" style="fill: rgb(255, 255, 255);"><tspan dy="0" >Repositorio GitHub</tspan></text><text  id="v-45" font-size="15.399999999999999px" xml:space="preserve" y="130" text-anchor="middle" font-family="Tahoma, Verdana, Helvetica, Arial" fill="#ffffff" dominant-baseline="hanging" transform="matrix(1,0,0,1,225,0)" style="display: block; fill: rgb(255, 255, 255);"><tspan dy="0" >[Software System]</tspan></text><text  id="v-46" font-size="22px" xml:space="preserve" y="160.39999999999998" text-anchor="middle" font-family="Tahoma, Verdana, Helvetica, Arial" fill="#ffffff" dominant-baseline="hanging" transform="matrix(1,0,0,1,225,0)" style="display: block; fill: rgb(255, 255, 255);"><tspan dy="0" >Conserva el código fuente y la</tspan><tspan dy="1.2em" x="0" >configuración del workflow.</tspan></text><g  id="v-47" color="#ffffff" transform="matrix(1,0,0,1,222.5,268)" style="fill: rgb(255, 255, 255);" display="none"><g ></g><g ></g><g ></g><g ></g></g><image  id="v-48"></image></g></g><!--z-index:22--><g   id="j_7"  transform="translate(2010,192)" style=""><g  id="v-52" style="opacity: 1;"><rect  id="v-53" rx="20" ry="20" stroke-width="2" pointer-events="visiblePainted" fill="#24292f" stroke="#0d1117" stroke-dasharray="" width="450" height="300" style="fill: rgb(36, 41, 47); stroke: rgb(13, 17, 23);"></rect><text  id="v-54" font-size="30.799999999999997px" xml:space="preserve" y="91.2" font-weight="bold" text-anchor="middle" pointer-events="visible" font-family="Tahoma, Verdana, Helvetica, Arial" fill="#ffffff" dominant-baseline="hanging" transform="matrix(1,0,0,1,225,0)" style="fill: rgb(255, 255, 255);"><tspan dy="0" >GitHub Actions</tspan></text><text  id="v-55" font-size="15.399999999999999px" xml:space="preserve" y="130" text-anchor="middle" font-family="Tahoma, Verdana, Helvetica, Arial" fill="#ffffff" dominant-baseline="hanging" transform="matrix(1,0,0,1,225,0)" style="display: block; fill: rgb(255, 255, 255);"><tspan dy="0" >[Software System]</tspan></text><text  id="v-56" font-size="22px" xml:space="preserve" y="160.39999999999998" text-anchor="middle" font-family="Tahoma, Verdana, Helvetica, Arial" fill="#ffffff" dominant-baseline="hanging" transform="matrix(1,0,0,1,225,0)" style="display: block; fill: rgb(255, 255, 255);"><tspan dy="0" >Instala dependencias, ejecuta pruebas,</tspan><tspan dy="1.2em" x="0" >construye y publica el sitio.</tspan></text><g  id="v-57" color="#ffffff" transform="matrix(1,0,0,1,222.5,268)" style="fill: rgb(255, 255, 255);" display="none"><g ></g><g ></g><g ></g><g ></g></g><image  id="v-58"></image></g></g><!--z-index:23--><g   id="j_8"  transform="translate(2940,457)" style=""><g  id="v-62" style="opacity: 1;"><rect  id="v-63" rx="20" ry="20" stroke-width="2" pointer-events="visiblePainted" fill="#24292f" stroke="#0d1117" stroke-dasharray="" width="450" height="300" style="fill: rgb(36, 41, 47); stroke: rgb(13, 17, 23);"></rect><text  id="v-64" font-size="30.799999999999997px" xml:space="preserve" y="91.2" font-weight="bold" text-anchor="middle" pointer-events="visible" font-family="Tahoma, Verdana, Helvetica, Arial" fill="#ffffff" dominant-baseline="hanging" transform="matrix(1,0,0,1,225,0)" style="fill: rgb(255, 255, 255);"><tspan dy="0" >GitHub Pages</tspan></text><text  id="v-65" font-size="15.399999999999999px" xml:space="preserve" y="130" text-anchor="middle" font-family="Tahoma, Verdana, Helvetica, Arial" fill="#ffffff" dominant-baseline="hanging" transform="matrix(1,0,0,1,225,0)" style="display: block; fill: rgb(255, 255, 255);"><tspan dy="0" >[Software System]</tspan></text><text  id="v-66" font-size="22px" xml:space="preserve" y="160.39999999999998" text-anchor="middle" font-family="Tahoma, Verdana, Helvetica, Arial" fill="#ffffff" dominant-baseline="hanging" transform="matrix(1,0,0,1,225,0)" style="display: block; fill: rgb(255, 255, 255);"><tspan dy="0" >Aloja y distribuye los artefactos</tspan><tspan dy="1.2em" x="0" >estáticos de producción.</tspan></text><g  id="v-67" color="#ffffff" transform="matrix(1,0,0,1,222.5,268)" style="fill: rgb(255, 255, 255);" display="none"><g ></g><g ></g><g ></g><g ></g></g><image  id="v-68"></image></g></g><!--z-index:24--><g   id="j_9"  transform="translate(3870,457)" style=""><g  id="v-75" style="opacity: 1;"><rect  id="v-76" rx="10" ry="10" stroke-width="2" pointer-events="visiblePainted" fill="#2563eb" stroke="#2563eb" stroke-dasharray="" width="450" height="302" style="fill: rgb(37, 99, 235); stroke: rgb(37, 99, 235);"></rect><rect  id="v-77" rx="10" ry="10" stroke-width="0" pointer-events="visiblePainted" fill="#dbeafe" stroke="#2563eb" width="446" height="260" x="2" y="40" style="fill: rgb(219, 234, 254);"></rect><ellipse  id="v-84" fill="#dbeafe" cx="20" cy="20" rx="10" ry="10" style="fill: rgb(219, 234, 254);"></ellipse><ellipse  id="v-85" fill="#dbeafe" cx="50" cy="20" rx="10" ry="10" style="fill: rgb(219, 234, 254);"></ellipse><ellipse  id="v-86" fill="#dbeafe" cx="80" cy="20" rx="10" ry="10" style="fill: rgb(219, 234, 254);"></ellipse><rect  id="v-78" rx="10" ry="10" stroke-width="0" pointer-events="visiblePainted" fill="#dbeafe" width="340" height="20" x="100" y="10" style="fill: rgb(219, 234, 254);"></rect><text  id="v-79" font-size="30.799999999999997px" xml:space="preserve" y="111.2" font-weight="bold" text-anchor="middle" pointer-events="visible" font-family="Tahoma, Verdana, Helvetica, Arial" fill="#1e3a8a" dominant-baseline="hanging" transform="matrix(1,0,0,1,225,0)" style="fill: rgb(30, 58, 138);"><tspan dy="0" >Navegador del usuario</tspan></text><text  id="v-80" font-size="15.399999999999999px" xml:space="preserve" y="150" text-anchor="middle" font-family="Tahoma, Verdana, Helvetica, Arial" fill="#1e3a8a" dominant-baseline="hanging" transform="matrix(1,0,0,1,225,0)" style="display: block; fill: rgb(30, 58, 138);"><tspan dy="0" >[Software System]</tspan></text><text  id="v-81" font-size="22px" xml:space="preserve" y="180.39999999999998" text-anchor="middle" font-family="Tahoma, Verdana, Helvetica, Arial" fill="#1e3a8a" dominant-baseline="hanging" transform="matrix(1,0,0,1,225,0)" style="display: block; fill: rgb(30, 58, 138);"><tspan dy="0" >Descarga y ejecuta HereToPlan en el</tspan><tspan dy="1.2em" x="0" >dispositivo del usuario.</tspan></text><g  id="v-82" font-weight="normal" text-anchor="middle" color="#1e3a8a" transform="matrix(1,0,0,1,222.5,268)" style="fill: rgb(30, 58, 138);" display="none"><g ></g><g ></g><g ></g><g ></g></g><image  id="v-83"></image></g></g><!--z-index:25--><g   id="j_10"  transform="translate(4800,457)" style=""><g  id="v-93" style="opacity: 1;"><path  d="M 0,30 a 225,30 0,0,0 450 0 a 225,30 0,0,0 -450 0 l 0,240 a 225,30 0,0,0 450 0 l 0,-240" id="v-94" stroke-width="2" pointer-events="visiblePainted" fill="#dcfce7" stroke="#16a34a" stroke-dasharray="" style="fill: rgb(220, 252, 231); stroke: rgb(22, 163, 74);"></path><rect  id="v-95" stroke-width="0" pointer-events="visiblePainted" fill="none" stroke="none" width="450" height="270" x="0" y="30"></rect><text  id="v-96" font-size="30.799999999999997px" xml:space="preserve" y="93" font-weight="bold" text-anchor="middle" pointer-events="visible" font-family="Tahoma, Verdana, Helvetica, Arial" fill="#14532d" dominant-baseline="hanging" transform="matrix(1,0,0,1,225,0)" style="fill: rgb(20, 83, 45);"><tspan dy="0" >Almacenamiento local</tspan></text><text  id="v-97" font-size="15.399999999999999px" xml:space="preserve" y="131.8" text-anchor="middle" font-family="Tahoma, Verdana, Helvetica, Arial" fill="#14532d" dominant-baseline="hanging" transform="matrix(1,0,0,1,225,0)" style="display: block; fill: rgb(20, 83, 45);"><tspan dy="0" >[Software System]</tspan></text><text  id="v-98" font-size="22px" xml:space="preserve" y="162.2" text-anchor="middle" font-family="Tahoma, Verdana, Helvetica, Arial" fill="#14532d" dominant-baseline="hanging" transform="matrix(1,0,0,1,225,0)" style="display: block; fill: rgb(20, 83, 45);"><tspan dy="0" >Conserva los datos privados de</tspan><tspan dy="1.2em" x="0" >HereToPlan únicamente en el</tspan><tspan dy="1.2em" x="0" >dispositivo.</tspan></text><g  id="v-99" font-weight="normal" text-anchor="middle" color="#14532d" transform="matrix(1,0,0,1,222.5,268)" style="fill: rgb(20, 83, 45);" display="none"><g ></g><g ></g><g ></g><g ></g></g><image  id="v-100"></image></g></g><!--z-index:26--><g   id="j_11"  style="opacity: 1;"><path fill="none" cursor="pointer" stroke="transparent" stroke-linecap="round" joint-selector="wrapper" id="v-112" stroke-width="10" stroke-linejoin="round" d="M 2010 342 L 1780 342 C 1773.3333333333333 342 1770 345.3333333333333 1770 352 L 1770 372 C 1770 378.4333333333333 1770 385.09999999999997 1770 392 L 1770 502 C 1770 508.66666666666663 1766.6666666666665 512 1760 512 L 1315 512 C 1308.3333333333333 512 1305 508.66666666666663 1305 502 L 1305 492"></path><path fill="none" pointer-events="none" joint-selector="line" id="v-111" stroke="#64748b" stroke-width="2" stroke-linejoin="round" stroke-dasharray="8 8" d="M 2010 342 L 1780 342 C 1773.3333333333333 342 1770 345.3333333333333 1770 352 L 1770 372 C 1770 378.4333333333333 1770 385.09999999999997 1770 392 L 1770 502 C 1770 508.66666666666663 1766.6666666666665 512 1760 512 L 1315 512 C 1308.3333333333333 512 1305 508.66666666666663 1305 502 L 1305 492" marker-end="url(#v-2-671199615)"></path><g id="v-104" ><g id="v-105"  label-idx="0" cursor="move" transform="matrix(1,0,0,1,1730.6153564453125,512)" style="cursor: default;"><rect joint-selector="rect" id="v-108" fill="#ffffff" rx="3" ry="3" x="-97.37133026123047" y="-13.271956443786621" width="196.456298828125" height="22.406347274780273" pointer-events="none"  style="display: block;"></rect><text joint-selector="text" id="v-107" font-size="18px" xml:space="preserve" fill="#64748b" text-anchor="middle" pointer-events="none" font-family="Tahoma, Verdana, Helvetica, Arial" font-weight="normal"  style="display: block;"><tspan dy="0.3em" >Obtiene el código fuente</tspan></text></g><g id="v-106"  label-idx="1" cursor="move" transform="matrix(1,0,0,1,1720.6153564453125,521)" style="cursor: default;"><rect joint-selector="rect" id="v-110" fill="#ffffff" rx="3" ry="3" x="0" y="0" width="0" height="0"  display="none"></rect><text joint-selector="text" id="v-109" fill="#000000" font-size="14" text-anchor="middle" text-vertical-anchor="middle" pointer-events="none"></text></g></g></g><!--z-index:27--><g   id="j_12"  style="opacity: 1;"><path fill="none" cursor="pointer" stroke="transparent" stroke-linecap="round" joint-selector="wrapper" id="v-126" stroke-width="10" stroke-linejoin="round" d="M 2460 342 L 2690 342 C 2696.6666666666665 342 2703.333333333333 342 2710 342 L 3155 342 C 3161.6666666666665 342 3165 345.3333333333333 3165 352 L 3165 457"></path><path fill="none" pointer-events="none" joint-selector="line" id="v-125" stroke="#64748b" stroke-width="2" stroke-linejoin="round" stroke-dasharray="8 8" d="M 2460 342 L 2690 342 C 2696.6666666666665 342 2703.333333333333 342 2710 342 L 3155 342 C 3161.6666666666665 342 3165 345.3333333333333 3165 352 L 3165 457" marker-end="url(#v-2-671199615)"></path><g id="v-115" ><g id="v-116"  label-idx="0" cursor="move" transform="matrix(1,0,0,1,2839.467529296875,330.70001220703125)" style="cursor: default;"><rect joint-selector="rect" id="v-120" fill="#ffffff" rx="3" ry="3" x="-48.26992416381836" y="-13.271956443786621" width="97.11588287353516" height="22.406347274780273" pointer-events="none"  style="display: block;"></rect><text joint-selector="text" id="v-119" font-size="18px" xml:space="preserve" fill="#64748b" text-anchor="middle" pointer-events="none" font-family="Tahoma, Verdana, Helvetica, Arial" font-weight="normal"  style="display: block;"><tspan dy="0.3em" >Publica dist/</tspan></text></g><g id="v-117"  label-idx="1" cursor="move" transform="matrix(1,0,0,1,2839.467529296875,356)" style="cursor: default;"><rect joint-selector="rect" id="v-122" fill="#ffffff" rx="3" ry="3" x="-53.28801345825195" y="-9.290369033813477" width="107.35588073730469" height="16.804759979248047"  pointer-events="none" style="display: block;"></rect><text joint-selector="text" id="v-121" font-size="12.6px" xml:space="preserve" fill="#64748b" text-anchor="middle" pointer-events="none" font-family="Tahoma, Verdana, Helvetica, Arial" font-weight="normal"  style="display: block;"><tspan dy="0.3em" >[Artefacto estático]</tspan></text></g><g id="v-118"  label-idx="2" cursor="move" transform="matrix(1,0,0,1,2858.115234375,362.29998779296875)" style="cursor: default;"><rect joint-selector="rect" id="v-124" fill="#ffffff" rx="3" ry="3" x="0" y="0" width="0" height="0"  display="none"></rect><text joint-selector="text" id="v-123" fill="#000000" font-size="14" text-anchor="middle" text-vertical-anchor="middle" pointer-events="none"></text></g></g></g><!--z-index:28--><g   id="j_13"  style="opacity: 1;"><path fill="none" cursor="pointer" stroke="transparent" stroke-linecap="round" joint-selector="wrapper" id="v-141" stroke-width="10" stroke-linejoin="round" d="M 2435 872 L 2690 872 C 2696.6666666666665 871.9999999999999 2703.333333333333 871.9999999999999 2710 872 L 3155 872 C 3161.6666666666665 871.9999999999999 3165 868.6666666666665 3165 862 L 3165 757" style="stroke-width: 10px;"></path><path fill="none" pointer-events="none" joint-selector="line" id="v-140" stroke="#64748b" stroke-width="2" stroke-linejoin="round" stroke-dasharray="8 8" d="M 2435 872 L 2690 872 C 2696.6666666666665 871.9999999999999 2703.333333333333 871.9999999999999 2710 872 L 3155 872 C 3161.6666666666665 871.9999999999999 3165 868.6666666666665 3165 862 L 3165 757" marker-end="url(#v-2-671199615)"></path><g id="v-130" ><g id="v-131"  label-idx="0" cursor="move" transform="matrix(1,0,0,1,2846.88232421875,860.7000122070312)" style="cursor: default;"><rect joint-selector="rect" id="v-135" fill="#ffffff" rx="3" ry="3" x="-79.22452545166016" y="-13.271956443786621" width="159.60427856445312" height="22.406347274780273" pointer-events="none"  style="display: block;"></rect><text joint-selector="text" id="v-134" font-size="18px" xml:space="preserve" fill="#64748b" text-anchor="middle" pointer-events="none" font-family="Tahoma, Verdana, Helvetica, Arial" font-weight="normal"  style="display: block;"><tspan dy="0.3em" >Solicita la aplicación</tspan></text></g><g id="v-132"  label-idx="1" cursor="move" transform="matrix(1,0,0,1,2846.88232421875,886)" style="cursor: default;"><rect joint-selector="rect" id="v-137" fill="#ffffff" rx="3" ry="3" x="-23.09195899963379" y="-9.290369033813477" width="46.951011657714844" height="16.804759979248047"  pointer-events="none" style="display: block;"></rect><text joint-selector="text" id="v-136" font-size="12.6px" xml:space="preserve" fill="#64748b" text-anchor="middle" pointer-events="none" font-family="Tahoma, Verdana, Helvetica, Arial" font-weight="normal"  style="display: block;"><tspan dy="0.3em" >[HTTPS]</tspan></text></g><g id="v-133"  label-idx="2" cursor="move" transform="matrix(1,0,0,1,2845.615234375,892.2999877929688)" style="cursor: default;"><rect joint-selector="rect" id="v-139" fill="#ffffff" rx="3" ry="3" x="0" y="0" width="0" height="0"  display="none"></rect><text joint-selector="text" id="v-138" fill="#000000" font-size="14" text-anchor="middle" text-vertical-anchor="middle" pointer-events="none"></text></g></g></g><!--z-index:29--><g   id="j_14"  style="opacity: 1;"><path fill="none" cursor="pointer" stroke="transparent" stroke-linecap="round" joint-selector="wrapper" id="v-156" stroke-width="10" stroke-linejoin="round" d="M 3390 607 L 3620 607 C 3626.6666666666665 607 3630 607.3333333333333 3630 608 L 3630 608 C 3630 608 3633.333333333333 608 3640 608 L 3870 608"></path><path fill="none" pointer-events="none" joint-selector="line" id="v-155" stroke="#64748b" stroke-width="2" stroke-linejoin="round" stroke-dasharray="8 8" d="M 3390 607 L 3620 607 C 3626.6666666666665 607 3630 607.3333333333333 3630 608 L 3630 608 C 3630 608 3633.333333333333 608 3640 608 L 3870 608" marker-end="url(#v-2-671199615)"></path><g id="v-145" ><g id="v-146"  label-idx="0" cursor="move" transform="matrix(1,0,0,1,3629.969970703125,596.5936279296875)" style="cursor: default;"><rect joint-selector="rect" id="v-150" fill="#ffffff" rx="3" ry="3" x="-84.44683837890625" y="-24.07195472717285" width="171.1090850830078" height="44.00634765625" pointer-events="none"  style="display: block;"></rect><text joint-selector="text" id="v-149" font-size="18px" xml:space="preserve" fill="#64748b" text-anchor="middle" pointer-events="none" font-family="Tahoma, Verdana, Helvetica, Arial" font-weight="normal"  style="display: block;"><tspan dy="-0.3em" >Entrega HTML, CSS y</tspan><tspan dy="1.2em" x="0" >JavaScript</tspan></text></g><g id="v-147"  label-idx="1" cursor="move" transform="matrix(1,0,0,1,3629.969970703125,632.693603515625)" style="cursor: default;"><rect joint-selector="rect" id="v-152" fill="#ffffff" rx="3" ry="3" x="-23.09195899963379" y="-9.290369033813477" width="46.951011657714844" height="16.804759979248047"  pointer-events="none" style="display: block;"></rect><text joint-selector="text" id="v-151" font-size="12.6px" xml:space="preserve" fill="#64748b" text-anchor="middle" pointer-events="none" font-family="Tahoma, Verdana, Helvetica, Arial" font-weight="normal"  style="display: block;"><tspan dy="0.3em" >[HTTPS]</tspan></text></g><g id="v-148"  label-idx="2" cursor="move" transform="matrix(1,0,0,1,3619.969970703125,638.9935913085938)" style="cursor: default;"><rect joint-selector="rect" id="v-154" fill="#ffffff" rx="3" ry="3" x="-4.547473508864641e-13" y="0" width="0" height="0"  display="none"></rect><text joint-selector="text" id="v-153" fill="#000000" font-size="14" text-anchor="middle" text-vertical-anchor="middle" pointer-events="none"></text></g></g></g><!--z-index:30--><g   id="j_15"  style="opacity: 1;"><path fill="none" cursor="pointer" stroke="transparent" stroke-linecap="round" joint-selector="wrapper" id="v-171" stroke-width="10" stroke-linejoin="round" d="M 4320 608 L 4550 608 C 4556.666666666666 608 4560 608 4560 608 L 4560 608 C 4560 607.3333333333333 4563.333333333333 607 4570 607 L 4800 607"></path><path fill="none" pointer-events="none" joint-selector="line" id="v-170" stroke="#64748b" stroke-width="2" stroke-linejoin="round" stroke-dasharray="8 8" d="M 4320 608 L 4550 608 C 4556.666666666666 608 4560 608 4560 608 L 4560 608 C 4560 607.3333333333333 4563.333333333333 607 4570 607 L 4800 607" marker-end="url(#v-2-671199615)"></path><g id="v-160" ><g id="v-161"  label-idx="0" cursor="move" transform="matrix(1,0,0,1,4560.02978515625,596.5936279296875)" style="cursor: default;"><rect joint-selector="rect" id="v-165" fill="#ffffff" rx="3" ry="3" x="-76.40914154052734" y="-13.271956443786621" width="154.10731506347656" height="22.406347274780273" pointer-events="none"  style="display: block;"></rect><text joint-selector="text" id="v-164" font-size="18px" xml:space="preserve" fill="#64748b" text-anchor="middle" pointer-events="none" font-family="Tahoma, Verdana, Helvetica, Arial" font-weight="normal"  style="display: block;"><tspan dy="0.3em" >Lee y escribe datos</tspan></text></g><g id="v-162"  label-idx="1" cursor="move" transform="matrix(1,0,0,1,4560.02978515625,621.8936157226562)" style="cursor: default;"><rect joint-selector="rect" id="v-167" fill="#ffffff" rx="3" ry="3" x="-55.680355072021484" y="-9.290369033813477" width="112.13667297363281" height="16.804759979248047"  pointer-events="none" style="display: block;"></rect><text joint-selector="text" id="v-166" font-size="12.6px" xml:space="preserve" fill="#64748b" text-anchor="middle" pointer-events="none" font-family="Tahoma, Verdana, Helvetica, Arial" font-weight="normal"  style="display: block;"><tspan dy="0.3em" >[API del navegador]</tspan></text></g><g id="v-163"  label-idx="2" cursor="move" transform="matrix(1,0,0,1,4550.02978515625,628.193603515625)" style="cursor: default;"><rect joint-selector="rect" id="v-169" fill="#ffffff" rx="3" ry="3" x="0" y="0" width="0" height="0"  display="none"></rect><text joint-selector="text" id="v-168" fill="#000000" font-size="14" text-anchor="middle" text-vertical-anchor="middle" pointer-events="none"></text></g></g></g><!--z-index:31--><g   id="j_16"  style="opacity: 1;"><path fill="none" cursor="pointer" stroke="transparent" stroke-linecap="round" joint-selector="wrapper" id="v-183" stroke-width="10" stroke-linejoin="round" d="M 600 342 L 1080 342"></path><path fill="none" pointer-events="none" joint-selector="line" id="v-182" stroke="#64748b" stroke-width="2" stroke-linejoin="round" stroke-dasharray="8 8" d="M 600 342 L 1080 342" marker-end="url(#v-2-671199615)"></path><g id="v-172" ><g id="v-173"  label-idx="0" cursor="move" transform="matrix(1,0,0,1,840,330.70001220703125)" style="cursor: default;"><rect joint-selector="rect" id="v-177" fill="#ffffff" rx="3" ry="3" x="-56.43890380859375" y="-13.271956443786621" width="114.17039489746094" height="22.406347274780273" pointer-events="none"  style="display: block;"></rect><text joint-selector="text" id="v-176" font-size="18px" xml:space="preserve" fill="#64748b" text-anchor="middle" pointer-events="none" font-family="Tahoma, Verdana, Helvetica, Arial" font-weight="normal"  style="display: block;"><tspan dy="0.3em" >Envía cambios</tspan></text></g><g id="v-174"  label-idx="1" cursor="move" transform="matrix(1,0,0,1,840,356)" style="cursor: default;"><rect joint-selector="rect" id="v-179" fill="#ffffff" rx="3" ry="3" x="-27.847471237182617" y="-9.290369033813477" width="56.46953201293945" height="16.804759979248047"  pointer-events="none" style="display: block;"></rect><text joint-selector="text" id="v-178" font-size="12.6px" xml:space="preserve" fill="#64748b" text-anchor="middle" pointer-events="none" font-family="Tahoma, Verdana, Helvetica, Arial" font-weight="normal"  style="display: block;"><tspan dy="0.3em" >[Git push]</tspan></text></g><g id="v-175"  label-idx="2" cursor="move" transform="matrix(1,0,0,1,830,362.29998779296875)" style="cursor: default;"><rect joint-selector="rect" id="v-181" fill="#ffffff" rx="3" ry="3" x="-1.1368683772161603e-13" y="0" width="0" height="0"  display="none"></rect><text joint-selector="text" id="v-180" fill="#000000" font-size="14" text-anchor="middle" text-vertical-anchor="middle" pointer-events="none"></text></g></g></g><!--z-index:32--><g   id="j_17"  style="opacity: 1;"><path fill="none" cursor="pointer" stroke="transparent" stroke-linecap="round" joint-selector="wrapper" id="v-198" stroke-width="10" stroke-linejoin="round" d="M 1530 342 L 1760 342 C 1766.6666666666665 342 1770 338.66666666666663 1770 332 L 1770 312 C 1770 305.56666666666666 1770 298.9 1770 292 L 1770 182 C 1770 175.33333333333331 1773.3333333333333 172 1780 172 L 2225 172 C 2231.6666666666665 172 2235 175.33333333333331 2235 182 L 2235 192"></path><path fill="none" pointer-events="none" joint-selector="line" id="v-197" stroke="#64748b" stroke-width="2" stroke-linejoin="round" stroke-dasharray="8 8" d="M 1530 342 L 1760 342 C 1766.6666666666665 342 1770 338.66666666666663 1770 332 L 1770 312 C 1770 305.56666666666666 1770 298.9 1770 292 L 1770 182 C 1770 175.33333333333331 1773.3333333333333 172 1780 172 L 2225 172 C 2231.6666666666665 172 2235 175.33333333333331 2235 182 L 2235 192" marker-end="url(#v-2-671199615)"></path><g id="v-187" ><g id="v-188"  label-idx="0" cursor="move" transform="matrix(1,0,0,1,1809.3846435546875,160.6999969482422)" style="cursor: default;"><rect joint-selector="rect" id="v-192" fill="#ffffff" rx="3" ry="3" x="-73.72505187988281" y="-13.271956443786621" width="147.14459228515625" height="22.406347274780273" pointer-events="none"  style="display: block;"></rect><text joint-selector="text" id="v-191" font-size="18px" xml:space="preserve" fill="#64748b" text-anchor="middle" pointer-events="none" font-family="Tahoma, Verdana, Helvetica, Arial" font-weight="normal"  style="display: block;"><tspan dy="0.3em" >Activa el workflow</tspan></text></g><g id="v-189"  label-idx="1" cursor="move" transform="matrix(1,0,0,1,1809.3846435546875,186)" style="cursor: default;"><rect joint-selector="rect" id="v-194" fill="#ffffff" rx="3" ry="3" x="-53.49223709106445" y="-9.290369033813477" width="107.76151275634766" height="16.804759979248047"  pointer-events="none" style="display: block;"></rect><text joint-selector="text" id="v-193" font-size="12.6px" xml:space="preserve" fill="#64748b" text-anchor="middle" pointer-events="none" font-family="Tahoma, Verdana, Helvetica, Arial" font-weight="normal"  style="display: block;"><tspan dy="0.3em" >[Evento de GitHub]</tspan></text></g><g id="v-190"  label-idx="2" cursor="move" transform="matrix(1,0,0,1,1799.3846435546875,192.3000030517578)" style="cursor: default;"><rect joint-selector="rect" id="v-196" fill="#ffffff" rx="3" ry="3" x="-2.2737367544323206e-13" y="0" width="0" height="0"  display="none"></rect><text joint-selector="text" id="v-195" fill="#000000" font-size="14" text-anchor="middle" text-vertical-anchor="middle" pointer-events="none"></text></g></g></g><!--z-index:33--></g><g  style="user-select: none;"></g><g ></g><g  display="none"></g></g></svg>