<?xml version="1.0" encoding="UTF-8"?>
<svg xmlns="http://www.w3.org/2000/svg" viewBox="0 0 1920 1080" width="1920" height="1080" role="img">
<title>Fondo de escritorio calendario</title>

    <defs>
      <linearGradient id="gPlant" x1="0" y1="0" x2="1" y2="1">
        <stop offset="0" stop-color="#A9DB91"/><stop offset="0.5" stop-color="#4DA95F"/><stop offset="1" stop-color="#20744F"/>
      </linearGradient>
      <linearGradient id="gPlantDeep" x1="0" y1="0" x2="1" y2="1">
        <stop offset="0" stop-color="#4DA95F"/><stop offset="1" stop-color="#134834"/>
      </linearGradient>
      <linearGradient id="gDiamond" x1="0" y1="0" x2="1" y2="1">
        <stop offset="0" stop-color="#EBFAFF"/><stop offset="0.38" stop-color="#9ADEF1"/><stop offset="0.72" stop-color="#3997C9"/><stop offset="1" stop-color="#236797"/>
      </linearGradient>
      <linearGradient id="gGold" x1="0" y1="0" x2="1" y2="0">
        <stop offset="0" stop-color="#F7DD97"/><stop offset="0.52" stop-color="#DAAE47"/><stop offset="1" stop-color="#7D5420"/>
      </linearGradient>
      <linearGradient id="gBronze" x1="0" y1="0" x2="1" y2="1">
        <stop offset="0" stop-color="#E7AE77"/><stop offset="0.55" stop-color="#B57041"/><stop offset="1" stop-color="#6F3F26"/>
      </linearGradient>
      <linearGradient id="gPlatinum" x1="0" y1="0" x2="1" y2="1">
        <stop offset="0" stop-color="#FAFCFF"/><stop offset="0.42" stop-color="#DEE4EB"/><stop offset="0.75" stop-color="#B4BCC6"/><stop offset="1" stop-color="#697380"/>
      </linearGradient>
      <radialGradient id="rQuartz"><stop offset="0" stop-color="#fff"/><stop offset="1" stop-color="#F0F1F2"/></radialGradient>
      <filter id="softShadow" x="-40%" y="-40%" width="180%" height="180%"><feDropShadow dx="0" dy="8" stdDeviation="12" flood-color="#25343F" flood-opacity="0.16"/></filter>
      <filter id="smallShadow" x="-40%" y="-40%" width="180%" height="180%"><feDropShadow dx="0" dy="3" stdDeviation="4" flood-color="#25343F" flood-opacity="0.18"/></filter>
      <filter id="glow" x="-70%" y="-70%" width="240%" height="240%"><feGaussianBlur stdDeviation="6" result="b"/><feMerge><feMergeNode in="b"/><feMergeNode in="SourceGraphic"/></feMerge></filter>
      <pattern id="grid" width="48" height="48" patternUnits="userSpaceOnUse"><path d="M48 0H0V48" fill="none" stroke="#393E46" stroke-opacity="0.055" stroke-width="1"/></pattern>
      <pattern id="microGrid" width="20" height="20" patternUnits="userSpaceOnUse"><path d="M20 0H0V20" fill="none" stroke="#20744F" stroke-opacity="0.055" stroke-width="1"/></pattern>
    </defs>
<rect width="1920" height="1080" fill="url(#rQuartz)"/>
<rect width="1920" height="1080" fill="url(#rQuartz)"/>
      <radialGradient id="ambientPlant"><stop offset="0" stop-color="#A9DB91" stop-opacity=".26"/><stop offset="1" stop-color="#A9DB91" stop-opacity="0"/></radialGradient>
      <ellipse cx="240" cy="220" rx="520" ry="440" fill="url(#ambientPlant)"/>
      <rect width="1920" height="1080" fill="url(#grid)" opacity="0.7"/>
      <rect x="80" y="80" width="1160" height="760" fill="#fff" opacity=".18"/>
      <g opacity="0.3139487980635687" filter="url(#smallShadow)"><polygon points="1812.2,998.4 1809.9,1000.8 1806.6,1000.8 1804.2,998.4 1804.2,995.1 1806.6,992.8 1809.9,992.8 1812.2,995.1" fill="url(#gDiamond)" stroke="#fff" stroke-opacity="0.8" stroke-width="2"/><path d="M1805.1862299695513 996.7840368005363L1808.2237457140038 993.7465210560838L1811.2612614584564 996.7840368005363L1808.2237457140038 999.8215525449889Z" fill="#fff" opacity="0.18"/></g><g opacity="0.4032545830356577" filter="url(#smallShadow)"><polygon points="1591.4,783.8 1587.1,788.1 1581.0,788.1 1576.6,783.8 1576.6,777.6 1581.0,773.3 1587.1,773.3 1591.4,777.6" fill="url(#gGold)" stroke="#fff" stroke-opacity="0.8" stroke-width="2"/><path d="M1578.4150456347272 780.6893888498937L1584.0279133207762 775.0765211638447L1589.6407810068251 780.6893888498937L1584.0279133207762 786.3022565359427Z" fill="#fff" opacity="0.18"/></g><g opacity="0.34335314810192225" filter="url(#smallShadow)"><polygon points="1164.0,651.8 1159.9,655.9 1154.2,655.9 1150.1,651.8 1150.1,646.1 1154.2,642.0 1159.9,642.0 1164.0,646.1" fill="url(#gBronze)" stroke="#fff" stroke-opacity="0.8" stroke-width="2"/><path d="M1151.8150912900699 648.9377683136546L1157.0561481619402 643.6967114417841L1162.2972050338105 648.9377683136546L1157.0561481619402 654.178825185525Z" fill="#fff" opacity="0.18"/></g><g opacity="0.6779278251798971" filter="url(#smallShadow)"><polygon points="838.7,434.6 834.2,439.1 827.9,439.1 823.3,434.6 823.3,428.2 827.9,423.7 834.2,423.7 838.7,428.2" fill="url(#gPlatinum)" stroke="#fff" stroke-opacity="0.8" stroke-width="2"/><path d="M825.2088802005624 431.4024566094788L831.0455309417597 425.5658058682815L836.882181682957 431.4024566094788L831.0455309417597 437.23910735067614Z" fill="#fff" opacity="0.18"/></g><g opacity="0.38729629665973125" filter="url(#smallShadow)"><polygon points="1802.0,587.6 1798.4,591.2 1793.3,591.2 1789.7,587.6 1789.7,582.5 1793.3,578.9 1798.4,578.9 1802.0,582.5" fill="url(#gPlant)" stroke="#fff" stroke-opacity="0.8" stroke-width="2"/><path d="M1791.2071923607846 585.0605883779073L1795.875579953433 580.3922007852586L1800.5439675460816 585.0605883779073L1795.875579953433 589.7289759705559Z" fill="#fff" opacity="0.18"/></g><g opacity="0.407386051141471" filter="url(#smallShadow)"><polygon points="103.1,60.6 99.4,64.3 94.2,64.3 90.5,60.6 90.5,55.4 94.2,51.7 99.4,51.7 103.1,55.4" fill="url(#gDiamond)" stroke="#fff" stroke-opacity="0.8" stroke-width="2"/><path d="M92.06669844990645 57.99375423263539L96.81925267071516 53.24120001182668L101.57180689152386 57.99375423263539L96.81925267071516 62.7463084534441Z" fill="#fff" opacity="0.18"/></g><g opacity="0.5042041444105996" filter="url(#smallShadow)"><polygon points="743.4,942.4 739.6,946.2 734.1,946.2 730.2,942.4 730.2,936.9 734.1,933.0 739.6,933.0 743.4,936.9" fill="url(#gGold)" stroke="#fff" stroke-opacity="0.8" stroke-width="2"/><path d="M731.8195931049104 939.6252469848532L736.8277547353237 934.61708535444L741.8359163657369 939.6252469848532L736.8277547353237 944.6334086152665Z" fill="#fff" opacity="0.18"/></g><g opacity="0.3346789571945867" filter="url(#smallShadow)"><polygon points="474.7,56.6 471.5,59.8 466.9,59.8 463.7,56.6 463.7,52.1 466.9,48.8 471.5,48.8 474.7,52.1" fill="url(#gBronze)" stroke="#fff" stroke-opacity="0.8" stroke-width="2"/><path d="M465.0239369332186 54.335240723597835L469.18953723401546 50.16964042280096L473.35513753481234 54.335240723597835L469.18953723401546 58.50084102439471Z" fill="#fff" opacity="0.18"/></g><g opacity="0.3527373987292578" filter="url(#smallShadow)"><polygon points="986.5,1051.7 982.1,1056.1 975.9,1056.1 971.6,1051.7 971.6,1045.6 975.9,1041.2 982.1,1041.2 986.5,1045.6" fill="url(#gPlatinum)" stroke="#fff" stroke-opacity="0.8" stroke-width="2"/><path d="M973.3835385283415 1048.657239556403L979.0163532571942 1043.0244248275503L984.6491679860468 1048.657239556403L979.0163532571942 1054.2900542852558Z" fill="#fff" opacity="0.18"/></g><g opacity="0.6426374599590244" filter="url(#smallShadow)"><polygon points="1699.8,845.9 1695.3,850.5 1688.8,850.5 1684.3,845.9 1684.3,839.5 1688.8,834.9 1695.3,834.9 1699.8,839.5" fill="url(#gPlant)" stroke="#fff" stroke-opacity="0.8" stroke-width="2"/><path d="M1686.1585709384037 842.6951198500723L1692.0430580443585 836.8106327441176L1697.9275451503133 842.6951198500723L1692.0430580443585 848.579606956027Z" fill="#fff" opacity="0.18"/></g><g opacity="0.6723906292288506" filter="url(#smallShadow)"><polygon points="1454.6,837.9 1451.3,841.2 1446.6,841.2 1443.3,837.9 1443.3,833.2 1446.6,829.9 1451.3,829.9 1454.6,833.2" fill="url(#gDiamond)" stroke="#fff" stroke-opacity="0.8" stroke-width="2"/><path d="M1444.6810946225773 835.5425902109985L1448.966999929512 831.2566849040637L1453.2529052364466 835.5425902109985L1448.966999929512 839.8284955179332Z" fill="#fff" opacity="0.18"/></g><g opacity="0.5660603592949814" filter="url(#smallShadow)"><polygon points="1827.0,197.7 1822.4,202.3 1815.9,202.3 1811.3,197.7 1811.3,191.1 1815.9,186.5 1822.4,186.5 1827.0,191.1" fill="url(#gGold)" stroke="#fff" stroke-opacity="0.8" stroke-width="2"/><path d="M1813.168927389762 194.40834637009925L1819.1357444906998 188.44152926916138L1825.1025615916376 194.40834637009925L1819.1357444906998 200.37516347103713Z" fill="#fff" opacity="0.18"/></g><g opacity="0.6499328288378281" filter="url(#smallShadow)"><polygon points="894.6,573.6 890.9,577.4 885.6,577.4 881.8,573.6 881.8,568.3 885.6,564.6 890.9,564.6 894.6,568.3" fill="url(#gBronze)" stroke="#fff" stroke-opacity="0.8" stroke-width="2"/><path d="M883.3583993283075 570.9628304459139L888.2164578000784 566.1047719741431L893.0745162718492 570.9628304459139L888.2164578000784 575.8208889176848Z" fill="#fff" opacity="0.18"/></g><g opacity="0.6331403674325013" filter="url(#smallShadow)"><polygon points="967.2,880.5 963.9,883.8 959.2,883.8 955.9,880.5 955.9,875.8 959.2,872.5 963.9,872.5 967.2,875.8" fill="url(#gPlatinum)" stroke="#fff" stroke-opacity="0.8" stroke-width="2"/><path d="M957.2778948325694 878.1549795876485L961.564376493018 873.8684979271999L965.8508581534667 878.1549795876485L961.564376493018 882.4414612480972Z" fill="#fff" opacity="0.18"/></g><g opacity="0.6481321756767715" filter="url(#smallShadow)"><polygon points="1710.3,503.1 1706.3,507.1 1700.6,507.1 1696.6,503.1 1696.6,497.4 1700.6,493.4 1706.3,493.4 1710.3,497.4" fill="url(#gPlant)" stroke="#fff" stroke-opacity="0.8" stroke-width="2"/><path d="M1698.2587337915588 500.2324081792704L1703.4430950873239 495.0480468835054L1708.6274563830889 500.2324081792704L1703.4430950873239 505.41676947503544Z" fill="#fff" opacity="0.18"/></g><g opacity="0.4098668975075592" filter="url(#smallShadow)"><polygon points="1381.1,528.4 1378.3,531.3 1374.2,531.3 1371.3,528.4 1371.3,524.3 1374.2,521.4 1378.3,521.4 1381.1,524.3" fill="url(#gDiamond)" stroke="#fff" stroke-opacity="0.8" stroke-width="2"/><path d="M1372.4860879557918 526.3407259588167L1376.2176942019541 522.6091197126544L1379.9493004481164 526.3407259588167L1376.2176942019541 530.072332204979Z" fill="#fff" opacity="0.18"/></g><g opacity="0.38725500515992656" filter="url(#smallShadow)"><polygon points="1339.9,203.0 1334.8,208.1 1327.6,208.1 1322.5,203.0 1322.5,195.8 1327.6,190.7 1334.8,190.7 1339.9,195.8" fill="url(#gGold)" stroke="#fff" stroke-opacity="0.8" stroke-width="2"/><path d="M1324.5898967248236 199.39107920400866L1331.2032468106531 192.77772911817905L1337.8165968964827 199.39107920400866L1331.2032468106531 206.00442928983827Z" fill="#fff" opacity="0.18"/></g><g opacity="0.5624823225470419" filter="url(#smallShadow)"><polygon points="1734.2,349.5 1728.9,354.8 1721.4,354.8 1716.2,349.5 1716.2,342.0 1721.4,336.8 1728.9,336.8 1734.2,342.0" fill="url(#gBronze)" stroke="#fff" stroke-opacity="0.8" stroke-width="2"/><path d="M1718.3418555260312 345.7543874484499L1725.162774714567 338.93346825991404L1731.9836939031027 345.7543874484499L1725.162774714567 352.5753066369858Z" fill="#fff" opacity="0.18"/></g>
      <g filter="url(#smallShadow)">
      <rect x="1480" y="660" width="300" height="260" rx="18.0" fill="url(#gPlatinum)" stroke="#fff" stroke-width="3"/>
      <rect x="1498.0" y="699.0" width="264.0" height="197.6" rx="9.0" fill="#FDFEFF" stroke="#697380" stroke-opacity="0.38" stroke-width="2"/>
      <path d="M1534.0 665.2V712.0 M1696.0 665.2V712.0" stroke="#697380" stroke-width="12" stroke-linecap="round"/>
      <rect x="1528.0" y="745.8" width="48.0" height="36.4" fill="#FFFFFF" stroke="#B4BCC6" stroke-width="2"/><rect x="1585.0" y="745.8" width="48.0" height="36.4" fill="#FFFFFF" stroke="#B4BCC6" stroke-width="2"/><rect x="1642.0" y="745.8" width="48.0" height="36.4" fill="#FFFFFF" stroke="#B4BCC6" stroke-width="2"/><rect x="1699.0" y="745.8" width="48.0" height="36.4" fill="#FFFFFF" stroke="#B4BCC6" stroke-width="2"/><rect x="1528.0" y="795.2" width="48.0" height="36.4" fill="#FFFFFF" stroke="#B4BCC6" stroke-width="2"/><rect x="1585.0" y="795.2" width="48.0" height="36.4" fill="#FFFFFF" stroke="#B4BCC6" stroke-width="2"/><rect x="1642.0" y="795.2" width="48.0" height="36.4" fill="url(#gPlant)" stroke="#20744F" stroke-width="2"/><rect x="1699.0" y="795.2" width="48.0" height="36.4" fill="#FFFFFF" stroke="#B4BCC6" stroke-width="2"/><rect x="1528.0" y="844.6" width="48.0" height="36.4" fill="#FFFFFF" stroke="#B4BCC6" stroke-width="2"/><rect x="1585.0" y="844.6" width="48.0" height="36.4" fill="#FFFFFF" stroke="#B4BCC6" stroke-width="2"/><rect x="1642.0" y="844.6" width="48.0" height="36.4" fill="#FFFFFF" stroke="#B4BCC6" stroke-width="2"/><rect x="1699.0" y="844.6" width="48.0" height="36.4" fill="#FFFFFF" stroke="#B4BCC6" stroke-width="2"/>
      <g transform="translate(1672.0 782.2) rotate(0) scale(0.26)">
      <path d="M0 92 C2 58 6 30 14 0" fill="none" stroke="url(#gPlantDeep)" stroke-width="12" stroke-linecap="round"/>
      <g transform="translate(9 22) rotate(-32) scale(0.48)" opacity="1.0">
      <path d="M0 0 C28 -58 82 -62 112 -12 C78 18 32 30 0 0Z" fill="url(#gPlant)"/>
      <path d="M8 -1 C42 -16 69 -27 101 -15" fill="none" stroke="#EFFFF0" stroke-opacity="0.55" stroke-width="3"/>
      <path d="M10 0 C43 -12 74 -10 105 -12" fill="none" stroke="#134834" stroke-opacity="0.28" stroke-width="2"/>
    </g>
      <g transform="translate(12 34) rotate(155) scale(0.45)" opacity="1.0">
      <path d="M0 0 C28 -58 82 -62 112 -12 C78 18 32 30 0 0Z" fill="url(#gPlant)"/>
      <path d="M8 -1 C42 -16 69 -27 101 -15" fill="none" stroke="#EFFFF0" stroke-opacity="0.55" stroke-width="3"/>
      <path d="M10 0 C43 -12 74 -10 105 -12" fill="none" stroke="#134834" stroke-opacity="0.28" stroke-width="2"/>
    </g>
    </g>
    </g><g transform="rotate(-8 1635 820)" filter="url(#smallShadow)">
      <circle cx="1635" cy="820" r="82" fill="url(#gBronze)"/>
      <circle cx="1635" cy="820" r="67.24" fill="#FFFDF7" stroke="#fff" stroke-width="3"/>
      <line x1="1635.0" y1="764.2" x2="1635.0" y2="751.1" stroke="#6F3F26" stroke-width="3" stroke-linecap="round"/><line x1="1662.9" y1="771.7" x2="1669.4" y2="760.3" stroke="#6F3F26" stroke-width="3" stroke-linecap="round"/><line x1="1683.3" y1="792.1" x2="1694.7" y2="785.6" stroke="#6F3F26" stroke-width="3" stroke-linecap="round"/><line x1="1690.8" y1="820.0" x2="1703.9" y2="820.0" stroke="#6F3F26" stroke-width="3" stroke-linecap="round"/><line x1="1683.3" y1="847.9" x2="1694.7" y2="854.4" stroke="#6F3F26" stroke-width="3" stroke-linecap="round"/><line x1="1662.9" y1="868.3" x2="1669.4" y2="879.7" stroke="#6F3F26" stroke-width="3" stroke-linecap="round"/><line x1="1635.0" y1="875.8" x2="1635.0" y2="888.9" stroke="#6F3F26" stroke-width="3" stroke-linecap="round"/><line x1="1607.1" y1="868.3" x2="1600.6" y2="879.7" stroke="#6F3F26" stroke-width="3" stroke-linecap="round"/><line x1="1586.7" y1="847.9" x2="1575.3" y2="854.4" stroke="#6F3F26" stroke-width="3" stroke-linecap="round"/><line x1="1579.2" y1="820.0" x2="1566.1" y2="820.0" stroke="#6F3F26" stroke-width="3" stroke-linecap="round"/><line x1="1586.7" y1="792.1" x2="1575.3" y2="785.6" stroke="#6F3F26" stroke-width="3" stroke-linecap="round"/><line x1="1607.1" y1="771.7" x2="1600.6" y2="760.3" stroke="#6F3F26" stroke-width="3" stroke-linecap="round"/>
      <line x1="1635" y1="820" x2="1669.44" y2="803.6" stroke="#6F3F26" stroke-width="5" stroke-linecap="round"/>
      <line x1="1635" y1="820" x2="1625.16" y2="780.64" stroke="#6F3F26" stroke-width="4" stroke-linecap="round"/>
      <circle cx="1635" cy="820" r="6.5600000000000005" fill="#DAAE47"/>
      <ellipse cx="1614.5" cy="788.84" rx="18.04" ry="6.5600000000000005" fill="#fff" opacity="0.32" transform="rotate(-25 1614.5 788.84)"/>
    </g><g opacity="0.26">
      <path d="M-30 900 C576.0 840 1305.6000000000001 960 1950 900" fill="none" stroke="url(#gPlant)" stroke-width="15" stroke-linecap="round"/>
      <path d="M-30 918 C480.0 948.0 1344.0 864.0 1950 908" fill="none" stroke="#A9DB91" stroke-opacity="0.46" stroke-width="4"/>
    </g><g opacity="0.28">
      <path d="M-50 820 C537.6 770 1382.3999999999999 870 1970 820" fill="none" stroke="url(#gGold)" stroke-width="11" stroke-linecap="round"/>
      <path d="M-50 842 C537.6 845.0 1382.3999999999999 787.5 1970 838" fill="none" stroke="#F7DD97" stroke-opacity="0.7" stroke-width="3"/>
      <path d="M-50 802 C537.6 807.5 1382.3999999999999 842.5 1970 808" fill="none" stroke="#DAAE47" stroke-opacity="0.42" stroke-width="2"/>
    </g>
</svg>