<?xml version="1.0" encoding="UTF-8"?>
<svg xmlns="http://www.w3.org/2000/svg" viewBox="0 0 1920 1080" width="1920" height="1080" role="img">
<title>Fondo de escritorio puntos</title>

    <defs>
      <linearGradient id="gPlant" x1="0" y1="0" x2="1" y2="1">
        <stop offset="0" stop-color="#A9DB91"/><stop offset="0.5" stop-color="#4DA95F"/><stop offset="1" stop-color="#20744F"/>
      </linearGradient>
      <linearGradient id="gPlantDeep" x1="0" y1="0" x2="1" y2="1">
        <stop offset="0" stop-color="#4DA95F"/><stop offset="1" stop-color="#134834"/>
      </linearGradient>
      <linearGradient id="gDiamond" x1="0" y1="0" x2="1" y2="1">
        <stop offset="0" stop-color="#EBFAFF"/><stop offset="0.38" stop-color="#9ADEF1"/><stop offset="0.72" stop-color="#3997C9"/><stop offset="1" stop-color="#236797"/>
      </linearGradient>
      <linearGradient id="gGold" x1="0" y1="0" x2="1" y2="0">
        <stop offset="0" stop-color="#F7DD97"/><stop offset="0.52" stop-color="#DAAE47"/><stop offset="1" stop-color="#7D5420"/>
      </linearGradient>
      <linearGradient id="gBronze" x1="0" y1="0" x2="1" y2="1">
        <stop offset="0" stop-color="#E7AE77"/><stop offset="0.55" stop-color="#B57041"/><stop offset="1" stop-color="#6F3F26"/>
      </linearGradient>
      <linearGradient id="gPlatinum" x1="0" y1="0" x2="1" y2="1">
        <stop offset="0" stop-color="#FAFCFF"/><stop offset="0.42" stop-color="#DEE4EB"/><stop offset="0.75" stop-color="#B4BCC6"/><stop offset="1" stop-color="#697380"/>
      </linearGradient>
      <radialGradient id="rQuartz"><stop offset="0" stop-color="#fff"/><stop offset="1" stop-color="#F0F1F2"/></radialGradient>
      <filter id="softShadow" x="-40%" y="-40%" width="180%" height="180%"><feDropShadow dx="0" dy="8" stdDeviation="12" flood-color="#25343F" flood-opacity="0.16"/></filter>
      <filter id="smallShadow" x="-40%" y="-40%" width="180%" height="180%"><feDropShadow dx="0" dy="3" stdDeviation="4" flood-color="#25343F" flood-opacity="0.18"/></filter>
      <filter id="glow" x="-70%" y="-70%" width="240%" height="240%"><feGaussianBlur stdDeviation="6" result="b"/><feMerge><feMergeNode in="b"/><feMergeNode in="SourceGraphic"/></feMerge></filter>
      <pattern id="grid" width="48" height="48" patternUnits="userSpaceOnUse"><path d="M48 0H0V48" fill="none" stroke="#393E46" stroke-opacity="0.055" stroke-width="1"/></pattern>
      <pattern id="microGrid" width="20" height="20" patternUnits="userSpaceOnUse"><path d="M20 0H0V20" fill="none" stroke="#20744F" stroke-opacity="0.055" stroke-width="1"/></pattern>
    </defs>
<rect width="1920" height="1080" fill="url(#rQuartz)"/>
<rect width="1920" height="1080" fill="url(#rQuartz)"/>
      <radialGradient id="ambientPlant"><stop offset="0" stop-color="#A9DB91" stop-opacity=".26"/><stop offset="1" stop-color="#A9DB91" stop-opacity="0"/></radialGradient>
      <ellipse cx="240" cy="220" rx="520" ry="440" fill="url(#ambientPlant)"/>
      <rect width="1920" height="1080" fill="url(#grid)" opacity="0.7"/>
      <rect x="80" y="80" width="1160" height="760" fill="#fff" opacity=".18"/>
      <g opacity="0.3419889083209641" filter="url(#smallShadow)"><polygon points="474.9,137.7 471.5,141.1 466.6,141.1 463.2,137.7 463.2,132.8 466.6,129.3 471.5,129.3 474.9,132.8" fill="url(#gDiamond)" stroke="#fff" stroke-opacity="0.8" stroke-width="2"/><path d="M464.58600229266335 135.22935491533013L469.0494469116282 130.76591029636526L473.51289153059304 135.22935491533013L469.0494469116282 139.692799534295Z" fill="#fff" opacity="0.18"/></g><g opacity="0.6001809405983234" filter="url(#smallShadow)"><polygon points="162.5,443.3 157.4,448.4 150.1,448.4 144.9,443.3 144.9,436.0 150.1,430.8 157.4,430.8 162.5,436.0" fill="url(#gGold)" stroke="#fff" stroke-opacity="0.8" stroke-width="2"/><path d="M147.0626667830688 439.6228347747763L153.71807796403724 432.9674235938079L160.37348914500566 439.6228347747763L153.71807796403724 446.27824595574475Z" fill="#fff" opacity="0.18"/></g><g opacity="0.3906730573765801" filter="url(#smallShadow)"><polygon points="1459.9,259.1 1456.0,263.0 1450.4,263.0 1446.5,259.1 1446.5,253.6 1450.4,249.7 1456.0,249.7 1459.9,253.6" fill="url(#gBronze)" stroke="#fff" stroke-opacity="0.8" stroke-width="2"/><path d="M1448.1483846257813 256.366739204124L1453.2024406601156 251.31268316978975L1458.2564966944499 256.366739204124L1453.2024406601156 261.4207952384582Z" fill="#fff" opacity="0.18"/></g><g opacity="0.6509902525712242" filter="url(#smallShadow)"><polygon points="356.0,140.3 353.2,143.2 349.1,143.2 346.3,140.3 346.3,136.3 349.1,133.4 353.2,133.4 356.0,136.3" fill="url(#gPlatinum)" stroke="#fff" stroke-opacity="0.8" stroke-width="2"/><path d="M347.45554265395475 138.30695828016073L351.1560244707862 134.60647646332927L354.8565062876176 138.30695828016073L351.1560244707862 142.00744009699218Z" fill="#fff" opacity="0.18"/></g><g opacity="0.35737424720769606" filter="url(#smallShadow)"><polygon points="1579.9,856.2 1575.2,860.9 1568.4,860.9 1563.7,856.2 1563.7,849.4 1568.4,844.7 1575.2,844.7 1579.9,849.4" fill="url(#gPlant)" stroke="#fff" stroke-opacity="0.8" stroke-width="2"/><path d="M1565.6294098059795 852.7853936363699L1571.79129072786 846.6235127144895L1577.9531716497406 852.7853936363699L1571.79129072786 858.9472745582503Z" fill="#fff" opacity="0.18"/></g><g opacity="0.6218593431965389" filter="url(#smallShadow)"><polygon points="614.1,672.7 609.5,677.3 603.1,677.3 598.6,672.7 598.6,666.3 603.1,661.8 609.5,661.8 614.1,666.3" fill="url(#gDiamond)" stroke="#fff" stroke-opacity="0.8" stroke-width="2"/><path d="M600.4469627998456 669.5151144613927L606.3209205771361 663.6411566841022L612.1948783544267 669.5151144613927L606.3209205771361 675.3890722386833Z" fill="#fff" opacity="0.18"/></g><g opacity="0.5486805826065894" filter="url(#smallShadow)"><polygon points="1673.9,121.4 1669.8,125.5 1664.0,125.5 1659.8,121.4 1659.8,115.5 1664.0,111.4 1669.8,111.4 1673.9,115.5" fill="url(#gGold)" stroke="#fff" stroke-opacity="0.8" stroke-width="2"/><path d="M1661.5498196202075 118.45261768762028L1666.894397531831 113.10803977599679L1672.2389754434544 118.45261768762028L1666.894397531831 123.79719559924376Z" fill="#fff" opacity="0.18"/></g><g opacity="0.31573848290615614" filter="url(#smallShadow)"><polygon points="977.4,214.0 973.7,217.7 968.5,217.7 964.8,214.0 964.8,208.7 968.5,205.0 973.7,205.0 977.4,208.7" fill="url(#gBronze)" stroke="#fff" stroke-opacity="0.8" stroke-width="2"/><path d="M966.2849536935149 211.34597772560016L971.0740228213725 206.55690859774256L975.8630919492301 211.34597772560016L971.0740228213725 216.13504685345777Z" fill="#fff" opacity="0.18"/></g><g opacity="0.4000982958293299" filter="url(#smallShadow)"><polygon points="1775.1,915.6 1771.1,919.5 1765.5,919.5 1761.6,915.6 1761.6,910.0 1765.5,906.1 1771.1,906.1 1775.1,910.0" fill="url(#gPlatinum)" stroke="#fff" stroke-opacity="0.8" stroke-width="2"/><path d="M1763.2342736015632 912.7938535887849L1768.334356853829 907.6937703365193L1773.4344401060946 912.7938535887849L1768.334356853829 917.8939368410506Z" fill="#fff" opacity="0.18"/></g><g opacity="0.6192176352894538" filter="url(#smallShadow)"><polygon points="1729.1,617.4 1724.1,622.4 1716.9,622.4 1711.9,617.4 1711.9,610.3 1716.9,605.2 1724.1,605.2 1729.1,610.3" fill="url(#gPlant)" stroke="#fff" stroke-opacity="0.8" stroke-width="2"/><path d="M1713.9930059038256 613.8141377196093L1720.4987383113166 607.3084053121185L1727.0044707188076 613.8141377196093L1720.4987383113166 620.3198701271002Z" fill="#fff" opacity="0.18"/></g><g opacity="0.4524172069173229" filter="url(#smallShadow)"><polygon points="982.6,455.1 978.5,459.2 972.7,459.2 968.6,455.1 968.6,449.3 972.7,445.2 978.5,445.2 982.6,449.3" fill="url(#gDiamond)" stroke="#fff" stroke-opacity="0.8" stroke-width="2"/><path d="M970.25718573572 452.22496399436665L975.572618118918 446.9095316111687L980.8880505021159 452.22496399436665L975.572618118918 457.5403963775646Z" fill="#fff" opacity="0.18"/></g><g opacity="0.2972953876288994" filter="url(#smallShadow)"><polygon points="338.3,344.6 333.5,349.4 326.7,349.4 321.9,344.6 321.9,337.8 326.7,333.0 333.5,333.0 338.3,337.8" fill="url(#gGold)" stroke="#fff" stroke-opacity="0.8" stroke-width="2"/><path d="M323.84343964792635 341.2138283613938L330.05632738619175 335.0009406231284L336.26921512445716 341.2138283613938L330.05632738619175 347.4267160996592Z" fill="#fff" opacity="0.18"/></g><g opacity="0.4938487179517689" filter="url(#smallShadow)"><polygon points="121.4,671.1 118.3,674.1 114.0,674.1 110.9,671.1 110.9,666.7 114.0,663.6 118.3,663.6 121.4,666.7" fill="url(#gBronze)" stroke="#fff" stroke-opacity="0.8" stroke-width="2"/><path d="M112.1810986577454 668.8777604507015L116.15891814653351 664.8999409619134L120.13673763532162 668.8777604507015L116.15891814653351 672.8555799394896Z" fill="#fff" opacity="0.18"/></g><g opacity="0.3582293977333262" filter="url(#smallShadow)"><polygon points="915.7,383.5 910.3,388.9 902.7,388.9 897.3,383.5 897.3,375.9 902.7,370.5 910.3,370.5 915.7,375.9" fill="url(#gPlatinum)" stroke="#fff" stroke-opacity="0.8" stroke-width="2"/><path d="M899.5179889023641 379.70013073059914L906.506560173887 372.7115594590763L913.4951314454099 379.70013073059914L906.506560173887 386.688702002122Z" fill="#fff" opacity="0.18"/></g><g opacity="0.3905219339838733" filter="url(#smallShadow)"><polygon points="805.0,239.7 800.8,243.9 794.8,243.9 790.6,239.7 790.6,233.7 794.8,229.5 800.8,229.5 805.0,233.7" fill="url(#gPlant)" stroke="#fff" stroke-opacity="0.8" stroke-width="2"/><path d="M792.3408679941024 236.72402849584427L797.7980609176246 231.26683557232198L803.2552538411469 236.72402849584427L797.7980609176246 242.18122141936655Z" fill="#fff" opacity="0.18"/></g><g opacity="0.5034115934333568" filter="url(#smallShadow)"><polygon points="697.3,794.1 694.1,797.4 689.6,797.4 686.4,794.1 686.4,789.6 689.6,786.4 694.1,786.4 697.3,789.6" fill="url(#gDiamond)" stroke="#fff" stroke-opacity="0.8" stroke-width="2"/><path d="M687.6983941760259 791.8815346102718L691.8452035696748 787.7347252166229L695.9920129633238 791.8815346102718L691.8452035696748 796.0283440039208Z" fill="#fff" opacity="0.18"/></g><g opacity="0.37154777609550593" filter="url(#smallShadow)"><polygon points="1716.1,134.7 1713.7,137.0 1710.4,137.0 1708.0,134.7 1708.0,131.3 1710.4,129.0 1713.7,129.0 1716.1,131.3" fill="url(#gGold)" stroke="#fff" stroke-opacity="0.8" stroke-width="2"/><path d="M1708.9673258304547 132.99902749221673L1712.0260888470234 129.94026447564798L1715.0848518635921 132.99902749221673L1712.0260888470234 136.05779050878547Z" fill="#fff" opacity="0.18"/></g><g opacity="0.4124267981486939" filter="url(#smallShadow)"><polygon points="1458.2,659.8 1455.3,662.8 1451.1,662.8 1448.2,659.8 1448.2,655.7 1451.1,652.7 1455.3,652.7 1458.2,655.7" fill="url(#gBronze)" stroke="#fff" stroke-opacity="0.8" stroke-width="2"/><path d="M1449.404616753607 657.7407166312711L1453.2017688668732 653.9435645180047L1456.9989209801395 657.7407166312711L1453.2017688668732 661.5378687445375Z" fill="#fff" opacity="0.18"/></g>
      <g opacity="0.52">
      <path d="M-50 700 C537.6 600 1382.3999999999999 800 1970 700" fill="none" stroke="url(#gGold)" stroke-width="11" stroke-linecap="round"/>
      <path d="M-50 722 C537.6 750.0 1382.3999999999999 635.0 1970 718" fill="none" stroke="#F7DD97" stroke-opacity="0.7" stroke-width="3"/>
      <path d="M-50 682 C537.6 675.0 1382.3999999999999 745.0 1970 688" fill="none" stroke="#DAAE47" stroke-opacity="0.42" stroke-width="2"/>
    </g><g opacity="0.38">
      <path d="M-50 860 C537.6 805 1382.3999999999999 915 1970 860" fill="none" stroke="url(#gGold)" stroke-width="11" stroke-linecap="round"/>
      <path d="M-50 882 C537.6 887.5 1382.3999999999999 824.25 1970 878" fill="none" stroke="#F7DD97" stroke-opacity="0.7" stroke-width="3"/>
      <path d="M-50 842 C537.6 846.25 1382.3999999999999 884.75 1970 848" fill="none" stroke="#DAAE47" stroke-opacity="0.42" stroke-width="2"/>
    </g><g opacity="0.68" filter="url(#smallShadow)"><polygon points="1270.3,658.4 1258.4,670.3 1241.6,670.3 1229.7,658.4 1229.7,641.6 1241.6,629.7 1258.4,629.7 1270.3,641.6" fill="url(#gGold)" stroke="#fff" stroke-opacity="0.8" stroke-width="2"/><path d="M1234.6 650L1250 634.6L1265.4 650L1250 665.4Z" fill="#fff" opacity="0.18"/></g><g opacity="0.68" filter="url(#smallShadow)"><polygon points="1360.3,738.4 1348.4,750.3 1331.6,750.3 1319.7,738.4 1319.7,721.6 1331.6,709.7 1348.4,709.7 1360.3,721.6" fill="url(#gGold)" stroke="#fff" stroke-opacity="0.8" stroke-width="2"/><path d="M1324.6 730L1340 714.6L1355.4 730L1340 745.4Z" fill="#fff" opacity="0.18"/></g><g opacity="0.68" filter="url(#smallShadow)"><polygon points="1450.3,818.4 1438.4,830.3 1421.6,830.3 1409.7,818.4 1409.7,801.6 1421.6,789.7 1438.4,789.7 1450.3,801.6" fill="url(#gGold)" stroke="#fff" stroke-opacity="0.8" stroke-width="2"/><path d="M1414.6 810L1430 794.6L1445.4 810L1430 825.4Z" fill="#fff" opacity="0.18"/></g><g opacity="0.68" filter="url(#smallShadow)"><polygon points="1540.3,658.4 1528.4,670.3 1511.6,670.3 1499.7,658.4 1499.7,641.6 1511.6,629.7 1528.4,629.7 1540.3,641.6" fill="url(#gGold)" stroke="#fff" stroke-opacity="0.8" stroke-width="2"/><path d="M1504.6 650L1520 634.6L1535.4 650L1520 665.4Z" fill="#fff" opacity="0.18"/></g><g opacity="0.68" filter="url(#smallShadow)"><polygon points="1630.3,738.4 1618.4,750.3 1601.6,750.3 1589.7,738.4 1589.7,721.6 1601.6,709.7 1618.4,709.7 1630.3,721.6" fill="url(#gGold)" stroke="#fff" stroke-opacity="0.8" stroke-width="2"/><path d="M1594.6 730L1610 714.6L1625.4 730L1610 745.4Z" fill="#fff" opacity="0.18"/></g><g opacity="0.68" filter="url(#smallShadow)"><polygon points="1720.3,818.4 1708.4,830.3 1691.6,830.3 1679.7,818.4 1679.7,801.6 1691.6,789.7 1708.4,789.7 1720.3,801.6" fill="url(#gGold)" stroke="#fff" stroke-opacity="0.8" stroke-width="2"/><path d="M1684.6 810L1700 794.6L1715.4 810L1700 825.4Z" fill="#fff" opacity="0.18"/></g><g transform="translate(1600 700) rotate(0) scale(1.25)">
      <path d="M0 92 C2 58 6 30 14 0" fill="none" stroke="url(#gPlantDeep)" stroke-width="12" stroke-linecap="round"/>
      <g transform="translate(9 22) rotate(-32) scale(0.48)" opacity="1.0">
      <path d="M0 0 C28 -58 82 -62 112 -12 C78 18 32 30 0 0Z" fill="url(#gPlant)"/>
      <path d="M8 -1 C42 -16 69 -27 101 -15" fill="none" stroke="#EFFFF0" stroke-opacity="0.55" stroke-width="3"/>
      <path d="M10 0 C43 -12 74 -10 105 -12" fill="none" stroke="#134834" stroke-opacity="0.28" stroke-width="2"/>
    </g>
      <g transform="translate(12 34) rotate(155) scale(0.45)" opacity="1.0">
      <path d="M0 0 C28 -58 82 -62 112 -12 C78 18 32 30 0 0Z" fill="url(#gPlant)"/>
      <path d="M8 -1 C42 -16 69 -27 101 -15" fill="none" stroke="#EFFFF0" stroke-opacity="0.55" stroke-width="3"/>
      <path d="M10 0 C43 -12 74 -10 105 -12" fill="none" stroke="#134834" stroke-opacity="0.28" stroke-width="2"/>
    </g>
    </g>
</svg>