<?xml version="1.0" encoding="UTF-8"?>
<svg xmlns="http://www.w3.org/2000/svg" viewBox="0 0 1920 1080" width="1920" height="1080" role="img">
<title>Fondo de escritorio crear</title>

    <defs>
      <linearGradient id="gPlant" x1="0" y1="0" x2="1" y2="1">
        <stop offset="0" stop-color="#A9DB91"/><stop offset="0.5" stop-color="#4DA95F"/><stop offset="1" stop-color="#20744F"/>
      </linearGradient>
      <linearGradient id="gPlantDeep" x1="0" y1="0" x2="1" y2="1">
        <stop offset="0" stop-color="#4DA95F"/><stop offset="1" stop-color="#134834"/>
      </linearGradient>
      <linearGradient id="gDiamond" x1="0" y1="0" x2="1" y2="1">
        <stop offset="0" stop-color="#EBFAFF"/><stop offset="0.38" stop-color="#9ADEF1"/><stop offset="0.72" stop-color="#3997C9"/><stop offset="1" stop-color="#236797"/>
      </linearGradient>
      <linearGradient id="gGold" x1="0" y1="0" x2="1" y2="0">
        <stop offset="0" stop-color="#F7DD97"/><stop offset="0.52" stop-color="#DAAE47"/><stop offset="1" stop-color="#7D5420"/>
      </linearGradient>
      <linearGradient id="gBronze" x1="0" y1="0" x2="1" y2="1">
        <stop offset="0" stop-color="#E7AE77"/><stop offset="0.55" stop-color="#B57041"/><stop offset="1" stop-color="#6F3F26"/>
      </linearGradient>
      <linearGradient id="gPlatinum" x1="0" y1="0" x2="1" y2="1">
        <stop offset="0" stop-color="#FAFCFF"/><stop offset="0.42" stop-color="#DEE4EB"/><stop offset="0.75" stop-color="#B4BCC6"/><stop offset="1" stop-color="#697380"/>
      </linearGradient>
      <radialGradient id="rQuartz"><stop offset="0" stop-color="#fff"/><stop offset="1" stop-color="#F0F1F2"/></radialGradient>
      <filter id="softShadow" x="-40%" y="-40%" width="180%" height="180%"><feDropShadow dx="0" dy="8" stdDeviation="12" flood-color="#25343F" flood-opacity="0.16"/></filter>
      <filter id="smallShadow" x="-40%" y="-40%" width="180%" height="180%"><feDropShadow dx="0" dy="3" stdDeviation="4" flood-color="#25343F" flood-opacity="0.18"/></filter>
      <filter id="glow" x="-70%" y="-70%" width="240%" height="240%"><feGaussianBlur stdDeviation="6" result="b"/><feMerge><feMergeNode in="b"/><feMergeNode in="SourceGraphic"/></feMerge></filter>
      <pattern id="grid" width="48" height="48" patternUnits="userSpaceOnUse"><path d="M48 0H0V48" fill="none" stroke="#393E46" stroke-opacity="0.055" stroke-width="1"/></pattern>
      <pattern id="microGrid" width="20" height="20" patternUnits="userSpaceOnUse"><path d="M20 0H0V20" fill="none" stroke="#20744F" stroke-opacity="0.055" stroke-width="1"/></pattern>
    </defs>
<rect width="1920" height="1080" fill="url(#rQuartz)"/>
<rect width="1920" height="1080" fill="url(#rQuartz)"/>
      <radialGradient id="ambientPlant"><stop offset="0" stop-color="#A9DB91" stop-opacity=".26"/><stop offset="1" stop-color="#A9DB91" stop-opacity="0"/></radialGradient>
      <ellipse cx="240" cy="220" rx="520" ry="440" fill="url(#ambientPlant)"/>
      <rect width="1920" height="1080" fill="url(#grid)" opacity="0.7"/>
      <rect x="80" y="80" width="1160" height="760" fill="#fff" opacity=".18"/>
      <g opacity="0.5215680154384779" filter="url(#smallShadow)"><polygon points="478.4,587.5 475.0,590.9 470.2,590.9 466.9,587.5 466.9,582.7 470.2,579.4 475.0,579.4 478.4,582.7" fill="url(#gDiamond)" stroke="#fff" stroke-opacity="0.8" stroke-width="2"/><path d="M468.260394691416 585.1138098018708L472.61420639091796 580.7599981023689L476.9680180904199 585.1138098018708L472.61420639091796 589.4676215013728Z" fill="#fff" opacity="0.18"/></g><g opacity="0.614987632838584" filter="url(#smallShadow)"><polygon points="1197.6,98.4 1195.4,100.6 1192.3,100.6 1190.1,98.4 1190.1,95.3 1192.3,93.1 1195.4,93.1 1197.6,95.3" fill="url(#gGold)" stroke="#fff" stroke-opacity="0.8" stroke-width="2"/><path d="M1190.98446007645 96.83943642460937L1193.8397656409804 93.9841308600789L1196.6950712055109 96.83943642460937L1193.8397656409804 99.69474198913984Z" fill="#fff" opacity="0.18"/></g><g opacity="0.4681054030089792" filter="url(#smallShadow)"><polygon points="521.6,272.8 516.2,278.2 508.6,278.2 503.2,272.8 503.2,265.2 508.6,259.8 516.2,259.8 521.6,265.2" fill="url(#gBronze)" stroke="#fff" stroke-opacity="0.8" stroke-width="2"/><path d="M505.41675834095025 269.0175802676303L512.3984666500942 262.0358719584864L519.3801749592382 269.0175802676303L512.3984666500942 275.99928857677423Z" fill="#fff" opacity="0.18"/></g><g opacity="0.3402465696094096" filter="url(#smallShadow)"><polygon points="1593.1,518.9 1588.8,523.1 1582.8,523.1 1578.6,518.9 1578.6,512.9 1582.8,508.6 1588.8,508.6 1593.1,512.9" fill="url(#gPlatinum)" stroke="#fff" stroke-opacity="0.8" stroke-width="2"/><path d="M1580.3342131800775 515.8802728733217L1585.818299370363 510.3961866830362L1591.3023855606486 515.8802728733217L1585.818299370363 521.3643590636071Z" fill="#fff" opacity="0.18"/></g><g opacity="0.5765007424805961" filter="url(#smallShadow)"><polygon points="1217.4,918.1 1213.6,922.0 1208.1,922.0 1204.2,918.1 1204.2,912.7 1208.1,908.8 1213.6,908.8 1217.4,912.7" fill="url(#gPlant)" stroke="#fff" stroke-opacity="0.8" stroke-width="2"/><path d="M1205.8434633268407 915.4062132861627L1210.8408244104505 910.4088522025528L1215.8381854940603 915.4062132861627L1210.8408244104505 920.4035743697726Z" fill="#fff" opacity="0.18"/></g><g opacity="0.5164398331725271" filter="url(#smallShadow)"><polygon points="1286.7,98.6 1282.1,103.2 1275.6,103.2 1270.9,98.6 1270.9,92.0 1275.6,87.4 1282.1,87.4 1286.7,92.0" fill="url(#gDiamond)" stroke="#fff" stroke-opacity="0.8" stroke-width="2"/><path d="M1272.8407771530376 95.31206699153725L1278.8253441874422 89.32749995713262L1284.8099112218467 95.31206699153725L1278.8253441874422 101.29663402594188Z" fill="#fff" opacity="0.18"/></g><g opacity="0.46909963546618677" filter="url(#smallShadow)"><polygon points="598.9,65.2 593.9,70.1 586.8,70.1 581.9,65.2 581.9,58.1 586.8,53.1 593.9,53.1 598.9,58.1" fill="url(#gGold)" stroke="#fff" stroke-opacity="0.8" stroke-width="2"/><path d="M583.9226323039134 61.63198649914499L590.357846699225 55.196772103833425L596.7930610945366 61.63198649914499L590.357846699225 68.06720089445656Z" fill="#fff" opacity="0.18"/></g><g opacity="0.6484394670335498" filter="url(#smallShadow)"><polygon points="1374.7,929.6 1370.2,934.0 1363.8,934.0 1359.4,929.6 1359.4,923.2 1363.8,918.7 1370.2,918.7 1374.7,923.2" fill="url(#gBronze)" stroke="#fff" stroke-opacity="0.8" stroke-width="2"/><path d="M1361.2131549312267 926.3890562605914L1367.0124987623938 920.5897124294243L1372.8118425935609 926.3890562605914L1367.0124987623938 932.1884000917585Z" fill="#fff" opacity="0.18"/></g><g opacity="0.6542346886818085" filter="url(#smallShadow)"><polygon points="770.8,849.5 767.2,853.1 762.1,853.1 758.5,849.5 758.5,844.4 762.1,840.8 767.2,840.8 770.8,844.4" fill="url(#gPlatinum)" stroke="#fff" stroke-opacity="0.8" stroke-width="2"/><path d="M759.9645230059705 846.9269464049329L764.6319314413837 842.2595379695197L769.2993398767969 846.9269464049329L764.6319314413837 851.5943548403461Z" fill="#fff" opacity="0.18"/></g><g opacity="0.366794776493255" filter="url(#smallShadow)"><polygon points="1669.1,131.2 1666.5,133.9 1662.8,133.9 1660.2,131.2 1660.2,127.6 1662.8,125.0 1666.5,125.0 1669.1,127.6" fill="url(#gPlant)" stroke="#fff" stroke-opacity="0.8" stroke-width="2"/><path d="M1661.3209190159148 129.40339592549475L1664.6919882287575 126.03232671265194L1668.0630574416002 129.40339592549475L1664.6919882287575 132.77446513833755Z" fill="#fff" opacity="0.18"/></g><g opacity="0.4004104793702022" filter="url(#smallShadow)"><polygon points="1833.0,477.9 1828.8,482.1 1822.8,482.1 1818.6,477.9 1818.6,471.9 1822.8,467.7 1828.8,467.7 1833.0,471.9" fill="url(#gDiamond)" stroke="#fff" stroke-opacity="0.8" stroke-width="2"/><path d="M1820.3611355290168 474.88510395997787L1825.7930583506575 469.4531811383373L1831.2249811722982 474.88510395997787L1825.7930583506575 480.31702678161844Z" fill="#fff" opacity="0.18"/></g><g opacity="0.5140296429621454" filter="url(#smallShadow)"><polygon points="979.1,425.9 975.8,429.2 971.1,429.2 967.8,425.9 967.8,421.2 971.1,417.9 975.8,417.9 979.1,421.2" fill="url(#gGold)" stroke="#fff" stroke-opacity="0.8" stroke-width="2"/><path d="M969.1981258692159 423.5835840218006L973.4719499220507 419.30975996896586L977.7457739748855 423.5835840218006L973.4719499220507 427.8574080746354Z" fill="#fff" opacity="0.18"/></g><g opacity="0.6515782404800068" filter="url(#smallShadow)"><polygon points="1124.2,955.4 1119.8,959.8 1113.6,959.8 1109.2,955.4 1109.2,949.2 1113.6,944.8 1119.8,944.8 1124.2,949.2" fill="url(#gBronze)" stroke="#fff" stroke-opacity="0.8" stroke-width="2"/><path d="M1111.0440099507032 952.2858062647306L1116.70833492457 946.6214812908637L1122.3726598984367 952.2858062647306L1116.70833492457 957.9501312385975Z" fill="#fff" opacity="0.18"/></g><g opacity="0.34523984878842795" filter="url(#smallShadow)"><polygon points="1630.3,1043.9 1626.0,1048.2 1619.8,1048.2 1615.5,1043.9 1615.5,1037.7 1619.8,1033.4 1626.0,1033.4 1630.3,1037.7" fill="url(#gPlatinum)" stroke="#fff" stroke-opacity="0.8" stroke-width="2"/><path d="M1617.285704620883 1040.8094377661914L1622.9050534979656 1035.190088889109L1628.524402375048 1040.8094377661914L1622.9050534979656 1046.428786643274Z" fill="#fff" opacity="0.18"/></g><g opacity="0.5076430013897294" filter="url(#smallShadow)"><polygon points="1639.5,1017.5 1634.4,1022.6 1627.2,1022.6 1622.1,1017.5 1622.1,1010.3 1627.2,1005.2 1634.4,1005.2 1639.5,1010.3" fill="url(#gPlant)" stroke="#fff" stroke-opacity="0.8" stroke-width="2"/><path d="M1624.1860884613077 1013.9256062552425L1630.785811596259 1007.3258831202911L1637.3855347312103 1013.9256062552425L1630.785811596259 1020.525329390194Z" fill="#fff" opacity="0.18"/></g><g opacity="0.5094129409405139" filter="url(#smallShadow)"><polygon points="1366.0,248.8 1361.1,253.7 1354.3,253.7 1349.4,248.8 1349.4,241.9 1354.3,237.0 1361.1,237.0 1366.0,241.9" fill="url(#gDiamond)" stroke="#fff" stroke-opacity="0.8" stroke-width="2"/><path d="M1351.4069042168624 245.34748334911026L1357.6996575240105 239.0547300419622L1363.9924108311586 245.34748334911026L1357.6996575240105 251.64023665625834Z" fill="#fff" opacity="0.18"/></g><g opacity="0.6759224059686326" filter="url(#smallShadow)"><polygon points="568.5,98.2 563.5,103.2 556.5,103.2 551.6,98.2 551.6,91.2 556.5,86.3 563.5,86.3 568.5,91.2" fill="url(#gGold)" stroke="#fff" stroke-opacity="0.8" stroke-width="2"/><path d="M553.6343208429664 94.72978868813394L560.0208792943416 88.34323023675869L566.4074377457168 94.72978868813394L560.0208792943416 101.11634713950919Z" fill="#fff" opacity="0.18"/></g><g opacity="0.34030614978112383" filter="url(#smallShadow)"><polygon points="200.6,849.1 197.1,852.6 192.2,852.6 188.7,849.1 188.7,844.1 192.2,840.6 197.1,840.6 200.6,844.1" fill="url(#gBronze)" stroke="#fff" stroke-opacity="0.8" stroke-width="2"/><path d="M190.11971350924193 846.6072276826519L194.64365318409475 842.0832880077991L199.16759285894756 846.6072276826519L194.64365318409475 851.1311673575048Z" fill="#fff" opacity="0.18"/></g>
      <g transform="translate(1510 610) rotate(0) scale(2.2)">
      <path d="M0 92 C2 58 6 30 14 0" fill="none" stroke="url(#gPlantDeep)" stroke-width="12" stroke-linecap="round"/>
      <g transform="translate(9 22) rotate(-32) scale(0.48)" opacity="1.0">
      <path d="M0 0 C28 -58 82 -62 112 -12 C78 18 32 30 0 0Z" fill="url(#gPlant)"/>
      <path d="M8 -1 C42 -16 69 -27 101 -15" fill="none" stroke="#EFFFF0" stroke-opacity="0.55" stroke-width="3"/>
      <path d="M10 0 C43 -12 74 -10 105 -12" fill="none" stroke="#134834" stroke-opacity="0.28" stroke-width="2"/>
    </g>
      <g transform="translate(12 34) rotate(155) scale(0.45)" opacity="1.0">
      <path d="M0 0 C28 -58 82 -62 112 -12 C78 18 32 30 0 0Z" fill="url(#gPlant)"/>
      <path d="M8 -1 C42 -16 69 -27 101 -15" fill="none" stroke="#EFFFF0" stroke-opacity="0.55" stroke-width="3"/>
      <path d="M10 0 C43 -12 74 -10 105 -12" fill="none" stroke="#134834" stroke-opacity="0.28" stroke-width="2"/>
    </g>
    </g><g transform="translate(1320 750) rotate(-12) scale(1.15)">
      <path d="M0 92 C2 58 6 30 14 0" fill="none" stroke="url(#gPlantDeep)" stroke-width="12" stroke-linecap="round"/>
      <g transform="translate(9 22) rotate(-32) scale(0.48)" opacity="1.0">
      <path d="M0 0 C28 -58 82 -62 112 -12 C78 18 32 30 0 0Z" fill="url(#gPlant)"/>
      <path d="M8 -1 C42 -16 69 -27 101 -15" fill="none" stroke="#EFFFF0" stroke-opacity="0.55" stroke-width="3"/>
      <path d="M10 0 C43 -12 74 -10 105 -12" fill="none" stroke="#134834" stroke-opacity="0.28" stroke-width="2"/>
    </g>
      <g transform="translate(12 34) rotate(155) scale(0.45)" opacity="1.0">
      <path d="M0 0 C28 -58 82 -62 112 -12 C78 18 32 30 0 0Z" fill="url(#gPlant)"/>
      <path d="M8 -1 C42 -16 69 -27 101 -15" fill="none" stroke="#EFFFF0" stroke-opacity="0.55" stroke-width="3"/>
      <path d="M10 0 C43 -12 74 -10 105 -12" fill="none" stroke="#134834" stroke-opacity="0.28" stroke-width="2"/>
    </g>
    </g><g opacity="0.28">
      <path d="M-50 860 C537.6 785 1382.3999999999999 935 1970 860" fill="none" stroke="url(#gGold)" stroke-width="11" stroke-linecap="round"/>
      <path d="M-50 882 C537.6 897.5 1382.3999999999999 811.25 1970 878" fill="none" stroke="#F7DD97" stroke-opacity="0.7" stroke-width="3"/>
      <path d="M-50 842 C537.6 841.25 1382.3999999999999 893.75 1970 848" fill="none" stroke="#DAAE47" stroke-opacity="0.42" stroke-width="2"/>
    </g><g filter="url(#softShadow)"><g transform="rotate(0.0 1720 720)" opacity="0.28">
          <path d="M1720 682.2 C1752.4 655.2 1750.6 613.8 1720 598.5 C1689.4 613.8 1687.6 655.2 1720 682.2Z" fill="url(#gDiamond)" stroke="#EFFFFF" stroke-opacity="0.72" stroke-width="2"/>
          <path d="M1720 682.2 L1720 598.5 L1742.5 646.2Z" fill="#fff" opacity="0.22"/>
        </g><g transform="rotate(45.0 1720 720)" opacity="0.28">
          <path d="M1720 682.2 C1752.4 655.2 1750.6 613.8 1720 598.5 C1689.4 613.8 1687.6 655.2 1720 682.2Z" fill="url(#gDiamond)" stroke="#EFFFFF" stroke-opacity="0.72" stroke-width="2"/>
          <path d="M1720 682.2 L1720 598.5 L1742.5 646.2Z" fill="#fff" opacity="0.22"/>
        </g><g transform="rotate(90.0 1720 720)" opacity="0.28">
          <path d="M1720 682.2 C1752.4 655.2 1750.6 613.8 1720 598.5 C1689.4 613.8 1687.6 655.2 1720 682.2Z" fill="url(#gDiamond)" stroke="#EFFFFF" stroke-opacity="0.72" stroke-width="2"/>
          <path d="M1720 682.2 L1720 598.5 L1742.5 646.2Z" fill="#fff" opacity="0.22"/>
        </g><g transform="rotate(135.0 1720 720)" opacity="0.28">
          <path d="M1720 682.2 C1752.4 655.2 1750.6 613.8 1720 598.5 C1689.4 613.8 1687.6 655.2 1720 682.2Z" fill="url(#gDiamond)" stroke="#EFFFFF" stroke-opacity="0.72" stroke-width="2"/>
          <path d="M1720 682.2 L1720 598.5 L1742.5 646.2Z" fill="#fff" opacity="0.22"/>
        </g><g transform="rotate(180.0 1720 720)" opacity="0.28">
          <path d="M1720 682.2 C1752.4 655.2 1750.6 613.8 1720 598.5 C1689.4 613.8 1687.6 655.2 1720 682.2Z" fill="url(#gDiamond)" stroke="#EFFFFF" stroke-opacity="0.72" stroke-width="2"/>
          <path d="M1720 682.2 L1720 598.5 L1742.5 646.2Z" fill="#fff" opacity="0.22"/>
        </g><g transform="rotate(225.0 1720 720)" opacity="0.28">
          <path d="M1720 682.2 C1752.4 655.2 1750.6 613.8 1720 598.5 C1689.4 613.8 1687.6 655.2 1720 682.2Z" fill="url(#gDiamond)" stroke="#EFFFFF" stroke-opacity="0.72" stroke-width="2"/>
          <path d="M1720 682.2 L1720 598.5 L1742.5 646.2Z" fill="#fff" opacity="0.22"/>
        </g><g transform="rotate(270.0 1720 720)" opacity="0.28">
          <path d="M1720 682.2 C1752.4 655.2 1750.6 613.8 1720 598.5 C1689.4 613.8 1687.6 655.2 1720 682.2Z" fill="url(#gDiamond)" stroke="#EFFFFF" stroke-opacity="0.72" stroke-width="2"/>
          <path d="M1720 682.2 L1720 598.5 L1742.5 646.2Z" fill="#fff" opacity="0.22"/>
        </g><g transform="rotate(315.0 1720 720)" opacity="0.28">
          <path d="M1720 682.2 C1752.4 655.2 1750.6 613.8 1720 598.5 C1689.4 613.8 1687.6 655.2 1720 682.2Z" fill="url(#gDiamond)" stroke="#EFFFFF" stroke-opacity="0.72" stroke-width="2"/>
          <path d="M1720 682.2 L1720 598.5 L1742.5 646.2Z" fill="#fff" opacity="0.22"/>
        </g><circle cx="1720" cy="720" r="27.0" fill="url(#gDiamond)"/>
      <circle cx="1720" cy="720" r="10.799999999999999" fill="#FAFCFF" stroke="#236797" stroke-opacity="0.35"/>
      <circle cx="1727.2" cy="712.8" r="3.1500000000000004" fill="#fff" filter="url(#glow)"/></g>
</svg>