<?xml version="1.0" encoding="UTF-8"?>
<svg xmlns="http://www.w3.org/2000/svg" viewBox="0 0 1920 1080" width="1920" height="1080" role="img">
<title>Fondo de escritorio respaldo</title>

    <defs>
      <linearGradient id="gPlant" x1="0" y1="0" x2="1" y2="1">
        <stop offset="0" stop-color="#A9DB91"/><stop offset="0.5" stop-color="#4DA95F"/><stop offset="1" stop-color="#20744F"/>
      </linearGradient>
      <linearGradient id="gPlantDeep" x1="0" y1="0" x2="1" y2="1">
        <stop offset="0" stop-color="#4DA95F"/><stop offset="1" stop-color="#134834"/>
      </linearGradient>
      <linearGradient id="gDiamond" x1="0" y1="0" x2="1" y2="1">
        <stop offset="0" stop-color="#EBFAFF"/><stop offset="0.38" stop-color="#9ADEF1"/><stop offset="0.72" stop-color="#3997C9"/><stop offset="1" stop-color="#236797"/>
      </linearGradient>
      <linearGradient id="gGold" x1="0" y1="0" x2="1" y2="0">
        <stop offset="0" stop-color="#F7DD97"/><stop offset="0.52" stop-color="#DAAE47"/><stop offset="1" stop-color="#7D5420"/>
      </linearGradient>
      <linearGradient id="gBronze" x1="0" y1="0" x2="1" y2="1">
        <stop offset="0" stop-color="#E7AE77"/><stop offset="0.55" stop-color="#B57041"/><stop offset="1" stop-color="#6F3F26"/>
      </linearGradient>
      <linearGradient id="gPlatinum" x1="0" y1="0" x2="1" y2="1">
        <stop offset="0" stop-color="#FAFCFF"/><stop offset="0.42" stop-color="#DEE4EB"/><stop offset="0.75" stop-color="#B4BCC6"/><stop offset="1" stop-color="#697380"/>
      </linearGradient>
      <radialGradient id="rQuartz"><stop offset="0" stop-color="#fff"/><stop offset="1" stop-color="#F0F1F2"/></radialGradient>
      <filter id="softShadow" x="-40%" y="-40%" width="180%" height="180%"><feDropShadow dx="0" dy="8" stdDeviation="12" flood-color="#25343F" flood-opacity="0.16"/></filter>
      <filter id="smallShadow" x="-40%" y="-40%" width="180%" height="180%"><feDropShadow dx="0" dy="3" stdDeviation="4" flood-color="#25343F" flood-opacity="0.18"/></filter>
      <filter id="glow" x="-70%" y="-70%" width="240%" height="240%"><feGaussianBlur stdDeviation="6" result="b"/><feMerge><feMergeNode in="b"/><feMergeNode in="SourceGraphic"/></feMerge></filter>
      <pattern id="grid" width="48" height="48" patternUnits="userSpaceOnUse"><path d="M48 0H0V48" fill="none" stroke="#393E46" stroke-opacity="0.055" stroke-width="1"/></pattern>
      <pattern id="microGrid" width="20" height="20" patternUnits="userSpaceOnUse"><path d="M20 0H0V20" fill="none" stroke="#20744F" stroke-opacity="0.055" stroke-width="1"/></pattern>
    </defs>
<rect width="1920" height="1080" fill="url(#rQuartz)"/>
<rect width="1920" height="1080" fill="url(#rQuartz)"/>
      <radialGradient id="ambientPlant"><stop offset="0" stop-color="#A9DB91" stop-opacity=".26"/><stop offset="1" stop-color="#A9DB91" stop-opacity="0"/></radialGradient>
      <ellipse cx="240" cy="220" rx="520" ry="440" fill="url(#ambientPlant)"/>
      <rect width="1920" height="1080" fill="url(#grid)" opacity="0.7"/>
      <rect x="80" y="80" width="1160" height="760" fill="#fff" opacity=".18"/>
      <g opacity="0.6569801135108202" filter="url(#smallShadow)"><polygon points="1196.7,790.0 1192.0,794.7 1185.2,794.7 1180.5,790.0 1180.5,783.3 1185.2,778.5 1192.0,778.5 1196.7,783.3" fill="url(#gDiamond)" stroke="#fff" stroke-opacity="0.8" stroke-width="2"/><path d="M1182.4573395194698 786.622729045944L1188.5971524948457 780.4829160705681L1194.7369654702215 786.622729045944L1188.5971524948457 792.7625420213199Z" fill="#fff" opacity="0.18"/></g><g opacity="0.46624906175124214" filter="url(#smallShadow)"><polygon points="1410.1,972.4 1407.8,974.6 1404.6,974.6 1402.4,972.4 1402.4,969.2 1404.6,966.9 1407.8,966.9 1410.1,969.2" fill="url(#gGold)" stroke="#fff" stroke-opacity="0.8" stroke-width="2"/><path d="M1403.2895270574797 970.7714965987253L1406.211349016271 967.8496746399342L1409.1331709750623 970.7714965987253L1406.211349016271 973.6933185575165Z" fill="#fff" opacity="0.18"/></g><g opacity="0.3252823858612578" filter="url(#smallShadow)"><polygon points="1793.3,695.6 1788.2,700.6 1781.0,700.6 1776.0,695.6 1776.0,688.4 1781.0,683.3 1788.2,683.3 1793.3,688.4" fill="url(#gBronze)" stroke="#fff" stroke-opacity="0.8" stroke-width="2"/><path d="M1778.0597115515109 691.9540441996627L1784.6434936168635 685.3702621343101L1791.227275682216 691.9540441996627L1784.6434936168635 698.5378262650153Z" fill="#fff" opacity="0.18"/></g><g opacity="0.5095764751712404" filter="url(#smallShadow)"><polygon points="909.2,284.3 905.2,288.2 899.7,288.2 895.8,284.3 895.8,278.7 899.7,274.8 905.2,274.8 909.2,278.7" fill="url(#gPlatinum)" stroke="#fff" stroke-opacity="0.8" stroke-width="2"/><path d="M897.3846332660337 281.5042892722269L902.4684288748246 276.420493663436L907.5522244836154 281.5042892722269L902.4684288748246 286.58808488101783Z" fill="#fff" opacity="0.18"/></g><g opacity="0.6465381487234207" filter="url(#smallShadow)"><polygon points="59.6,253.2 56.6,256.3 52.2,256.3 49.1,253.2 49.1,248.9 52.2,245.8 56.6,245.8 59.6,248.9" fill="url(#gPlant)" stroke="#fff" stroke-opacity="0.8" stroke-width="2"/><path d="M50.418566698111434 251.06439647312513L54.3923926353581 247.09057053587847L58.366218572604765 251.06439647312513L54.3923926353581 255.0382224103718Z" fill="#fff" opacity="0.18"/></g><g opacity="0.3355069673595613" filter="url(#smallShadow)"><polygon points="1462.4,196.2 1457.6,200.9 1450.9,200.9 1446.1,196.2 1446.1,189.4 1450.9,184.7 1457.6,184.7 1462.4,189.4" fill="url(#gDiamond)" stroke="#fff" stroke-opacity="0.8" stroke-width="2"/><path d="M1448.1013226661926 192.796296605199L1454.2493400302037 186.64827924118794L1460.3973573942149 192.796296605199L1454.2493400302037 198.94431396921004Z" fill="#fff" opacity="0.18"/></g><g opacity="0.628561897889713" filter="url(#smallShadow)"><polygon points="1182.2,160.8 1180.0,162.9 1176.9,162.9 1174.8,160.8 1174.8,157.7 1176.9,155.5 1180.0,155.5 1182.2,157.7" fill="url(#gGold)" stroke="#fff" stroke-opacity="0.8" stroke-width="2"/><path d="M1175.6542336457262 159.2332172012751L1178.4616880669769 156.42576278002446L1181.2691424882275 159.2332172012751L1178.4616880669769 162.04067162252574Z" fill="#fff" opacity="0.18"/></g><g opacity="0.6289631061747207" filter="url(#smallShadow)"><polygon points="428.7,253.6 423.4,258.9 415.8,258.9 410.4,253.6 410.4,246.0 415.8,240.6 423.4,240.6 428.7,246.0" fill="url(#gBronze)" stroke="#fff" stroke-opacity="0.8" stroke-width="2"/><path d="M412.66270278385036 249.7907926092269L419.58887144091926 242.864623952158L426.51504009798816 249.7907926092269L419.58887144091926 256.7169612662958Z" fill="#fff" opacity="0.18"/></g><g opacity="0.5511321909002369" filter="url(#smallShadow)"><polygon points="574.8,1013.5 570.9,1017.4 565.3,1017.4 561.4,1013.5 561.4,1007.9 565.3,1004.0 570.9,1004.0 574.8,1007.9" fill="url(#gPlatinum)" stroke="#fff" stroke-opacity="0.8" stroke-width="2"/><path d="M563.0428734400258 1010.7075487290851L568.1076120092832 1005.6428101598277L573.1723505785407 1010.7075487290851L568.1076120092832 1015.7722872983426Z" fill="#fff" opacity="0.18"/></g><g opacity="0.6666257249268782" filter="url(#smallShadow)"><polygon points="418.4,992.9 414.0,997.3 407.8,997.3 403.4,992.9 403.4,986.7 407.8,982.3 414.0,982.3 418.4,986.7" fill="url(#gPlant)" stroke="#fff" stroke-opacity="0.8" stroke-width="2"/><path d="M405.18920088020565 989.7955211097591L410.88989703285466 984.0948249571101L416.5905931855037 989.7955211097591L410.88989703285466 995.4962172624081Z" fill="#fff" opacity="0.18"/></g><g opacity="0.34638242285189824" filter="url(#smallShadow)"><polygon points="1698.1,337.1 1694.7,340.5 1690.0,340.5 1686.7,337.1 1686.7,332.4 1690.0,329.1 1694.7,329.1 1698.1,332.4" fill="url(#gDiamond)" stroke="#fff" stroke-opacity="0.8" stroke-width="2"/><path d="M1688.042522566416 334.7646758109451L1692.35952029225 330.4476780851111L1696.676518018084 334.7646758109451L1692.35952029225 339.08167353677914Z" fill="#fff" opacity="0.18"/></g><g opacity="0.5212439989630617" filter="url(#smallShadow)"><polygon points="306.4,98.7 303.2,101.8 298.8,101.8 295.6,98.7 295.6,94.2 298.8,91.1 303.2,91.1 306.4,94.2" fill="url(#gGold)" stroke="#fff" stroke-opacity="0.8" stroke-width="2"/><path d="M296.93984352243774 96.44250764318978L301.0055517456695 92.37679941995805L305.07125996890124 96.44250764318978L301.0055517456695 100.50821586642152Z" fill="#fff" opacity="0.18"/></g><g opacity="0.40398317264125155" filter="url(#smallShadow)"><polygon points="41.9,723.8 38.6,727.1 34.0,727.1 30.7,723.8 30.7,719.2 34.0,715.9 38.6,715.9 41.9,719.2" fill="url(#gBronze)" stroke="#fff" stroke-opacity="0.8" stroke-width="2"/><path d="M32.07343521746654 721.492934538645L36.29260203630357 717.273767719808L40.5117688551406 721.492934538645L36.29260203630357 725.7121013574821Z" fill="#fff" opacity="0.18"/></g><g opacity="0.47248735449474555" filter="url(#smallShadow)"><polygon points="1557.9,522.6 1554.7,525.8 1550.2,525.8 1547.0,522.6 1547.0,518.1 1550.2,514.9 1554.7,514.9 1557.9,518.1" fill="url(#gPlatinum)" stroke="#fff" stroke-opacity="0.8" stroke-width="2"/><path d="M1548.3172877989966 520.3600903626398L1552.4436188435518 516.2337593180847L1556.569949888107 520.3600903626398L1552.4436188435518 524.4864214071948Z" fill="#fff" opacity="0.18"/></g><g opacity="0.2891462253010883" filter="url(#smallShadow)"><polygon points="1349.8,91.9 1344.5,97.2 1336.9,97.2 1331.6,91.9 1331.6,84.4 1336.9,79.0 1344.5,79.0 1349.8,84.4" fill="url(#gPlant)" stroke="#fff" stroke-opacity="0.8" stroke-width="2"/><path d="M1333.7891713368856 88.14094812650575L1340.6845895020913 81.24552996129997L1347.580007667297 88.14094812650575L1340.6845895020913 95.03636629171153Z" fill="#fff" opacity="0.18"/></g><g opacity="0.5950953215921737" filter="url(#smallShadow)"><polygon points="1428.4,893.4 1426.2,895.6 1423.0,895.6 1420.8,893.4 1420.8,890.2 1423.0,888.0 1426.2,888.0 1428.4,890.2" fill="url(#gDiamond)" stroke="#fff" stroke-opacity="0.8" stroke-width="2"/><path d="M1421.7428578131783 891.7785071758923L1424.6187414617682 888.9026235273025L1427.4946251103581 891.7785071758923L1424.6187414617682 894.6543908244821Z" fill="#fff" opacity="0.18"/></g><g opacity="0.29869084747957664" filter="url(#smallShadow)"><polygon points="714.8,621.6 712.7,623.8 709.6,623.8 707.4,621.6 707.4,618.5 709.6,616.3 712.7,616.3 714.8,618.5" fill="url(#gGold)" stroke="#fff" stroke-opacity="0.8" stroke-width="2"/><path d="M708.2649958412186 620.0892056380121L711.1031250658606 617.2510764133701L713.9412542905026 620.0892056380121L711.1031250658606 622.9273348626541Z" fill="#fff" opacity="0.18"/></g><g opacity="0.5822945649805271" filter="url(#smallShadow)"><polygon points="371.3,1006.3 368.5,1009.1 364.5,1009.1 361.7,1006.3 361.7,1002.3 364.5,999.5 368.5,999.5 371.3,1002.3" fill="url(#gBronze)" stroke="#fff" stroke-opacity="0.8" stroke-width="2"/><path d="M362.8848565727943 1004.2834975829896L366.51024758894897 1000.658106566835L370.1356386051036 1004.2834975829896L366.51024758894897 1007.9088885991442Z" fill="#fff" opacity="0.18"/></g>
      <g transform="rotate(-8 1580 720)" filter="url(#smallShadow)">
      <circle cx="1580" cy="720" r="150" fill="url(#gBronze)"/>
      <circle cx="1580" cy="720" r="122.99999999999999" fill="#FFFDF7" stroke="#fff" stroke-width="3"/>
      <line x1="1580.0" y1="618.0" x2="1580.0" y2="594.0" stroke="#6F3F26" stroke-width="3" stroke-linecap="round"/><line x1="1631.0" y1="631.7" x2="1643.0" y2="610.9" stroke="#6F3F26" stroke-width="3" stroke-linecap="round"/><line x1="1668.3" y1="669.0" x2="1689.1" y2="657.0" stroke="#6F3F26" stroke-width="3" stroke-linecap="round"/><line x1="1682.0" y1="720.0" x2="1706.0" y2="720.0" stroke="#6F3F26" stroke-width="3" stroke-linecap="round"/><line x1="1668.3" y1="771.0" x2="1689.1" y2="783.0" stroke="#6F3F26" stroke-width="3" stroke-linecap="round"/><line x1="1631.0" y1="808.3" x2="1643.0" y2="829.1" stroke="#6F3F26" stroke-width="3" stroke-linecap="round"/><line x1="1580.0" y1="822.0" x2="1580.0" y2="846.0" stroke="#6F3F26" stroke-width="3" stroke-linecap="round"/><line x1="1529.0" y1="808.3" x2="1517.0" y2="829.1" stroke="#6F3F26" stroke-width="3" stroke-linecap="round"/><line x1="1491.7" y1="771.0" x2="1470.9" y2="783.0" stroke="#6F3F26" stroke-width="3" stroke-linecap="round"/><line x1="1478.0" y1="720.0" x2="1454.0" y2="720.0" stroke="#6F3F26" stroke-width="3" stroke-linecap="round"/><line x1="1491.7" y1="669.0" x2="1470.9" y2="657.0" stroke="#6F3F26" stroke-width="3" stroke-linecap="round"/><line x1="1529.0" y1="631.7" x2="1517.0" y2="610.9" stroke="#6F3F26" stroke-width="3" stroke-linecap="round"/>
      <line x1="1580" y1="720" x2="1643.0" y2="690.0" stroke="#6F3F26" stroke-width="5" stroke-linecap="round"/>
      <line x1="1580" y1="720" x2="1562.0" y2="648.0" stroke="#6F3F26" stroke-width="4" stroke-linecap="round"/>
      <circle cx="1580" cy="720" r="12.0" fill="#DAAE47"/>
      <ellipse cx="1542.5" cy="663.0" rx="33.0" ry="12.0" fill="#fff" opacity="0.32" transform="rotate(-25 1542.5 663.0)"/>
    </g><g filter="url(#smallShadow)">
      <rect x="1400" y="430" width="300" height="260" rx="18.0" fill="url(#gPlatinum)" stroke="#fff" stroke-width="3"/>
      <rect x="1418.0" y="469.0" width="264.0" height="197.6" rx="9.0" fill="#FDFEFF" stroke="#697380" stroke-opacity="0.38" stroke-width="2"/>
      <path d="M1454.0 435.2V482.0 M1616.0 435.2V482.0" stroke="#697380" stroke-width="12" stroke-linecap="round"/>
      <rect x="1448.0" y="515.8" width="48.0" height="36.4" fill="#FFFFFF" stroke="#B4BCC6" stroke-width="2"/><rect x="1505.0" y="515.8" width="48.0" height="36.4" fill="#FFFFFF" stroke="#B4BCC6" stroke-width="2"/><rect x="1562.0" y="515.8" width="48.0" height="36.4" fill="#FFFFFF" stroke="#B4BCC6" stroke-width="2"/><rect x="1619.0" y="515.8" width="48.0" height="36.4" fill="#FFFFFF" stroke="#B4BCC6" stroke-width="2"/><rect x="1448.0" y="565.2" width="48.0" height="36.4" fill="#FFFFFF" stroke="#B4BCC6" stroke-width="2"/><rect x="1505.0" y="565.2" width="48.0" height="36.4" fill="#FFFFFF" stroke="#B4BCC6" stroke-width="2"/><rect x="1562.0" y="565.2" width="48.0" height="36.4" fill="url(#gPlant)" stroke="#236797" stroke-width="2"/><rect x="1619.0" y="565.2" width="48.0" height="36.4" fill="#FFFFFF" stroke="#B4BCC6" stroke-width="2"/><rect x="1448.0" y="614.6" width="48.0" height="36.4" fill="#FFFFFF" stroke="#B4BCC6" stroke-width="2"/><rect x="1505.0" y="614.6" width="48.0" height="36.4" fill="#FFFFFF" stroke="#B4BCC6" stroke-width="2"/><rect x="1562.0" y="614.6" width="48.0" height="36.4" fill="#FFFFFF" stroke="#B4BCC6" stroke-width="2"/><rect x="1619.0" y="614.6" width="48.0" height="36.4" fill="#FFFFFF" stroke="#B4BCC6" stroke-width="2"/>
      <g transform="translate(1592.0 552.2) rotate(0) scale(0.26)">
      <path d="M0 92 C2 58 6 30 14 0" fill="none" stroke="url(#gPlantDeep)" stroke-width="12" stroke-linecap="round"/>
      <g transform="translate(9 22) rotate(-32) scale(0.48)" opacity="1.0">
      <path d="M0 0 C28 -58 82 -62 112 -12 C78 18 32 30 0 0Z" fill="url(#gPlant)"/>
      <path d="M8 -1 C42 -16 69 -27 101 -15" fill="none" stroke="#EFFFF0" stroke-opacity="0.55" stroke-width="3"/>
      <path d="M10 0 C43 -12 74 -10 105 -12" fill="none" stroke="#134834" stroke-opacity="0.28" stroke-width="2"/>
    </g>
      <g transform="translate(12 34) rotate(155) scale(0.45)" opacity="1.0">
      <path d="M0 0 C28 -58 82 -62 112 -12 C78 18 32 30 0 0Z" fill="url(#gPlant)"/>
      <path d="M8 -1 C42 -16 69 -27 101 -15" fill="none" stroke="#EFFFF0" stroke-opacity="0.55" stroke-width="3"/>
      <path d="M10 0 C43 -12 74 -10 105 -12" fill="none" stroke="#134834" stroke-opacity="0.28" stroke-width="2"/>
    </g>
    </g>
    </g><g opacity="0.25">
      <path d="M-50 880 C537.6 815 1382.3999999999999 945 1970 880" fill="none" stroke="url(#gGold)" stroke-width="11" stroke-linecap="round"/>
      <path d="M-50 902 C537.6 912.5 1382.3999999999999 837.75 1970 898" fill="none" stroke="#F7DD97" stroke-opacity="0.7" stroke-width="3"/>
      <path d="M-50 862 C537.6 863.75 1382.3999999999999 909.25 1970 868" fill="none" stroke="#DAAE47" stroke-opacity="0.42" stroke-width="2"/>
    </g><g opacity="0.22">
      <path d="M-30 930 C576.0 880 1305.6000000000001 980 1950 930" fill="none" stroke="url(#gPlant)" stroke-width="15" stroke-linecap="round"/>
      <path d="M-30 948 C480.0 970.0 1344.0 900.0 1950 938" fill="none" stroke="#A9DB91" stroke-opacity="0.46" stroke-width="4"/>
    </g>
</svg>