<?xml version="1.0" encoding="UTF-8"?>
<svg xmlns="http://www.w3.org/2000/svg" viewBox="0 0 1400 800" width="1400" height="800" role="img">
<title>Ilustración de página respaldo</title>

    <defs>
      <linearGradient id="gPlant" x1="0" y1="0" x2="1" y2="1">
        <stop offset="0" stop-color="#A9DB91"/><stop offset="0.5" stop-color="#4DA95F"/><stop offset="1" stop-color="#20744F"/>
      </linearGradient>
      <linearGradient id="gPlantDeep" x1="0" y1="0" x2="1" y2="1">
        <stop offset="0" stop-color="#4DA95F"/><stop offset="1" stop-color="#134834"/>
      </linearGradient>
      <linearGradient id="gDiamond" x1="0" y1="0" x2="1" y2="1">
        <stop offset="0" stop-color="#EBFAFF"/><stop offset="0.38" stop-color="#9ADEF1"/><stop offset="0.72" stop-color="#3997C9"/><stop offset="1" stop-color="#236797"/>
      </linearGradient>
      <linearGradient id="gGold" x1="0" y1="0" x2="1" y2="0">
        <stop offset="0" stop-color="#F7DD97"/><stop offset="0.52" stop-color="#DAAE47"/><stop offset="1" stop-color="#7D5420"/>
      </linearGradient>
      <linearGradient id="gBronze" x1="0" y1="0" x2="1" y2="1">
        <stop offset="0" stop-color="#E7AE77"/><stop offset="0.55" stop-color="#B57041"/><stop offset="1" stop-color="#6F3F26"/>
      </linearGradient>
      <linearGradient id="gPlatinum" x1="0" y1="0" x2="1" y2="1">
        <stop offset="0" stop-color="#FAFCFF"/><stop offset="0.42" stop-color="#DEE4EB"/><stop offset="0.75" stop-color="#B4BCC6"/><stop offset="1" stop-color="#697380"/>
      </linearGradient>
      <radialGradient id="rQuartz"><stop offset="0" stop-color="#fff"/><stop offset="1" stop-color="#F0F1F2"/></radialGradient>
      <filter id="softShadow" x="-40%" y="-40%" width="180%" height="180%"><feDropShadow dx="0" dy="8" stdDeviation="12" flood-color="#25343F" flood-opacity="0.16"/></filter>
      <filter id="smallShadow" x="-40%" y="-40%" width="180%" height="180%"><feDropShadow dx="0" dy="3" stdDeviation="4" flood-color="#25343F" flood-opacity="0.18"/></filter>
      <filter id="glow" x="-70%" y="-70%" width="240%" height="240%"><feGaussianBlur stdDeviation="6" result="b"/><feMerge><feMergeNode in="b"/><feMergeNode in="SourceGraphic"/></feMerge></filter>
      <pattern id="grid" width="48" height="48" patternUnits="userSpaceOnUse"><path d="M48 0H0V48" fill="none" stroke="#393E46" stroke-opacity="0.055" stroke-width="1"/></pattern>
      <pattern id="microGrid" width="20" height="20" patternUnits="userSpaceOnUse"><path d="M20 0H0V20" fill="none" stroke="#20744F" stroke-opacity="0.055" stroke-width="1"/></pattern>
    </defs>
<rect width="1400" height="800" fill="url(#rQuartz)"/>
<rect width="1400" height="800" fill="url(#rQuartz)"/><rect width="1400" height="800" fill="url(#grid)" opacity="0.72"/><ellipse cx="1020" cy="430" rx="390" ry="300" fill="#A9DB91" opacity=".12"/><g opacity="0.42">
      <path d="M-50 650 C392.00000000000006 580 1008.0 720 1450 650" fill="none" stroke="url(#gGold)" stroke-width="11" stroke-linecap="round"/>
      <path d="M-50 672 C392.00000000000006 685.0 1008.0 604.5 1450 668" fill="none" stroke="#F7DD97" stroke-opacity="0.7" stroke-width="3"/>
      <path d="M-50 632 C392.00000000000006 632.5 1008.0 681.5 1450 638" fill="none" stroke="#DAAE47" stroke-opacity="0.42" stroke-width="2"/>
    </g><g opacity="0.28">
      <path d="M-30 700 C420.0 645 952.0000000000001 755 1430 700" fill="none" stroke="url(#gPlant)" stroke-width="15" stroke-linecap="round"/>
      <path d="M-30 718 C350.0 744.0 979.9999999999999 667.0 1430 708" fill="none" stroke="#A9DB91" stroke-opacity="0.46" stroke-width="4"/>
    </g><path d="M740 300H1160V650H740Z" fill="url(#gBronze)" filter="url(#softShadow)"/><path d="M800 230H1100L1160 300H740Z" fill="url(#gPlatinum)"/><g filter="url(#smallShadow)">
      <rect x="850" y="350" width="220" height="200" rx="13.2" fill="url(#gPlatinum)" stroke="#fff" stroke-width="3"/>
      <rect x="863.2" y="380.0" width="193.6" height="152.0" rx="6.6" fill="#FDFEFF" stroke="#697380" stroke-opacity="0.38" stroke-width="2"/>
      <path d="M889.6 354.0V390.0 M1008.4 354.0V390.0" stroke="#697380" stroke-width="12" stroke-linecap="round"/>
      <rect x="885.2" y="416.0" width="35.2" height="28.0" fill="#FFFFFF" stroke="#B4BCC6" stroke-width="2"/><rect x="927.0" y="416.0" width="35.2" height="28.0" fill="#FFFFFF" stroke="#B4BCC6" stroke-width="2"/><rect x="968.8" y="416.0" width="35.2" height="28.0" fill="#FFFFFF" stroke="#B4BCC6" stroke-width="2"/><rect x="1010.6" y="416.0" width="35.2" height="28.0" fill="#FFFFFF" stroke="#B4BCC6" stroke-width="2"/><rect x="885.2" y="454.0" width="35.2" height="28.0" fill="#FFFFFF" stroke="#B4BCC6" stroke-width="2"/><rect x="927.0" y="454.0" width="35.2" height="28.0" fill="#FFFFFF" stroke="#B4BCC6" stroke-width="2"/><rect x="968.8" y="454.0" width="35.2" height="28.0" fill="url(#gPlant)" stroke="#20744F" stroke-width="2"/><rect x="1010.6" y="454.0" width="35.2" height="28.0" fill="#FFFFFF" stroke="#B4BCC6" stroke-width="2"/><rect x="885.2" y="492.0" width="35.2" height="28.0" fill="#FFFFFF" stroke="#B4BCC6" stroke-width="2"/><rect x="927.0" y="492.0" width="35.2" height="28.0" fill="#FFFFFF" stroke="#B4BCC6" stroke-width="2"/><rect x="968.8" y="492.0" width="35.2" height="28.0" fill="#FFFFFF" stroke="#B4BCC6" stroke-width="2"/><rect x="1010.6" y="492.0" width="35.2" height="28.0" fill="#FFFFFF" stroke="#B4BCC6" stroke-width="2"/>
      <g transform="translate(990.8 444.0) rotate(0) scale(0.26)">
      <path d="M0 92 C2 58 6 30 14 0" fill="none" stroke="url(#gPlantDeep)" stroke-width="12" stroke-linecap="round"/>
      <g transform="translate(9 22) rotate(-32) scale(0.48)" opacity="1.0">
      <path d="M0 0 C28 -58 82 -62 112 -12 C78 18 32 30 0 0Z" fill="url(#gPlant)"/>
      <path d="M8 -1 C42 -16 69 -27 101 -15" fill="none" stroke="#EFFFF0" stroke-opacity="0.55" stroke-width="3"/>
      <path d="M10 0 C43 -12 74 -10 105 -12" fill="none" stroke="#134834" stroke-opacity="0.28" stroke-width="2"/>
    </g>
      <g transform="translate(12 34) rotate(155) scale(0.45)" opacity="1.0">
      <path d="M0 0 C28 -58 82 -62 112 -12 C78 18 32 30 0 0Z" fill="url(#gPlant)"/>
      <path d="M8 -1 C42 -16 69 -27 101 -15" fill="none" stroke="#EFFFF0" stroke-opacity="0.55" stroke-width="3"/>
      <path d="M10 0 C43 -12 74 -10 105 -12" fill="none" stroke="#134834" stroke-opacity="0.28" stroke-width="2"/>
    </g>
    </g>
    </g><g transform="rotate(0 1160 600)" filter="url(#smallShadow)">
      <circle cx="1160" cy="600" r="90" fill="url(#gBronze)"/>
      <circle cx="1160" cy="600" r="73.8" fill="#FFFDF7" stroke="#fff" stroke-width="3"/>
      <line x1="1160.0" y1="538.8" x2="1160.0" y2="524.4" stroke="#6F3F26" stroke-width="3" stroke-linecap="round"/><line x1="1190.6" y1="547.0" x2="1197.8" y2="534.5" stroke="#6F3F26" stroke-width="3" stroke-linecap="round"/><line x1="1213.0" y1="569.4" x2="1225.5" y2="562.2" stroke="#6F3F26" stroke-width="3" stroke-linecap="round"/><line x1="1221.2" y1="600.0" x2="1235.6" y2="600.0" stroke="#6F3F26" stroke-width="3" stroke-linecap="round"/><line x1="1213.0" y1="630.6" x2="1225.5" y2="637.8" stroke="#6F3F26" stroke-width="3" stroke-linecap="round"/><line x1="1190.6" y1="653.0" x2="1197.8" y2="665.5" stroke="#6F3F26" stroke-width="3" stroke-linecap="round"/><line x1="1160.0" y1="661.2" x2="1160.0" y2="675.6" stroke="#6F3F26" stroke-width="3" stroke-linecap="round"/><line x1="1129.4" y1="653.0" x2="1122.2" y2="665.5" stroke="#6F3F26" stroke-width="3" stroke-linecap="round"/><line x1="1107.0" y1="630.6" x2="1094.5" y2="637.8" stroke="#6F3F26" stroke-width="3" stroke-linecap="round"/><line x1="1098.8" y1="600.0" x2="1084.4" y2="600.0" stroke="#6F3F26" stroke-width="3" stroke-linecap="round"/><line x1="1107.0" y1="569.4" x2="1094.5" y2="562.2" stroke="#6F3F26" stroke-width="3" stroke-linecap="round"/><line x1="1129.4" y1="547.0" x2="1122.2" y2="534.5" stroke="#6F3F26" stroke-width="3" stroke-linecap="round"/>
      <line x1="1160" y1="600" x2="1197.8" y2="582.0" stroke="#6F3F26" stroke-width="5" stroke-linecap="round"/>
      <line x1="1160" y1="600" x2="1149.2" y2="556.8" stroke="#6F3F26" stroke-width="4" stroke-linecap="round"/>
      <circle cx="1160" cy="600" r="7.2" fill="#DAAE47"/>
      <ellipse cx="1137.5" cy="565.8" rx="19.8" ry="7.2" fill="#fff" opacity="0.32" transform="rotate(-25 1137.5 565.8)"/>
    </g>
</svg>