<?xml version="1.0" encoding="UTF-8"?>
<svg xmlns="http://www.w3.org/2000/svg" viewBox="0 0 1400 800" width="1400" height="800" role="img">
<title>Ilustración de página puntos</title>

    <defs>
      <linearGradient id="gPlant" x1="0" y1="0" x2="1" y2="1">
        <stop offset="0" stop-color="#A9DB91"/><stop offset="0.5" stop-color="#4DA95F"/><stop offset="1" stop-color="#20744F"/>
      </linearGradient>
      <linearGradient id="gPlantDeep" x1="0" y1="0" x2="1" y2="1">
        <stop offset="0" stop-color="#4DA95F"/><stop offset="1" stop-color="#134834"/>
      </linearGradient>
      <linearGradient id="gDiamond" x1="0" y1="0" x2="1" y2="1">
        <stop offset="0" stop-color="#EBFAFF"/><stop offset="0.38" stop-color="#9ADEF1"/><stop offset="0.72" stop-color="#3997C9"/><stop offset="1" stop-color="#236797"/>
      </linearGradient>
      <linearGradient id="gGold" x1="0" y1="0" x2="1" y2="0">
        <stop offset="0" stop-color="#F7DD97"/><stop offset="0.52" stop-color="#DAAE47"/><stop offset="1" stop-color="#7D5420"/>
      </linearGradient>
      <linearGradient id="gBronze" x1="0" y1="0" x2="1" y2="1">
        <stop offset="0" stop-color="#E7AE77"/><stop offset="0.55" stop-color="#B57041"/><stop offset="1" stop-color="#6F3F26"/>
      </linearGradient>
      <linearGradient id="gPlatinum" x1="0" y1="0" x2="1" y2="1">
        <stop offset="0" stop-color="#FAFCFF"/><stop offset="0.42" stop-color="#DEE4EB"/><stop offset="0.75" stop-color="#B4BCC6"/><stop offset="1" stop-color="#697380"/>
      </linearGradient>
      <radialGradient id="rQuartz"><stop offset="0" stop-color="#fff"/><stop offset="1" stop-color="#F0F1F2"/></radialGradient>
      <filter id="softShadow" x="-40%" y="-40%" width="180%" height="180%"><feDropShadow dx="0" dy="8" stdDeviation="12" flood-color="#25343F" flood-opacity="0.16"/></filter>
      <filter id="smallShadow" x="-40%" y="-40%" width="180%" height="180%"><feDropShadow dx="0" dy="3" stdDeviation="4" flood-color="#25343F" flood-opacity="0.18"/></filter>
      <filter id="glow" x="-70%" y="-70%" width="240%" height="240%"><feGaussianBlur stdDeviation="6" result="b"/><feMerge><feMergeNode in="b"/><feMergeNode in="SourceGraphic"/></feMerge></filter>
      <pattern id="grid" width="48" height="48" patternUnits="userSpaceOnUse"><path d="M48 0H0V48" fill="none" stroke="#393E46" stroke-opacity="0.055" stroke-width="1"/></pattern>
      <pattern id="microGrid" width="20" height="20" patternUnits="userSpaceOnUse"><path d="M20 0H0V20" fill="none" stroke="#20744F" stroke-opacity="0.055" stroke-width="1"/></pattern>
    </defs>
<rect width="1400" height="800" fill="url(#rQuartz)"/>
<rect width="1400" height="800" fill="url(#rQuartz)"/><rect width="1400" height="800" fill="url(#grid)" opacity="0.72"/><ellipse cx="1020" cy="430" rx="390" ry="300" fill="#A9DB91" opacity=".12"/><g opacity="0.42">
      <path d="M-50 650 C392.00000000000006 580 1008.0 720 1450 650" fill="none" stroke="url(#gGold)" stroke-width="11" stroke-linecap="round"/>
      <path d="M-50 672 C392.00000000000006 685.0 1008.0 604.5 1450 668" fill="none" stroke="#F7DD97" stroke-opacity="0.7" stroke-width="3"/>
      <path d="M-50 632 C392.00000000000006 632.5 1008.0 681.5 1450 638" fill="none" stroke="#DAAE47" stroke-opacity="0.42" stroke-width="2"/>
    </g><g opacity="0.28">
      <path d="M-30 700 C420.0 645 952.0000000000001 755 1430 700" fill="none" stroke="url(#gPlant)" stroke-width="15" stroke-linecap="round"/>
      <path d="M-30 718 C350.0 744.0 979.9999999999999 667.0 1430 708" fill="none" stroke="#A9DB91" stroke-opacity="0.46" stroke-width="4"/>
    </g><g opacity="0.82" filter="url(#smallShadow)"><polygon points="811.6,297.2 787.2,321.6 752.8,321.6 728.4,297.2 728.4,262.8 752.8,238.4 787.2,238.4 811.6,262.8" fill="url(#gGold)" stroke="#fff" stroke-opacity="0.8" stroke-width="2"/><path d="M738.5 280L770 248.5L801.5 280L770 311.5Z" fill="#fff" opacity="0.18"/></g><g opacity="0.82" filter="url(#smallShadow)"><polygon points="941.6,297.2 917.2,321.6 882.8,321.6 858.4,297.2 858.4,262.8 882.8,238.4 917.2,238.4 941.6,262.8" fill="url(#gGold)" stroke="#fff" stroke-opacity="0.8" stroke-width="2"/><path d="M868.5 280L900 248.5L931.5 280L900 311.5Z" fill="#fff" opacity="0.18"/></g><g opacity="0.82" filter="url(#smallShadow)"><polygon points="1071.6,297.2 1047.2,321.6 1012.8,321.6 988.4,297.2 988.4,262.8 1012.8,238.4 1047.2,238.4 1071.6,262.8" fill="url(#gGold)" stroke="#fff" stroke-opacity="0.8" stroke-width="2"/><path d="M998.5 280L1030 248.5L1061.5 280L1030 311.5Z" fill="#fff" opacity="0.18"/></g><g opacity="0.82" filter="url(#smallShadow)"><polygon points="1201.6,297.2 1177.2,321.6 1142.8,321.6 1118.4,297.2 1118.4,262.8 1142.8,238.4 1177.2,238.4 1201.6,262.8" fill="url(#gGold)" stroke="#fff" stroke-opacity="0.8" stroke-width="2"/><path d="M1128.5 280L1160 248.5L1191.5 280L1160 311.5Z" fill="#fff" opacity="0.18"/></g><g opacity="0.82" filter="url(#smallShadow)"><polygon points="811.6,432.2 787.2,456.6 752.8,456.6 728.4,432.2 728.4,397.8 752.8,373.4 787.2,373.4 811.6,397.8" fill="url(#gGold)" stroke="#fff" stroke-opacity="0.8" stroke-width="2"/><path d="M738.5 415L770 383.5L801.5 415L770 446.5Z" fill="#fff" opacity="0.18"/></g><g opacity="0.82" filter="url(#smallShadow)"><polygon points="941.6,432.2 917.2,456.6 882.8,456.6 858.4,432.2 858.4,397.8 882.8,373.4 917.2,373.4 941.6,397.8" fill="url(#gGold)" stroke="#fff" stroke-opacity="0.8" stroke-width="2"/><path d="M868.5 415L900 383.5L931.5 415L900 446.5Z" fill="#fff" opacity="0.18"/></g><g opacity="0.82" filter="url(#smallShadow)"><polygon points="1071.6,432.2 1047.2,456.6 1012.8,456.6 988.4,432.2 988.4,397.8 1012.8,373.4 1047.2,373.4 1071.6,397.8" fill="url(#gGold)" stroke="#fff" stroke-opacity="0.8" stroke-width="2"/><path d="M998.5 415L1030 383.5L1061.5 415L1030 446.5Z" fill="#fff" opacity="0.18"/></g><g opacity="0.82" filter="url(#smallShadow)"><polygon points="1201.6,432.2 1177.2,456.6 1142.8,456.6 1118.4,432.2 1118.4,397.8 1142.8,373.4 1177.2,373.4 1201.6,397.8" fill="url(#gGold)" stroke="#fff" stroke-opacity="0.8" stroke-width="2"/><path d="M1128.5 415L1160 383.5L1191.5 415L1160 446.5Z" fill="#fff" opacity="0.18"/></g><g opacity="0.82" filter="url(#smallShadow)"><polygon points="811.6,567.2 787.2,591.6 752.8,591.6 728.4,567.2 728.4,532.8 752.8,508.4 787.2,508.4 811.6,532.8" fill="url(#gGold)" stroke="#fff" stroke-opacity="0.8" stroke-width="2"/><path d="M738.5 550L770 518.5L801.5 550L770 581.5Z" fill="#fff" opacity="0.18"/></g><g opacity="0.82" filter="url(#smallShadow)"><polygon points="941.6,567.2 917.2,591.6 882.8,591.6 858.4,567.2 858.4,532.8 882.8,508.4 917.2,508.4 941.6,532.8" fill="url(#gGold)" stroke="#fff" stroke-opacity="0.8" stroke-width="2"/><path d="M868.5 550L900 518.5L931.5 550L900 581.5Z" fill="#fff" opacity="0.18"/></g><g opacity="0.82" filter="url(#smallShadow)"><polygon points="1071.6,567.2 1047.2,591.6 1012.8,591.6 988.4,567.2 988.4,532.8 1012.8,508.4 1047.2,508.4 1071.6,532.8" fill="url(#gGold)" stroke="#fff" stroke-opacity="0.8" stroke-width="2"/><path d="M998.5 550L1030 518.5L1061.5 550L1030 581.5Z" fill="#fff" opacity="0.18"/></g><g opacity="0.82" filter="url(#smallShadow)"><polygon points="1201.6,567.2 1177.2,591.6 1142.8,591.6 1118.4,567.2 1118.4,532.8 1142.8,508.4 1177.2,508.4 1201.6,532.8" fill="url(#gGold)" stroke="#fff" stroke-opacity="0.8" stroke-width="2"/><path d="M1128.5 550L1160 518.5L1191.5 550L1160 581.5Z" fill="#fff" opacity="0.18"/></g><g transform="translate(1220 430) rotate(0) scale(1.2)">
      <path d="M0 92 C2 58 6 30 14 0" fill="none" stroke="url(#gPlantDeep)" stroke-width="12" stroke-linecap="round"/>
      <g transform="translate(9 22) rotate(-32) scale(0.48)" opacity="1.0">
      <path d="M0 0 C28 -58 82 -62 112 -12 C78 18 32 30 0 0Z" fill="url(#gPlant)"/>
      <path d="M8 -1 C42 -16 69 -27 101 -15" fill="none" stroke="#EFFFF0" stroke-opacity="0.55" stroke-width="3"/>
      <path d="M10 0 C43 -12 74 -10 105 -12" fill="none" stroke="#134834" stroke-opacity="0.28" stroke-width="2"/>
    </g>
      <g transform="translate(12 34) rotate(155) scale(0.45)" opacity="1.0">
      <path d="M0 0 C28 -58 82 -62 112 -12 C78 18 32 30 0 0Z" fill="url(#gPlant)"/>
      <path d="M8 -1 C42 -16 69 -27 101 -15" fill="none" stroke="#EFFFF0" stroke-opacity="0.55" stroke-width="3"/>
      <path d="M10 0 C43 -12 74 -10 105 -12" fill="none" stroke="#134834" stroke-opacity="0.28" stroke-width="2"/>
    </g>
    </g>
</svg>